<?xml version="1.0" encoding="utf-8"?>
<!-- Generator: Adobe Illustrator 22.1.0, SVG Export Plug-In . SVG Version: 6.00 Build 0)  -->
<svg version="1.1" id="Layer_1" xmlns="http://www.w3.org/2000/svg" xmlns:xlink="http://www.w3.org/1999/xlink" x="0px" y="0px"
	 viewBox="0 0 56 56" style="enable-background:new 0 0 56 56;" xml:space="preserve">
<style type="text/css">
	.st0{fill:none;}
	.st1{fill:#FFFFFF;stroke:#0097D6;stroke-width:0.25;stroke-miterlimit:10;}
</style>
<title>AerospaceAsset 12</title>
<g id="Layer_2_1_">
	<g id="Layer_11">
		<rect class="st0" width="56" height="56"/>
		<path class="st1" d="M36.1,19.7c-1.4-1.4-3.6-1.4-5,0c-1.4,1.4-1.4,3.6,0,5c0.7,0.7,1.6,1,2.5,1c0.9,0,1.9-0.4,2.5-1
			C37.5,23.3,37.5,21.1,36.1,19.7C36.1,19.7,36.1,19.7,36.1,19.7z M34.9,23.5c-0.4,0.4-0.8,0.6-1.3,0.5c-0.5,0-1-0.2-1.3-0.5
			c-0.7-0.7-0.8-1.9,0-2.7c0.4-0.4,0.9-0.6,1.4-0.6c0.5,0,1,0.2,1.3,0.5C35.7,21.6,35.7,22.8,34.9,23.5
			C34.9,23.5,34.9,23.5,34.9,23.5z M49.3,6.5c-0.2-0.2-0.5-0.3-0.7-0.2c-3.1,0.6-6.2,1.5-9.1,2.9l0,0c-9.4,4.2-16.9,11.7-21,21.2
			L16,27.8c-0.2-0.2-0.4-0.3-0.6-0.3l0,0c-0.2,0-0.4,0.1-0.6,0.3l-6.8,7c-0.2,0.2-0.3,0.6-0.2,0.9C8,36,8.3,36.2,8.6,36.1l6-0.5
			l5.4,5.4L19.6,47c0,0.3,0.2,0.7,0.5,0.8c0.1,0.1,0.2,0.1,0.4,0.1c0.2,0,0.4-0.1,0.6-0.2l7-6.8c0.2-0.2,0.3-0.4,0.3-0.6
			c0-0.2-0.1-0.4-0.3-0.6l-2.5-2.5c9.4-4,17-11.5,21.2-20.9l0,0c1.4-2.9,2.4-5.9,3-9.1C49.7,6.9,49.6,6.7,49.3,6.5L49.3,6.5z
			 M44.5,16.9L39,11.3l0.7-0.4l5.2,5.2C44.8,16.3,44.7,16.6,44.5,16.9L44.5,16.9z M24.1,35.9l-4.3-4.3c0.1-0.2,0.2-0.5,0.3-0.7
			l4.7,4.7L24.1,35.9z M26.2,40.3L21.4,45l0.3-4.1c0-0.2-0.1-0.5-0.3-0.7l-6-6c-0.2-0.1-0.4-0.2-0.6-0.2h-0.1l-4.1,0.3l4.7-4.8
			l2.8,2.8l0,0l5.1,5.1l0,0L26.2,40.3z M26.4,34.9l-5.6-5.6c3.6-7.4,9.4-13.4,16.6-17.2l6.3,6.3C39.9,25.5,33.8,31.3,26.4,34.9z
			 M45.6,14.5l-4.3-4.3c2.1-0.9,4.2-1.6,6.4-2.1C47.2,10.3,46.5,12.4,45.6,14.5z M16,39.3c-3.2,0.6-6.2,1.6-9.1,2.9
			c-0.3,0.1-0.4,0.3-0.5,0.6c-0.1,0.3,0,0.5,0.2,0.7l6,6c0.2,0.2,0.4,0.2,0.6,0.3c0,0,0.1,0,0.1,0c0.3-0.1,0.5-0.2,0.6-0.5
			c1.3-2.9,2.3-5.9,2.9-9.1c0-0.3,0-0.5-0.2-0.7C16.5,39.3,16.3,39.2,16,39.3z M13,47.5l-4.3-4.3c2.1-0.9,4.2-1.6,6.4-2.1
			C14.5,43.3,13.9,45.4,13,47.5z"/>
	</g>
</g>
</svg>
