<svg xmlns="http://www.w3.org/2000/svg" viewBox="0 0 56 56"><defs><style>.cls-1{fill:none;}.cls-2{fill:#0097d6;stroke:#fff;stroke-miterlimit:10;stroke-width:0.25px;}</style></defs><title>AerospaceAsset 12</title><g id="Layer_2" data-name="Layer 2"><g id="Layer_11" data-name="Layer 11"><rect class="cls-1" width="56" height="56"/><path class="cls-2" d="M36.09,19.67a3.55,3.55,0,1,0-2.51,6.06,3.48,3.48,0,0,0,2.51-1.05A3.51,3.51,0,0,0,36.09,19.67Zm-1.18,3.85a1.83,1.83,0,0,1-1.34.55,1.93,1.93,0,0,1-1.35-.55,1.88,1.88,0,0,1,1.35-3.22,1.9,1.9,0,0,1,1.34.54A1.88,1.88,0,0,1,34.91,23.52Zm14.43-17a.87.87,0,0,0-.71-.23,36.87,36.87,0,0,0-9.06,2.9h0a40.88,40.88,0,0,0-21,21.16L16,27.76a.86.86,0,0,0-.58-.26h0a.84.84,0,0,0-.58.26L8,34.73a.85.85,0,0,0-.17.93.84.84,0,0,0,.82.48l6-.45L20,41.13,19.64,47a.82.82,0,0,0,.48.81.89.89,0,0,0,.35.08.87.87,0,0,0,.58-.23l7-6.79a.79.79,0,0,0,.25-.58.85.85,0,0,0-.25-.59l-2.54-2.54A40.62,40.62,0,0,0,46.68,16.27h0a38.56,38.56,0,0,0,3-9.07A1,1,0,0,0,49.34,6.47Zm-4.8,10.35L39,11.27l.73-.35,5.21,5.19C44.77,16.34,44.65,16.57,44.54,16.82ZM24.14,35.91,19.8,31.59c.1-.23.19-.47.29-.68l4.73,4.72Zm2.05,4.39L21.4,45l.28-4.11a.78.78,0,0,0-.25-.65l-6-6a.89.89,0,0,0-.58-.24H14.8l-4.14.31,4.72-4.78,2.84,2.83h0l5.12,5.1h0Zm.25-5.42-5.62-5.59A38.72,38.72,0,0,1,37.41,12.05l6.31,6.29A38.5,38.5,0,0,1,26.44,34.88ZM45.62,14.47,41.33,10.2a38.2,38.2,0,0,1,6.38-2.07A41,41,0,0,1,45.62,14.47ZM16,39.25a37.36,37.36,0,0,0-9.11,2.94.81.81,0,0,0-.48.61.8.8,0,0,0,.23.73l6,6a.85.85,0,0,0,.58.25.39.39,0,0,0,.15,0,.87.87,0,0,0,.62-.48,38.79,38.79,0,0,0,2.94-9.07.86.86,0,0,0-.23-.71A.89.89,0,0,0,16,39.25Zm-3,8.23L8.67,43.21a39.18,39.18,0,0,1,6.38-2.07A41.81,41.81,0,0,1,13,47.48Z"/></g></g></svg>