<?xml version="1.0" encoding="utf-8"?>
<!-- Generator: Adobe Illustrator 22.1.0, SVG Export Plug-In . SVG Version: 6.00 Build 0)  -->
<svg version="1.1" id="Layer_1" xmlns="http://www.w3.org/2000/svg" xmlns:xlink="http://www.w3.org/1999/xlink" x="0px" y="0px"
	 viewBox="0 0 56 56" style="enable-background:new 0 0 56 56;" xml:space="preserve">
<style type="text/css">
	.st0{fill:none;}
	.st1{fill:#FFFFFF;}
</style>
<title>AutomotiveAsset 13</title>
<g id="Layer_2_1_">
	<g id="Layer_12">
		<rect class="st0" width="56" height="56"/>
		<path class="st1" d="M40,16.1c0,1.4,1.2,2.6,2.6,2.6c1.4,0,2.6-1.2,2.6-2.6c0-1.4-1.2-2.6-2.6-2.6c0,0,0,0,0,0
			C41.2,13.5,40,14.7,40,16.1z M44.2,16.1c0,0.9-0.7,1.6-1.6,1.6c-0.9,0-1.6-0.7-1.6-1.6c0-0.9,0.7-1.6,1.6-1.6c0,0,0,0,0,0
			C43.5,14.5,44.2,15.2,44.2,16.1L44.2,16.1z"/>
		<path class="st1" d="M25.4,16.1c0,1.4,1.2,2.6,2.6,2.6c1.4,0,2.6-1.2,2.6-2.6c0-1.4-1.2-2.6-2.6-2.6c0,0,0,0,0,0
			C26.6,13.5,25.4,14.7,25.4,16.1z M29.6,16.1c0,0.9-0.7,1.6-1.6,1.6c-0.9,0-1.6-0.7-1.6-1.6c0-0.9,0.7-1.6,1.6-1.6c0,0,0,0,0,0
			C28.9,14.5,29.6,15.2,29.6,16.1z"/>
		<path class="st1" d="M10.8,16.1c0,1.4,1.2,2.6,2.6,2.6c1.4,0,2.6-1.2,2.6-2.6c0-1.4-1.2-2.6-2.6-2.6c0,0,0,0,0,0
			C12,13.5,10.8,14.7,10.8,16.1C10.8,16.1,10.8,16.1,10.8,16.1z M15,16.1c0,0.9-0.7,1.6-1.6,1.6c-0.9,0-1.6-0.7-1.6-1.6
			c0-0.9,0.7-1.6,1.6-1.6c0,0,0,0,0,0C14.3,14.5,15,15.2,15,16.1L15,16.1z"/>
		<path class="st1" d="M46,42.8v-2.7c-0.1-1.9-1.7-3.3-3.6-3.2c-1.7,0.1-3.1,1.5-3.2,3.2v2.6h-7.9v-2.6c0-1.9-1.5-3.4-3.4-3.4
			c-1.9,0-3.4,1.5-3.4,3.4c0,0,0,0,0,0v2.6h-7.8v-2.6c-0.1-1.9-1.7-3.3-3.6-3.2c-1.7,0.1-3.1,1.5-3.2,3.2v2.7
			c-1.1,0.2-1.9,1.2-1.9,2.3v0.4c0,1.3,1,2.3,2.3,2.3l0,0h35.1c1.3,0,2.3-1,2.3-2.3l0,0v-0.4C47.9,44,47.1,43,46,42.8z M40.2,40.1
			c0-1.3,1.1-2.4,2.4-2.4s2.4,1.1,2.4,2.4c0,0,0,0,0,0v2.6h-4.8V40.1z M25.6,40.1c0-1.3,1.1-2.4,2.4-2.4c1.3,0,2.4,1.1,2.4,2.4
			c0,0,0,0,0,0v2.6h-4.8V40.1z M13.4,37.7c1.3,0,2.4,1.1,2.4,2.4v2.6H11v-2.6C11,38.8,12.1,37.7,13.4,37.7
			C13.4,37.7,13.4,37.7,13.4,37.7z M46.9,45.5c0,0.7-0.6,1.3-1.3,1.3H10.5c-0.7,0-1.3-0.6-1.4-1.3v-0.4c0-0.7,0.6-1.3,1.4-1.3h35.1
			c0.7,0,1.3,0.6,1.3,1.3C46.9,45.1,46.9,45.5,46.9,45.5z"/>
		<path class="st1" d="M47.4,9.1c0.3,0,0.5-0.2,0.5-0.5s-0.2-0.5-0.5-0.5H8.6c-0.3,0-0.5,0.2-0.5,0.5s0.2,0.5,0.5,0.5h4.3v1.8
			c-2.9,0.3-5.1,2.8-4.8,5.7c0.2,1.8,1.3,3.5,2.9,4.3v4.4c0,0.8,0.7,1.5,1.5,1.5h0.3V28c-0.9,0.1-1.8,0.5-2.5,1.2
			c-1.7,1.6-1.7,4.3,0,6c0,0,0,0,0,0c0.2,0.2,0.5,0.2,0.7,0c0.2-0.2,0.2-0.5,0-0.7c0,0,0,0,0,0c-1.3-1.3-1.3-3.3,0-4.6
			s3.3-1.3,4.6,0c1.3,1.3,1.3,3.3,0,4.6c0,0,0,0,0,0c-0.2,0.2-0.2,0.5,0,0.7c0.1,0.1,0.2,0.1,0.3,0.1c0.1,0,0.3-0.1,0.4-0.2
			c1.7-1.6,1.7-4.3,0.1-5.9c0,0,0-0.1-0.1-0.1c-0.7-0.7-1.5-1.1-2.5-1.2v-1.1h0.3c0.8,0,1.5-0.7,1.5-1.5v-4.4
			c2.6-1.3,3.7-4.4,2.4-7.1c-0.8-1.7-2.4-2.8-4.3-2.9V9.1h13.6v1.8c-2.9,0.3-5,2.8-4.8,5.7c0.2,1.8,1.3,3.5,2.9,4.3v4.4
			c0,0.8,0.7,1.5,1.5,1.5h0.3V28c-2.3,0.2-4,2.3-3.7,4.6c0.1,1,0.5,1.9,1.2,2.6c0.2,0.2,0.5,0.2,0.7,0c0,0,0,0,0,0
			c0.2-0.2,0.2-0.5,0-0.7c-1.3-1.3-1.2-3.3,0-4.5s3.3-1.2,4.5,0c1.2,1.3,1.2,3.3,0,4.5c-0.2,0.2-0.2,0.5,0,0.7c0,0,0,0,0,0
			c0.1,0.1,0.2,0.2,0.4,0.2c0.1,0,0.3-0.1,0.4-0.2c1.7-1.6,1.7-4.3,0.1-5.9c-0.7-0.7-1.6-1.1-2.5-1.2v-1.1h0.3
			c0.8,0,1.5-0.7,1.5-1.5v-4.4c2.6-1.3,3.7-4.4,2.4-7.1c-0.8-1.7-2.4-2.8-4.3-2.9V9.1h13.6v1.8c-2.9,0.3-5.1,2.8-4.8,5.7
			c0.2,1.8,1.3,3.5,2.9,4.3v4.4c0,0.8,0.7,1.5,1.5,1.5h0.3V28c-0.9,0.1-1.8,0.5-2.5,1.2c-1.7,1.6-1.7,4.3-0.1,5.9c0,0,0,0.1,0.1,0.1
			c0.2,0.2,0.5,0.2,0.7,0c0,0,0,0,0,0c0.2-0.2,0.2-0.5,0-0.7c-1.3-1.3-1.2-3.3,0-4.5c1.3-1.3,3.3-1.2,4.5,0c1.2,1.3,1.2,3.3,0,4.5
			c-0.2,0.2-0.3,0.5-0.1,0.7s0.5,0.3,0.7,0.1c0,0,0.1-0.1,0.1-0.1c1.7-1.6,1.7-4.3,0-6c0,0,0,0,0,0c-0.7-0.7-1.5-1.1-2.5-1.2v-1.1
			h0.3c0.8,0,1.5-0.7,1.5-1.5v-4.4c2.6-1.3,3.7-4.4,2.4-7.1c-0.8-1.7-2.4-2.8-4.3-2.9V9.1H47.4z M14.8,25.4c0,0.3-0.2,0.5-0.5,0.5
			l0,0h-1.7c-0.3,0-0.5-0.2-0.5-0.5l0,0v-4.1c0.4,0.1,0.9,0.2,1.4,0.2c0.5,0,0.9-0.1,1.4-0.2V25.4z M17.7,16.2
			c0,2.4-1.9,4.3-4.3,4.3c-2.4,0-4.3-1.9-4.3-4.3c0-2.4,1.9-4.3,4.3-4.3c0,0,0,0,0,0C15.8,11.9,17.7,13.8,17.7,16.2z M29.4,25.4
			c0,0.3-0.2,0.5-0.5,0.5c0,0,0,0,0,0h-1.7c-0.3,0-0.5-0.2-0.5-0.5c0,0,0,0,0,0v-4.1c0.4,0.1,0.9,0.2,1.4,0.2c0.5,0,0.9-0.1,1.4-0.2
			L29.4,25.4z M32.3,16.2c0,2.4-1.9,4.3-4.3,4.3s-4.3-1.9-4.3-4.3c0-2.4,1.9-4.3,4.3-4.3c0,0,0,0,0,0C30.4,11.9,32.3,13.8,32.3,16.2
			z M43.9,25.4c0,0.3-0.2,0.5-0.5,0.5c0,0,0,0,0,0h-1.7c-0.3,0-0.5-0.2-0.5-0.5v-4.1c0.4,0.1,0.9,0.2,1.4,0.2c0.5,0,0.9-0.1,1.4-0.2
			L43.9,25.4z M46.9,16.2c0,2.4-1.9,4.3-4.3,4.3c-2.4,0-4.3-1.9-4.3-4.3c0-2.4,1.9-4.3,4.3-4.3c0,0,0,0,0,0
			C44.9,11.9,46.9,13.8,46.9,16.2z"/>
	</g>
</g>
</svg>
