<svg xmlns="http://www.w3.org/2000/svg" viewBox="0 0 56 56"><defs><style>.cls-1{fill:none;}.cls-2{fill:#0097d6;}</style></defs><title>AutomotiveAsset 13</title><g id="Layer_2" data-name="Layer 2"><g id="Layer_12" data-name="Layer 12"><rect class="cls-1" width="56" height="56"/><path class="cls-2" d="M40,16.12a2.6,2.6,0,1,0,2.6-2.59A2.6,2.6,0,0,0,40,16.12Zm4.21,0a1.61,1.61,0,1,1-1.61-1.6A1.61,1.61,0,0,1,44.19,16.12Z"/><path class="cls-2" d="M25.4,16.12A2.6,2.6,0,1,0,28,13.53,2.6,2.6,0,0,0,25.4,16.12Zm4.21,0A1.61,1.61,0,1,1,28,14.52,1.61,1.61,0,0,1,29.61,16.12Z"/><path class="cls-2" d="M10.82,16.12a2.6,2.6,0,1,0,2.6-2.59A2.59,2.59,0,0,0,10.82,16.12Zm4.2,0a1.61,1.61,0,1,1-1.6-1.6A1.61,1.61,0,0,1,15,16.12Z"/><path class="cls-2" d="M46,42.77V40.1a3.38,3.38,0,0,0-6.75,0v2.62H31.37V40.1a3.37,3.37,0,1,0-6.74,0v2.62H16.79V40.1a3.38,3.38,0,0,0-6.75,0v2.67a2.33,2.33,0,0,0-1.91,2.3v.44a2.34,2.34,0,0,0,2.34,2.34H45.53a2.34,2.34,0,0,0,2.34-2.34v-.44A2.33,2.33,0,0,0,46,42.77ZM40.2,40.1a2.38,2.38,0,1,1,4.76,0v2.62H40.2Zm-14.58,0a2.38,2.38,0,1,1,4.76,0v2.62H25.62Zm-12.2-2.38A2.39,2.39,0,0,1,15.8,40.1v2.62H11V40.1A2.38,2.38,0,0,1,13.42,37.72Zm33.46,7.79a1.36,1.36,0,0,1-1.35,1.35H10.47a1.36,1.36,0,0,1-1.35-1.35v-.44a1.35,1.35,0,0,1,1.35-1.35H45.53a1.35,1.35,0,0,1,1.35,1.35v.44Z"/><path class="cls-2" d="M47.38,9.14a.5.5,0,1,0,0-1H8.62a.5.5,0,0,0,0,1h4.3v1.8a5.28,5.28,0,0,0-1.86,10v4.45a1.54,1.54,0,0,0,1.53,1.53h.33V28a4.14,4.14,0,0,0-2.48,1.19,4.21,4.21,0,0,0,0,6,.5.5,0,0,0,.7,0,.48.48,0,0,0,0-.7,3.22,3.22,0,1,1,4.55,0,.5.5,0,0,0,.35.85.47.47,0,0,0,.35-.15,4.19,4.19,0,0,0,0-6A4.14,4.14,0,0,0,13.91,28V26.91h.34a1.53,1.53,0,0,0,1.52-1.53V20.93a5.28,5.28,0,0,0-1.86-10V9.14H27.5v1.8a5.28,5.28,0,0,0-1.85,10v4.45a1.53,1.53,0,0,0,1.52,1.53h.33V28A4.19,4.19,0,0,0,25,35.17a.5.5,0,0,0,.71,0,.5.5,0,0,0,0-.7,3.21,3.21,0,1,1,4.55,0,.48.48,0,0,0,0,.7.47.47,0,0,0,.35.15.5.5,0,0,0,.35-.15A4.19,4.19,0,0,0,28.5,28V26.91h.33a1.53,1.53,0,0,0,1.52-1.53V20.93a5.28,5.28,0,0,0-1.85-10V9.14H42.09v1.8a5.28,5.28,0,0,0-1.86,10v4.45a1.53,1.53,0,0,0,1.52,1.53h.34V28a4.14,4.14,0,0,0-2.48,1.19,4.19,4.19,0,0,0,0,6,.48.48,0,0,0,.7,0,.5.5,0,0,0,0-.7,3.21,3.21,0,1,1,4.55,0,.5.5,0,1,0,.7.7,4.21,4.21,0,0,0,0-6A4.14,4.14,0,0,0,43.08,28V26.91h.33a1.54,1.54,0,0,0,1.53-1.53V20.93a5.28,5.28,0,0,0-1.86-10V9.14ZM14.78,25.38a.53.53,0,0,1-.53.53H12.59a.53.53,0,0,1-.53-.53V21.31a5.51,5.51,0,0,0,1.36.18,5.57,5.57,0,0,0,1.36-.18Zm2.93-9.18a4.3,4.3,0,1,1-4.29-4.29A4.3,4.3,0,0,1,17.71,16.2Zm11.65,9.18a.53.53,0,0,1-.53.53H27.17a.53.53,0,0,1-.53-.53V21.31a5.57,5.57,0,0,0,1.36.18,5.51,5.51,0,0,0,1.36-.18ZM32.3,16.2A4.3,4.3,0,1,1,28,11.91,4.31,4.31,0,0,1,32.3,16.2Zm11.64,9.18a.52.52,0,0,1-.53.53H41.75a.53.53,0,0,1-.53-.53V21.31a5.57,5.57,0,0,0,1.36.18,5.51,5.51,0,0,0,1.36-.18Zm2.94-9.18a4.3,4.3,0,1,1-4.3-4.29A4.31,4.31,0,0,1,46.88,16.2Z"/></g></g></svg>