<?xml version="1.0" encoding="utf-8"?>
<!-- Generator: Adobe Illustrator 22.1.0, SVG Export Plug-In . SVG Version: 6.00 Build 0)  -->
<svg version="1.1" id="Layer_1" xmlns="http://www.w3.org/2000/svg" xmlns:xlink="http://www.w3.org/1999/xlink" x="0px" y="0px"
	 viewBox="0 0 56 56" style="enable-background:new 0 0 56 56;" xml:space="preserve">
<style type="text/css">
	.st0{fill:none;}
	.st1{fill:#FFFFFF;stroke:#0097D6;stroke-width:0.25;stroke-miterlimit:10;}
</style>
<title>ComputersAsset 14</title>
<g id="Layer_2_1_">
	<g id="Layer_13">
		<rect class="st0" width="56" height="56"/>
		<path class="st1" d="M45.6,41.4H10.4c-2.2,0-4-1.8-4-4V12c0-2.2,1.8-4,4-4h35.2c2.2,0,4,1.8,4,4v25.3
			C49.6,39.5,47.8,41.3,45.6,41.4C45.6,41.4,45.6,41.4,45.6,41.4z M10.4,9.8c-1.2,0-2.2,1-2.2,2.2c0,0,0,0,0,0v25.3
			c0,1.2,1,2.2,2.2,2.2c0,0,0,0,0,0h35.2c1.2,0,2.2-1,2.2-2.2c0,0,0,0,0,0V12c0-1.2-1-2.2-2.2-2.2L10.4,9.8z"/>
		<path class="st1" d="M35.5,48H20.5c-0.3,0-0.6-0.1-0.8-0.4c-0.2-0.3-0.2-0.6-0.1-0.9l2.9-6.7c0.2-0.5,0.7-0.7,1.2-0.5
			c0.5,0.2,0.7,0.7,0.5,1.2c0,0,0,0,0,0l-2.4,5.4h12.3l-2.4-5.4c-0.2-0.4,0-1,0.5-1.2c0,0,0,0,0,0c0.5-0.2,1,0,1.2,0.5l2.9,6.7
			c0.1,0.3,0.1,0.6-0.1,0.9C36.1,47.9,35.8,48,35.5,48z"/>
		<path class="st1" d="M48.7,35.1H7.3c-0.5,0-0.9-0.4-0.9-0.9c0-0.5,0.4-0.9,0.9-0.9h41.4c0.5,0,0.9,0.4,0.9,0.9
			C49.6,34.7,49.2,35.1,48.7,35.1C48.7,35.1,48.7,35.1,48.7,35.1z"/>
		<path class="st1" d="M14.4,30.4c-0.5,0-0.9-0.4-0.9-0.9c0-0.2,0.1-0.5,0.3-0.6l9.6-9.6c0.4-0.3,0.9-0.3,1.3,0l5.5,5.5L40.9,14
			c0.4-0.3,0.9-0.3,1.3,0.1c0.3,0.3,0.3,0.8,0,1.2L30.8,26.7c-0.4,0.3-0.9,0.3-1.3,0L24,21.2l-9,9C14.9,30.4,14.7,30.4,14.4,30.4z"
			/>
		<path class="st1" d="M28,38.1c-0.1,0-0.2,0-0.3-0.1c-0.1,0-0.2-0.1-0.3-0.2c-0.2-0.2-0.3-0.4-0.3-0.6c0-0.2,0.1-0.5,0.3-0.6
			c0.1-0.1,0.2-0.2,0.3-0.2c0.2-0.1,0.5-0.1,0.7,0c0.1,0,0.2,0.1,0.3,0.2c0.2,0.2,0.3,0.4,0.3,0.6c0,0.4-0.2,0.7-0.6,0.8
			C28.2,38.1,28.1,38.1,28,38.1z"/>
	</g>
</g>
</svg>
