<svg xmlns="http://www.w3.org/2000/svg" viewBox="0 0 56 56"><defs><style>.cls-1{fill:none;}.cls-2{fill:#0097d6;stroke:#fff;stroke-miterlimit:10;stroke-width:0.25px;}</style></defs><title>ComputersAsset 14</title><g id="Layer_2" data-name="Layer 2"><g id="Layer_13" data-name="Layer 13"><rect class="cls-1" width="56" height="56"/><path class="cls-2" d="M45.59,41.36H10.41a4,4,0,0,1-4-4V12a4,4,0,0,1,4-4H45.59a4,4,0,0,1,4,4V37.34A4,4,0,0,1,45.59,41.36ZM10.41,9.76A2.23,2.23,0,0,0,8.18,12V37.34a2.22,2.22,0,0,0,2.23,2.22H45.59a2.22,2.22,0,0,0,2.23-2.22V12a2.23,2.23,0,0,0-2.23-2.22Z"/><path class="cls-2" d="M35.53,48H20.47a.89.89,0,0,1-.75-.4.91.91,0,0,1-.08-.86l2.91-6.68a.91.91,0,0,1,1.19-.46.89.89,0,0,1,.47,1.18l-2.37,5.42H34.16l-2.37-5.42a.89.89,0,0,1,.47-1.18.91.91,0,0,1,1.19.46l2.91,6.68a.91.91,0,0,1-.08.86A.89.89,0,0,1,35.53,48Z"/><path class="cls-2" d="M48.72,35.12H7.28a.9.9,0,0,1,0-1.8H48.72a.9.9,0,1,1,0,1.8Z"/><path class="cls-2" d="M14.44,30.44a.9.9,0,0,1-.64-1.53l9.61-9.6a.9.9,0,0,1,1.27,0l5.47,5.46L40.93,14a.9.9,0,0,1,1.27,1.27L30.78,26.68a.9.9,0,0,1-1.27,0l-5.46-5.46-9,9A.89.89,0,0,1,14.44,30.44Z"/><path class="cls-2" d="M28,38.13a.8.8,0,0,1-.34-.07.85.85,0,0,1-.3-.19.94.94,0,0,1-.26-.64.9.9,0,0,1,.26-.63.75.75,0,0,1,.3-.2.89.89,0,0,1,.68,0,.83.83,0,0,1,.3.2.9.9,0,0,1,.26.63.86.86,0,0,1-.56.83A.8.8,0,0,1,28,38.13Z"/></g></g></svg>