<svg xmlns="http://www.w3.org/2000/svg" viewBox="0 0 56 56"><defs><style>.cls-1{fill:none;}.cls-2{fill:#0097d6;}</style></defs><title>ConsumerAsset 15</title><g id="Layer_2" data-name="Layer 2"><g id="Layer_14" data-name="Layer 14"><rect class="cls-1" width="56" height="56"/><path class="cls-2" d="M38.32,15.82A4.87,4.87,0,1,0,33.44,11,4.88,4.88,0,0,0,38.32,15.82Zm0-8.77a3.9,3.9,0,1,1-3.9,3.9A3.9,3.9,0,0,1,38.32,7.05Z"/><path class="cls-2" d="M49.83,46.18,44.76,34c2.15-1.17,1.46-3.64,1.08-5a5,5,0,0,1-.22-1V21.67a5.36,5.36,0,0,0-5.36-5.36h-.8a2.92,2.92,0,0,0-2.25,1.05l-7.8,9.36a2.38,2.38,0,0,0,0,3.08L23.93,42.13H9.58a.48.48,0,0,0-.49.48.49.49,0,0,0,.49.49h15l5.69-12.7a2.31,2.31,0,0,0,1.22.21,2.34,2.34,0,0,0,1.43-.67h1.52a.49.49,0,0,0,0-1h-.69l4.21-5.09.85,8.9-6.3,12.88A2.77,2.77,0,0,0,33,49.48a2.42,2.42,0,0,0,1.4.44,2.38,2.38,0,0,0,.46,0,3,3,0,0,0,1.9-1.26l4.7-8.89,3.46,8.21a3,3,0,0,0,1.49,1.72,2.49,2.49,0,0,0,1.09.26,2.45,2.45,0,0,0,.8-.14A2.8,2.8,0,0,0,49.83,46.18ZM36,48.09a2,2,0,0,1-1.25.83,1.49,1.49,0,0,1-1.12-.23,1.81,1.81,0,0,1-.27-2.51L39.79,33l-1-10.14L41.13,20l-.75-.62-8.05,9.73a1.43,1.43,0,0,1-2,.19,1.41,1.41,0,0,1-.18-2L38,18a2,2,0,0,1,1.5-.7h.8a4.4,4.4,0,0,1,4.39,4.39V28a5.22,5.22,0,0,0,.25,1.23c.51,1.83.79,3.41-1,4.07l-.17.07Zm12,.77a1.47,1.47,0,0,1-1.14-.07,2.05,2.05,0,0,1-1-1.2l-3.78-9,2-3.78,4.86,11.69A1.82,1.82,0,0,1,48,48.86Z"/><path class="cls-2" d="M22.24,44.07A2.93,2.93,0,1,0,25.16,47,2.93,2.93,0,0,0,22.24,44.07Zm0,4.88a2,2,0,1,1,2-2A2,2,0,0,1,22.24,49Z"/><path class="cls-2" d="M11.53,44.07A2.93,2.93,0,1,0,14.45,47,2.93,2.93,0,0,0,11.53,44.07Zm0,4.88a2,2,0,1,1,1.94-2A2,2,0,0,1,11.53,49Z"/><path class="cls-2" d="M23,40.66,27.87,30H6L9.21,40.66Zm3.32-9.74-3.95,8.77H9.94L7.31,30.92Z"/></g></g></svg>