<?xml version="1.0" encoding="utf-8"?>
<!-- Generator: Adobe Illustrator 22.1.0, SVG Export Plug-In . SVG Version: 6.00 Build 0)  -->
<svg version="1.1" id="Layer_1" xmlns="http://www.w3.org/2000/svg" xmlns:xlink="http://www.w3.org/1999/xlink" x="0px" y="0px"
	 viewBox="0 0 56 56" style="enable-background:new 0 0 56 56;" xml:space="preserve">
<style type="text/css">
	.st0{fill:none;}
	.st1{fill:#FFFFFF;}
</style>
<title>ConsumerAsset 15</title>
<g id="Layer_2_1_">
	<g id="Layer_14">
		<rect class="st0" width="56" height="56"/>
		<path class="st1" d="M38.3,15.8c2.7,0,4.9-2.2,4.9-4.9S41,6.1,38.3,6.1c-2.7,0-4.9,2.2-4.9,4.9c0,0,0,0,0,0
			C33.5,13.7,35.6,15.8,38.3,15.8z M38.3,7c2.2,0,3.9,1.7,3.9,3.9s-1.7,3.9-3.9,3.9c-2.2,0-3.9-1.7-3.9-3.9S36.2,7,38.3,7z"/>
		<path class="st1" d="M49.8,46.2L44.8,34c2.2-1.2,1.5-3.6,1.1-5c-0.1-0.3-0.2-0.7-0.2-1v-6.3c0-3-2.4-5.4-5.4-5.4l0,0h-0.8
			c-0.9,0-1.7,0.4-2.3,1l-7.8,9.4c-0.8,0.9-0.8,2.2,0,3.1l-5.5,12.3H9.6c-0.3,0-0.5,0.2-0.5,0.5c0,0,0,0,0,0c0,0.3,0.2,0.5,0.5,0.5
			h0h15l5.7-12.7c0.4,0.2,0.8,0.3,1.2,0.2c0.5-0.1,1-0.3,1.4-0.7h1.5c0.3,0,0.5-0.2,0.5-0.5s-0.2-0.5-0.5-0.5h-0.7l4.2-5.1l0.8,8.9
			l-6.3,12.9c-0.9,1.2-0.7,2.9,0.5,3.8c0.4,0.3,0.9,0.4,1.4,0.4c0.2,0,0.3,0,0.5,0c0.8-0.2,1.5-0.6,1.9-1.3l4.7-8.9l3.5,8.2
			c0.3,0.7,0.8,1.4,1.5,1.7c0.3,0.2,0.7,0.3,1.1,0.3c0.3,0,0.5,0,0.8-0.1C49.7,49.2,50.4,47.6,49.8,46.2z M36,48.1
			c-0.3,0.4-0.7,0.7-1.3,0.8c-0.4,0.1-0.8,0-1.1-0.2c-0.8-0.6-0.9-1.7-0.3-2.5L39.8,33l-1-10.1l2.3-2.9l-0.8-0.6l-8,9.7
			c-0.5,0.6-1.4,0.7-2,0.2c-0.6-0.5-0.7-1.4-0.2-2c0,0,0,0,0,0L38,18c0.4-0.4,0.9-0.7,1.5-0.7h0.8c2.4,0,4.4,2,4.4,4.4V28
			c0,0.4,0.1,0.8,0.3,1.2c0.5,1.8,0.8,3.4-1,4.1l-0.2,0.1L36,48.1z M48,48.9c-0.4,0.1-0.8,0.1-1.1-0.1c-0.5-0.3-0.8-0.7-1-1.2
			l-3.8-9l2-3.8l4.9,11.7C49.3,47.4,48.9,48.5,48,48.9z"/>
		<path class="st1" d="M22.2,44.1c-1.6,0-2.9,1.3-2.9,2.9c0,1.6,1.3,2.9,2.9,2.9s2.9-1.3,2.9-2.9c0,0,0,0,0,0
			C25.2,45.4,23.9,44.1,22.2,44.1z M22.2,49c-1.1,0-2-0.9-2-2s0.9-2,2-2s2,0.9,2,2C24.3,48.1,23.4,49,22.2,49
			C22.3,49,22.3,49,22.2,49L22.2,49z"/>
		<path class="st1" d="M11.5,44.1c-1.6,0-2.9,1.3-2.9,2.9s1.3,2.9,2.9,2.9s2.9-1.3,2.9-2.9c0,0,0,0,0,0
			C14.5,45.4,13.1,44.1,11.5,44.1z M11.5,49c-1.1,0-2-0.8-2.1-1.9s0.8-2,1.9-2.1s2,0.8,2.1,1.9c0,0,0,0,0,0.1
			C13.5,48.1,12.6,49,11.5,49L11.5,49z"/>
		<path class="st1" d="M23,40.7L27.9,30H6l3.2,10.7H23z M26.3,30.9l-4,8.8H9.9l-2.6-8.8H26.3z"/>
	</g>
</g>
</svg>
