<?xml version="1.0" encoding="utf-8"?>
<!-- Generator: Adobe Illustrator 22.1.0, SVG Export Plug-In . SVG Version: 6.00 Build 0)  -->
<svg version="1.1" id="Layer_1" xmlns="http://www.w3.org/2000/svg" xmlns:xlink="http://www.w3.org/1999/xlink" x="0px" y="0px"
	 viewBox="0 0 56 56" style="enable-background:new 0 0 56 56;" xml:space="preserve">
<style type="text/css">
	.st0{fill:none;}
	.st1{fill:#FFFFFF;}
</style>
<title>Food &amp;amp; beveragesAsset 16</title>
<g id="Layer_2_1_">
	<g id="Layer_15">
		<rect class="st0" width="56" height="56"/>
		<path class="st1" d="M31.5,35.7C31.4,30,26.7,25.5,21,25.6h-2.8c-5.7,0-10.3,4.5-10.5,10.1c-0.9,0.5-1.4,1.4-1.4,2.5
			c0,1.3,0.9,2.4,2.1,2.7v2c0,1.9,1.5,3.5,3.4,3.5c0,0,0,0,0.1,0h15.5c1.9,0,3.5-1.5,3.5-3.4c0,0,0,0,0-0.1v-2
			c1.3-0.3,2.2-1.4,2.2-2.7C33,37.2,32.5,36.2,31.5,35.7z M18.2,26.9H21c4.8,0,8.7,3.7,9.1,8.4H9.1C9.5,30.6,13.4,26.9,18.2,26.9z
			 M29.4,42.9c0,1.1-0.8,2.1-2,2.1c0,0-0.1,0-0.1,0H11.9c-1.1,0-2.1-0.9-2.1-2c0,0,0,0,0-0.1V41h19.7V42.9z M30.1,39.5H9.1
			c-0.8,0-1.4-0.6-1.4-1.4c0-0.8,0.6-1.4,1.4-1.4h21.1c0.8,0,1.4,0.6,1.4,1.4S30.9,39.5,30.1,39.5C30.1,39.5,30.1,39.5,30.1,39.5z"
			/>
		<polygon class="st1" points="12.1,32.7 13.5,31.3 14.4,32.3 13.1,33.7 		"/>
		<polygon class="st1" points="15.6,29.9 17,28.5 18,29.5 16.6,30.9 		"/>
		<polygon class="st1" points="18.4,32.7 19.8,31.3 20.8,32.3 19.4,33.7 		"/>
		<polygon class="st1" points="24.7,32.7 26.1,31.3 27.1,32.3 25.7,33.7 		"/>
		<polygon class="st1" points="21.9,29.9 23.3,28.5 24.3,29.5 22.9,30.9 		"/>
		<path class="st1" d="M47.7,21.3h-5.6v-5.2l-5.8-6.5l-1,0.9l5.4,6.1v4.6h-6.4c-1.1,0-2.1,0.9-2.1,2c0,0,0,0.1,0,0.1
			c0,0.9,0.6,1.7,1.5,2l2.1,21.1h10.4l2.1-21.1c0.9-0.3,1.5-1.1,1.5-2C49.8,22.2,48.9,21.3,47.7,21.3C47.8,21.3,47.7,21.3,47.7,21.3
			z M45,45.1h-7.9l-2-19.6h11.8L45,45.1z M47.7,24.1H34.4c-0.4,0-0.7-0.3-0.7-0.7s0.3-0.7,0.7-0.7c0,0,0,0,0,0h13.3
			c0.4,0,0.7,0.3,0.7,0.7S48.1,24.1,47.7,24.1C47.7,24.1,47.7,24.1,47.7,24.1L47.7,24.1z"/>
	</g>
</g>
</svg>
