<svg xmlns="http://www.w3.org/2000/svg" viewBox="0 0 56 56"><defs><style>.cls-1{fill:none;}.cls-2{fill:#0097d6;}</style></defs><title>Food &amp;amp; beveragesAsset 16</title><g id="Layer_2" data-name="Layer 2"><g id="Layer_15" data-name="Layer 15"><rect class="cls-1" width="56" height="56"/><path class="cls-2" d="M31.55,35.73A10.48,10.48,0,0,0,21,25.59H18.2A10.57,10.57,0,0,0,7.66,35.73a2.81,2.81,0,0,0-1.41,2.45,2.85,2.85,0,0,0,2.11,2.73v2a3.47,3.47,0,0,0,3.51,3.5H27.33a3.47,3.47,0,0,0,3.51-3.5v-2A2.79,2.79,0,0,0,33,38.18,2.74,2.74,0,0,0,31.55,35.73ZM18.2,26.92H21a9.22,9.22,0,0,1,9.13,8.39H9.06A9.22,9.22,0,0,1,18.2,26.92ZM29.44,42.86A2.06,2.06,0,0,1,27.33,45H11.87a2.07,2.07,0,0,1-2.11-2.1V41H29.44Zm.7-3.35H9.06a1.4,1.4,0,0,1,0-2.8H30.14a1.4,1.4,0,1,1,0,2.8Z"/><polygon class="cls-2" points="12.07 32.72 13.46 31.34 14.45 32.32 13.06 33.71 12.07 32.72"/><polygon class="cls-2" points="15.58 29.92 16.97 28.54 17.97 29.53 16.57 30.91 15.58 29.92"/><polygon class="cls-2" points="18.39 32.72 19.78 31.34 20.78 32.32 19.39 33.71 18.39 32.72"/><polygon class="cls-2" points="24.72 32.72 26.11 31.34 27.1 32.32 25.71 33.71 24.72 32.72"/><polygon class="cls-2" points="21.91 29.92 23.3 28.54 24.29 29.53 22.9 30.91 21.91 29.92"/><path class="cls-2" d="M47.71,21.33H42.09V16.15l-5.84-6.5-1,.91,5.41,6.08v4.62H34.29a2.06,2.06,0,0,0-2.11,2.09,2.1,2.1,0,0,0,1.47,2l2.11,21.12h10.4l2.11-21.12a2.11,2.11,0,0,0,1.48-2A2,2,0,0,0,47.71,21.33ZM45,45.1H37.1l-2-19.58H46.94Zm2.74-21H34.36a.7.7,0,1,1,0-1.4H47.71a.7.7,0,1,1,0,1.4Z"/></g></g></svg>