<svg xmlns="http://www.w3.org/2000/svg" viewBox="0 0 56 56"><defs><style>.cls-1{fill:none;}.cls-2{fill:#0097d6;stroke:#fff;stroke-miterlimit:10;stroke-width:0.63px;}</style></defs><title>FurnitureAsset 17</title><g id="Layer_2" data-name="Layer 2"><g id="Layer_16" data-name="Layer 16"><rect class="cls-1" width="56" height="56"/><path class="cls-2" d="M51.57,25.17a4,4,0,0,0-4-4H44.94V16.65a4,4,0,0,0-4-4H15.06a4,4,0,0,0-4.05,4v4.49H8.43a4,4,0,0,0-4,4v8.38a4,4,0,0,0,3.84,4v4.79a1,1,0,0,0,2,0V37.59h35.5v4.79a1,1,0,0,0,2,0V37.59a4,4,0,0,0,3.84-4Zm-8.66-8.52V28.86h-14V14.63h12A2,2,0,0,1,42.91,16.65ZM13,16.65a2,2,0,0,1,2-2H26.91V28.86H13Zm36.52,16.9a2,2,0,0,1-2,2H8.43a2,2,0,0,1-2-2V25.17a2,2,0,0,1,2-2H11v6.71a1,1,0,0,0,1,1H43.93a1,1,0,0,0,1-1V23.16h2.58a2,2,0,0,1,2,2Z"/></g></g></svg>