<?xml version="1.0" encoding="utf-8"?>
<!-- Generator: Adobe Illustrator 22.1.0, SVG Export Plug-In . SVG Version: 6.00 Build 0)  -->
<svg version="1.1" id="Layer_1" xmlns="http://www.w3.org/2000/svg" xmlns:xlink="http://www.w3.org/1999/xlink" x="0px" y="0px"
	 viewBox="0 0 56 56" style="enable-background:new 0 0 56 56;" xml:space="preserve">
<style type="text/css">
	.st0{fill:none;}
	.st1{fill:#FFFFFF;stroke:#0097D6;stroke-width:0.63;stroke-miterlimit:10;}
</style>
<title>FurnitureAsset 17</title>
<g id="Layer_2_1_">
	<g id="Layer_16">
		<rect class="st0" width="56" height="56"/>
		<path class="st1" d="M51.6,25.2c0-2.2-1.8-4-4-4h-2.6v-4.5c0-2.2-1.8-4-4-4H15.1c-2.2,0-4,1.7-4,3.9c0,0,0,0,0,0.1v4.5H8.4
			c-2.2,0-4,1.8-4,4v8.4c0,2.1,1.7,3.9,3.8,4v4.8c0,0.6,0.4,1,1,1s1-0.4,1-1v-4.7h35.5v4.8c0,0.6,0.4,1,1,1s1-0.4,1-1v-4.8
			c2.1-0.1,3.8-1.9,3.8-4L51.6,25.2z M42.9,16.6v12.2h-14V14.6h12C42,14.6,42.9,15.5,42.9,16.6C42.9,16.6,42.9,16.6,42.9,16.6z
			 M13,16.6c0-1.1,0.9-2,2-2h11.9v14.2H13V16.6z M49.5,33.5c0,1.1-0.9,2-2,2H8.4c-1.1,0-2-0.9-2-2v-8.4c0-1.1,0.9-2,2-2H11v6.7
			c0,0.6,0.4,1,1,1h31.9c0.6,0,1-0.4,1-1v-6.7h2.6c1.1,0,2,0.9,2,2L49.5,33.5z"/>
	</g>
</g>
</svg>
