<svg xmlns="http://www.w3.org/2000/svg" viewBox="0 0 56 56"><defs><style>.cls-1{fill:none;}.cls-2{fill:#0097d6;stroke:#fff;stroke-miterlimit:10;}</style></defs><title>HealthAsset 18</title><g id="Layer_2" data-name="Layer 2"><g id="Layer_17" data-name="Layer 17"><rect class="cls-1" width="56" height="56"/><path class="cls-2" d="M21,6.93a3.79,3.79,0,0,0-3.79,3.75v6.6H10.53a3.8,3.8,0,0,0-3.78,3.77V35a3.79,3.79,0,0,0,3.78,3.76h6.66v6.6A3.79,3.79,0,0,0,21,49.07H35a3.79,3.79,0,0,0,3.79-3.75v-6.6h6.66A3.79,3.79,0,0,0,49.25,35V21.05a3.8,3.8,0,0,0-3.78-3.77H38.81v-6.6A3.79,3.79,0,0,0,35,6.93Zm0,2.61H35a1.17,1.17,0,0,1,1.15,1.14v7.91a1.32,1.32,0,0,0,1.32,1.31h8a1.14,1.14,0,0,1,1.14,1.15V35a1.11,1.11,0,0,1-1.14,1.14h-8a1.32,1.32,0,0,0-1.32,1.31v7.91A1.15,1.15,0,0,1,35,46.46H21a1.12,1.12,0,0,1-1.15-1.14V37.41a1.32,1.32,0,0,0-1.32-1.31h-8A1.11,1.11,0,0,1,9.39,35V21.05a1.14,1.14,0,0,1,1.14-1.15h8a1.32,1.32,0,0,0,1.32-1.31h0V10.68A1.14,1.14,0,0,1,21,9.54Z"/><path class="cls-2" d="M23.35,21a5.5,5.5,0,0,0-4,1.91,8,8,0,0,0-1.09,8.18l.18.39c1.3,2.78,4.63,5.86,8.67,9.59a1.33,1.33,0,0,0,1.84,0c4.06-3.75,7.4-6.84,8.69-9.62.08-.18.13-.3.19-.46a8,8,0,0,0-1.13-8.08,5.5,5.5,0,0,0-4-1.91A8.54,8.54,0,0,0,28,22.46,8.54,8.54,0,0,0,23.35,21Zm.07,2.61A6.52,6.52,0,0,1,27.05,25a1.42,1.42,0,0,0,1.87,0,6.57,6.57,0,0,1,3.66-1.37,2.67,2.67,0,0,1,2.09,1,5.8,5.8,0,0,1,.65,5.54l0,.06v0c-.67,1.54-3.57,4.63-7.27,8.11-3.66-3.45-6.56-6.5-7.26-8a.79.79,0,0,0,0-.09,5.79,5.79,0,0,1,.63-5.6,2.67,2.67,0,0,1,2.09-1Z"/></g></g></svg>