<?xml version="1.0" encoding="utf-8"?>
<!-- Generator: Adobe Illustrator 22.1.0, SVG Export Plug-In . SVG Version: 6.00 Build 0)  -->
<svg version="1.1" id="Layer_1" xmlns="http://www.w3.org/2000/svg" xmlns:xlink="http://www.w3.org/1999/xlink" x="0px" y="0px"
	 viewBox="0 0 56 56" style="enable-background:new 0 0 56 56;" xml:space="preserve">
<style type="text/css">
	.st0{fill:none;}
	.st1{fill:#FFFFFF;stroke:#0097D6;stroke-miterlimit:10;}
</style>
<title>HealthAsset 18</title>
<g id="Layer_2_1_">
	<g id="Layer_17">
		<rect class="st0" width="56" height="56"/>
		<path class="st1" d="M21,6.9c-2.1,0-3.8,1.7-3.8,3.8v6.6h-6.7c-2.1,0-3.8,1.7-3.8,3.8V35c0,2.1,1.7,3.8,3.8,3.8h6.7v6.6
			c0,2.1,1.7,3.7,3.8,3.7h14c2.1,0,3.8-1.7,3.8-3.8v-6.6h6.7c2.1,0,3.8-1.7,3.8-3.7V21c0-2.1-1.7-3.8-3.8-3.8h-6.7v-6.6
			c0-2.1-1.7-3.8-3.8-3.7H21z M21,9.5h14c0.6,0,1.1,0.5,1.2,1.1v7.9c0,0.7,0.6,1.3,1.3,1.3h8c0.6,0,1.1,0.5,1.1,1.1c0,0,0,0,0,0v14
			c0,0.6-0.5,1.1-1.1,1.1c0,0,0,0-0.1,0h-8c-0.7,0-1.3,0.6-1.3,1.3v7.9c0,0.6-0.5,1.1-1.2,1.1H21c-0.6,0-1.1-0.5-1.1-1.1
			c0,0,0,0,0-0.1v-7.9c0-0.7-0.6-1.3-1.3-1.3h-8c-0.6,0-1.1-0.5-1.1-1.1c0,0,0,0,0,0V21c0-0.6,0.5-1.1,1.1-1.1c0,0,0,0,0,0h8
			c0.7,0,1.3-0.6,1.3-1.3l0,0v-7.9C19.8,10.1,20.4,9.5,21,9.5C21,9.5,21,9.5,21,9.5z"/>
		<path class="st1" d="M23.4,21c-1.5,0-3,0.7-4,1.9c-1.9,2.3-2.3,5.5-1.1,8.2l0.2,0.4c1.3,2.8,4.6,5.9,8.7,9.6
			c0.5,0.5,1.3,0.5,1.8,0c4.1-3.8,7.4-6.8,8.7-9.6c0.1-0.2,0.1-0.3,0.2-0.5c1.1-2.7,0.7-5.8-1.1-8.1c-1-1.2-2.5-1.9-4-1.9
			c-1.7,0-3.3,0.5-4.7,1.5C26.6,21.5,25,21,23.4,21z M23.4,23.6c1.3,0.1,2.6,0.6,3.6,1.4c0.5,0.5,1.3,0.5,1.9,0
			c1.1-0.8,2.3-1.3,3.7-1.4c0.8,0,1.6,0.4,2.1,1c1.1,1.6,1.4,3.7,0.7,5.5v0.1l0,0c-0.7,1.5-3.6,4.6-7.3,8.1c-3.7-3.5-6.6-6.5-7.3-8
			c0,0,0-0.1,0-0.1c-0.8-1.8-0.5-4,0.6-5.6C21.9,24,22.7,23.6,23.4,23.6L23.4,23.6z"/>
	</g>
</g>
</svg>
