<?xml version="1.0" encoding="utf-8"?>
<!-- Generator: Adobe Illustrator 22.1.0, SVG Export Plug-In . SVG Version: 6.00 Build 0)  -->
<svg version="1.1" id="Layer_1" xmlns="http://www.w3.org/2000/svg" xmlns:xlink="http://www.w3.org/1999/xlink" x="0px" y="0px"
	 viewBox="0 0 56 56" style="enable-background:new 0 0 56 56;" xml:space="preserve">
<style type="text/css">
	.st0{fill:none;}
	.st1{fill:#FFFFFF;stroke:#0097D6;stroke-width:0.5;stroke-miterlimit:10;}
</style>
<title>LightingAsset 19</title>
<g id="Layer_2_1_">
	<g id="Layer_18">
		<rect class="st0" width="56" height="56"/>
		<path class="st1" d="M43.8,7H12.3C9.4,7,7,9.4,7,12.2c0,0,0,0,0,0v31.5c0,2.9,2.3,5.2,5.2,5.3h31.5c2.9,0,5.3-2.4,5.3-5.2
			c0,0,0,0,0,0V12.3C49,9.4,46.7,7,43.8,7C43.8,7,43.8,7,43.8,7z M46.4,43.7c0,1.4-1.2,2.6-2.6,2.6c0,0,0,0,0,0H12.3
			c-1.4,0-2.6-1.2-2.6-2.6V12.3c0-1.4,1.2-2.6,2.6-2.6h14.4v9.2h-0.3c-0.3,0-0.6,0.1-0.8,0.3c-0.2,0.2-0.3,0.5-0.3,0.7v3.3
			c-4.1,1.4-6.3,6-4.8,10.1s6,6.3,10.1,4.8c4.1-1.4,6.3-6,4.8-10.1c-0.8-2.2-2.6-4-4.8-4.8v-3.3c0-0.3-0.1-0.5-0.3-0.7
			c-0.2-0.2-0.5-0.3-0.7-0.3h-0.3V9.6h14.4c1.4,0,2.6,1.2,2.6,2.6L46.4,43.7L46.4,43.7z M28,25.4c2.9,0,5.2,2.4,5.2,5.3
			c0,2.9-2.4,5.2-5.3,5.2c-2.9,0-5.2-2.4-5.2-5.3c0,0,0,0,0,0C22.8,27.7,25.1,25.4,28,25.4z"/>
		<path class="st1" d="M39.8,31.9c-0.7-0.1-1.3-0.7-1.2-1.4c0.1-0.6,0.6-1.1,1.2-1.2h2.6c0.7,0.1,1.3,0.7,1.2,1.4
			c-0.1,0.6-0.6,1.1-1.2,1.2L39.8,31.9z"/>
		<path class="st1" d="M13.6,31.9c-0.7-0.1-1.3-0.7-1.2-1.4c0.1-0.6,0.6-1.1,1.2-1.2h2.7c0.7,0.1,1.3,0.7,1.2,1.4
			c-0.1,0.6-0.6,1.1-1.2,1.2L13.6,31.9z"/>
		<path class="st1" d="M37.3,23.2c-0.5,0.5-1.3,0.5-1.9,0s-0.5-1.3,0-1.9l0,0l1.8-1.9l0,0c0.5-0.5,1.3-0.5,1.9,0s0.5,1.3,0,1.9l0,0
			L37.3,23.2L37.3,23.2z"/>
		<path class="st1" d="M18.7,41.8c-0.5,0.5-1.3,0.5-1.9,0c-0.5-0.5-0.5-1.3,0-1.9l1.9-1.9l0,0c0.5-0.5,1.3-0.5,1.9,0
			c0.5,0.5,0.5,1.3,0,1.9l0,0L18.7,41.8L18.7,41.8z"/>
		<path class="st1" d="M35.4,39.9c-0.5-0.5-0.5-1.4,0-1.9s1.4-0.5,1.9,0l1.9,1.9l0,0c0.5,0.6,0.4,1.4-0.2,1.9
			c-0.5,0.4-1.2,0.4-1.7,0L35.4,39.9L35.4,39.9z"/>
		<path class="st1" d="M16.9,21.3c-0.5-0.5-0.5-1.3,0-1.9c0.5-0.5,1.3-0.5,1.9,0l1.9,1.9l0,0c0.5,0.6,0.4,1.4-0.2,1.9
			c-0.5,0.4-1.2,0.4-1.7,0L16.9,21.3L16.9,21.3z"/>
	</g>
</g>
</svg>
