<svg xmlns="http://www.w3.org/2000/svg" viewBox="0 0 56 56"><defs><style>.cls-1{fill:none;}.cls-2{fill:#0097d6;stroke:#fff;stroke-miterlimit:10;stroke-width:0.5px;}</style></defs><title>LightingAsset 19</title><g id="Layer_2" data-name="Layer 2"><g id="Layer_18" data-name="Layer 18"><rect class="cls-1" width="56" height="56"/><path class="cls-2" d="M43.75,7H12.25A5.25,5.25,0,0,0,7,12.26V43.74A5.25,5.25,0,0,0,12.23,49H43.75A5.25,5.25,0,0,0,49,43.74V12.26A5.25,5.25,0,0,0,43.75,7Zm2.63,36.73a2.62,2.62,0,0,1-2.63,2.62H12.25a2.62,2.62,0,0,1-2.62-2.62V12.26a2.62,2.62,0,0,1,2.62-2.62H26.69v9.18h-.25a1.06,1.06,0,0,0-.75.31,1.08,1.08,0,0,0-.31.74V23.2a7.88,7.88,0,1,0,5.25,0V19.87a1,1,0,0,0-.31-.74,1,1,0,0,0-.74-.31h-.25V9.64H43.77a2.62,2.62,0,0,1,2.62,2.62V43.74ZM28,25.38a5.25,5.25,0,1,1-5.25,5.24A5.25,5.25,0,0,1,28,25.38Z"/><path class="cls-2" d="M39.8,31.94a1.32,1.32,0,0,1,0-2.63h2.64a1.32,1.32,0,0,1,0,2.63Z"/><path class="cls-2" d="M13.55,31.94a1.32,1.32,0,0,1,0-2.63H16.2a1.32,1.32,0,0,1,0,2.63Z"/><path class="cls-2" d="M37.28,23.21a1.31,1.31,0,0,1-1.85-1.86l1.85-1.86h0a1.31,1.31,0,1,1,1.85,1.86l-1.86,1.86Z"/><path class="cls-2" d="M18.72,41.76a1.31,1.31,0,0,1-1.85-1.86L18.72,38h0a1.31,1.31,0,1,1,1.85,1.86l-1.86,1.86Z"/><path class="cls-2" d="M35.42,39.89A1.31,1.31,0,0,1,37.28,38l1.86,1.86h0a1.32,1.32,0,0,1-1.87,1.85l-1.86-1.86Z"/><path class="cls-2" d="M16.86,21.34a1.31,1.31,0,0,1,1.86-1.85l1.86,1.86h0a1.32,1.32,0,0,1-1.87,1.85l-1.86-1.86Z"/></g></g></svg>