<svg xmlns="http://www.w3.org/2000/svg" viewBox="0 0 56 56"><defs><style>.cls-1{fill:none;}.cls-2{fill:#0097d6;stroke:#fff;stroke-miterlimit:10;stroke-width:0.25px;}</style></defs><title>MechanicalAsset 20</title><g id="Layer_2" data-name="Layer 2"><g id="Layer_19" data-name="Layer 19"><rect class="cls-1" width="56" height="56"/><path class="cls-2" d="M47.13,24.1A1.94,1.94,0,0,0,46.69,22l-2.43-2.43a2,2,0,0,0-.39-.26,2,2,0,0,0-.42-2.16L41,14.76a2,2,0,0,0-2.79,0L38,15a2.11,2.11,0,0,0-.18-.27l-2.42-2.42a2,2,0,0,0-2.79,0l-1.89,1.89a4.79,4.79,0,0,0-3.88-.69l-.85.12a23.69,23.69,0,0,0-3.78.75l-.26-.23A8.57,8.57,0,0,0,19,5.26a8.32,8.32,0,0,0-9.67-.51l-.07,0,0,0a0,0,0,0,1,0,0A.68.68,0,0,0,9,5.19v.06a.11.11,0,0,0,0,.06A.67.67,0,0,0,9,5.77v0l.05,0a.71.71,0,0,0,.34.25l.06,0h0l4.12,1.31,0,4.28L9.6,13.06,7,9.55l0,0a.67.67,0,0,0-.38-.25H6.5A.67.67,0,0,0,6,9.39H6s0,0,0,0a.75.75,0,0,0-.26.39.13.13,0,0,0,0,.06h0A8.36,8.36,0,0,0,8.64,18.3a8.51,8.51,0,0,0,5.28,1.88,7.87,7.87,0,0,0,3.32-.74L19,21.09c0,.49-.07,1-.07,1.37,0,3.52-.53,5.69-.89,6.05l-1,1-1-1a.86.86,0,0,0-1.16,0L8.33,35a.82.82,0,0,0,0,1.17L24.5,52.31a.79.79,0,0,0,.58.25.83.83,0,0,0,.59-.25l6.46-6.46a.83.83,0,0,0,0-1.17l-1-1,1-1c.4-.39,1.19-.39,2.13-.37,1.35,0,3,0,4.34-1.25l.67-.66,2.9,2.75a3.42,3.42,0,0,0,2.36.9L45,44a4.39,4.39,0,0,0,2.71-1.4A3.93,3.93,0,0,0,47.76,37L45,34.63l5-5a2,2,0,0,0,0-2.79Zm-4-3.32,2.42,2.43a.31.31,0,0,1,0,.45l-5.66,5.66h0a.31.31,0,0,1-.44,0L37.15,27.1a4.75,4.75,0,0,0,3.25-2.56.82.82,0,0,0-.18-.88L40,23.43l2.65-2.65A.33.33,0,0,1,43.1,20.78Zm-5.31-3.23,1.62-1.62a.31.31,0,0,1,.45,0l2.43,2.42a.34.34,0,0,1,0,.46l-.81.8h0l-2.65,2.65L36,19.39l1.84-1.84Zm-4-4.05a.32.32,0,0,1,.45,0l2.43,2.43a.33.33,0,0,1,0,.45l-1.85,1.84-2.87-2.88ZM18,17.93a.82.82,0,0,0-1.17,0,.56.56,0,0,0-.05.08,6.69,6.69,0,0,1-7.28-.87A6.92,6.92,0,0,1,7,11.9l1.8,2.44a.72.72,0,0,0,.58.29.57.57,0,0,0,.22,0l5.06-1.68a.71.71,0,0,0,.49-.69l0-5.33a.72.72,0,0,0-.5-.68l-3-.94a6.85,6.85,0,0,1,6.51,1.12,7.09,7.09,0,0,1,2.32,7.76.45.45,0,0,0,0,.11.82.82,0,0,0,.18,1l.09.08a9.19,9.19,0,0,0-1.43,3.79Zm7,32.63-15-15,5.3-5.3,15,15ZM37.44,39.83c-.82.81-1.95.79-3.16.77s-2.43,0-3.31.85l-1,1L18.16,30.71l1-1c1.28-1.28,1.38-5.85,1.38-7.22,0-2.78.9-5.79,1.46-6.2s2.76-.77,4.16-1l.87-.13c1.56-.24,2.28-.06,3.1.76l8.45,8.45a3.84,3.84,0,0,1-5.67.08l-3.23-3.23h0a.82.82,0,0,0-1.16,0,.8.8,0,0,0,0,1.16h0c2.6,2.61,2.21,7.94-.81,11a.82.82,0,1,0,1.16,1.17,10.71,10.71,0,0,0,1.6-2.1l7.56,6.78Zm9.22-1.57a2.29,2.29,0,0,1-.2,3.19,2.72,2.72,0,0,1-1.68.88,1.88,1.88,0,0,1-1.48-.44l-3.45-3.28h0l0,0-8.59-7.71a10.41,10.41,0,0,0,.61-5.18A5.62,5.62,0,0,0,35,27.24l3.31,3.27a1.92,1.92,0,0,0,.38.25,1.93,1.93,0,0,0,.42,2.15l2.42,2.43a2,2,0,0,0,1.39.58,2,2,0,0,0,.83-.2Zm2.1-9.75-5.58,5.58-.06,0,0,0h0a.32.32,0,0,1-.45,0l-2.43-2.43a.31.31,0,0,1,0-.44l.81-.81h0l5.08-5.07,2.65,2.65A.33.33,0,0,1,48.76,28.51Z"/><path class="cls-2" d="M25.85,47.14a.83.83,0,0,0,1.17,0A.83.83,0,0,0,27,46L25.4,44.36a.82.82,0,0,0-1.16,1.17Z"/><path class="cls-2" d="M43.36,40.6l.35.36a1.87,1.87,0,0,0,1.33.58A1.59,1.59,0,0,0,46.65,40a1.89,1.89,0,0,0-.53-1.32l-.36-.37a1.78,1.78,0,0,0-2.45-.13A1.75,1.75,0,0,0,43.36,40.6Zm1.69-.71v0l-.47-.47Z"/></g></g></svg>