<?xml version="1.0" encoding="utf-8"?>
<!-- Generator: Adobe Illustrator 22.1.0, SVG Export Plug-In . SVG Version: 6.00 Build 0)  -->
<svg version="1.1" id="Layer_1" xmlns="http://www.w3.org/2000/svg" xmlns:xlink="http://www.w3.org/1999/xlink" x="0px" y="0px"
	 viewBox="0 0 56 56" style="enable-background:new 0 0 56 56;" xml:space="preserve">
<style type="text/css">
	.st0{fill:none;}
	.st1{fill:#FFFFFF;stroke:#0097D6;stroke-width:0.25;stroke-miterlimit:10;}
</style>
<title>MechanicalAsset 20</title>
<g id="Layer_2_1_">
	<g id="Layer_19">
		<rect class="st0" width="56" height="56"/>
		<path class="st1" d="M47.1,24.1c0.3-0.7,0.1-1.6-0.4-2.1l-2.4-2.4c-0.1-0.1-0.3-0.2-0.4-0.3c0.3-0.7,0.1-1.6-0.4-2.2L41,14.8
			c-0.8-0.8-2-0.8-2.8,0L38,15c-0.1-0.1-0.1-0.2-0.2-0.3l-2.4-2.4c-0.8-0.8-2-0.8-2.8,0l-1.9,1.9c-1.1-0.8-2.5-1-3.9-0.7L26,13.6
			c-1.3,0.1-2.5,0.4-3.8,0.8l-0.3-0.2c0.9-3.3-0.3-6.8-2.9-8.9C16.2,3,12.3,2.8,9.3,4.8H9.3l0,0l0,0C9.1,4.9,9,5,9,5.2v0.1
			c0,0,0,0,0,0.1C8.9,5.5,8.9,5.6,9,5.8l0,0h0.1C9.1,5.9,9.3,6,9.4,6h0.1l0,0l4.1,1.3v4.3l-4,1.4L7,9.6l0,0C6.9,9.4,6.8,9.3,6.6,9.3
			H6.5c-0.2,0-0.4,0-0.5,0.1l0,0l0,0C5.9,9.5,5.8,9.6,5.7,9.8c0,0,0,0,0,0.1l0,0C5,13,6.1,16.3,8.6,18.3c1.5,1.2,3.4,1.9,5.3,1.9
			c1.1,0,2.3-0.3,3.3-0.7l1.8,1.7c0,0.5-0.1,1-0.1,1.4c0,3.5-0.5,5.7-0.9,6.1l-1,1l-1-1c-0.3-0.3-0.8-0.3-1.2,0L8.3,35
			c-0.3,0.3-0.3,0.8,0,1.2c0,0,0,0,0,0l16.2,16.1c0.2,0.2,0.4,0.3,0.6,0.3c0.2,0,0.4-0.1,0.6-0.3l6.5-6.5c0.3-0.3,0.3-0.8,0-1.2
			l-1-1l1-1c0.4-0.4,1.2-0.4,2.1-0.4c1.3,0,3,0,4.3-1.3l0.7-0.7l2.9,2.8c0.6,0.6,1.5,0.9,2.4,0.9L45,44c1-0.1,2-0.6,2.7-1.4
			c1.6-1.5,1.6-4,0.1-5.6c0,0,0,0,0,0L45,34.6l5-5c0.8-0.8,0.8-2,0-2.8L47.1,24.1z M43.1,20.8l2.4,2.4c0.1,0.1,0.1,0.3,0,0.4
			c0,0,0,0,0,0l-5.7,5.7l0,0c-0.1,0.1-0.3,0.1-0.4,0c0,0,0,0,0,0l-2.3-2.2c1.4-0.3,2.6-1.3,3.3-2.6c0.1-0.3,0-0.6-0.2-0.9L40,23.4
			l2.7-2.6C42.8,20.7,43,20.7,43.1,20.8L43.1,20.8z M37.8,17.6l1.6-1.6c0.1-0.1,0.3-0.1,0.4,0c0,0,0,0,0,0l2.4,2.4
			c0.1,0.1,0.1,0.3,0,0.5l-0.8,0.8l0,0l-2.7,2.6L36,19.4L37.8,17.6L37.8,17.6z M33.8,13.5c0.1-0.1,0.3-0.1,0.5,0l2.4,2.4
			c0.1,0.1,0.1,0.3,0,0.4l-1.8,1.8L32,15.3L33.8,13.5z M18,17.9c-0.3-0.3-0.8-0.3-1.2,0c0,0,0,0,0,0c0,0,0,0.1,0,0.1
			c-2.4,1.2-5.2,0.8-7.3-0.9C7.9,15.8,7,13.9,7,11.9l1.8,2.4c0.1,0.2,0.4,0.3,0.6,0.3c0.1,0,0.1,0,0.2,0l5.1-1.7
			c0.3-0.1,0.5-0.4,0.5-0.7V6.9c0-0.3-0.2-0.6-0.5-0.7l-3-0.9c2.2-0.8,4.7-0.3,6.5,1.1c2.3,1.8,3.2,4.9,2.3,7.8c0,0,0,0.1,0,0.1
			c-0.2,0.3-0.1,0.7,0.2,1l0.1,0.1c-0.8,1.1-1.2,2.4-1.4,3.8L18,17.9z M25,50.6l-15-15l5.3-5.3l15,15L25,50.6z M37.4,39.8
			c-0.8,0.8-2,0.8-3.2,0.8s-2.4,0-3.3,0.8l-1,1L18.2,30.7l1-1c1.3-1.3,1.4-5.9,1.4-7.2c0-2.8,0.9-5.8,1.5-6.2s2.8-0.8,4.2-1l0.9-0.1
			c1.6-0.2,2.3-0.1,3.1,0.8l8.5,8.4c-1.4,1.6-3.8,1.7-5.4,0.3c-0.1-0.1-0.2-0.2-0.2-0.2l-3.2-3.2l0,0c-0.3-0.3-0.8-0.3-1.2,0
			c0,0,0,0,0,0c-0.3,0.3-0.3,0.8,0,1.1c0,0,0,0,0,0l0,0c2.6,2.6,2.2,7.9-0.8,11c-0.3,0.3-0.3,0.8,0,1.2c0.3,0.3,0.8,0.3,1.2,0
			c0.6-0.6,1.2-1.3,1.6-2.1l7.6,6.8L37.4,39.8z M46.7,38.3c0.8,0.9,0.7,2.4-0.2,3.2c-0.4,0.5-1,0.8-1.7,0.9
			c-0.5,0.1-1.1-0.1-1.5-0.4l-3.5-3.3l0,0l0,0l-8.6-7.7c0.6-1.6,0.8-3.4,0.6-5.2c0.9,0.8,2,1.4,3.1,1.5l3.3,3.3
			c0.1,0.1,0.2,0.2,0.4,0.3c-0.3,0.7-0.2,1.6,0.4,2.1l2.4,2.4c0.4,0.4,0.9,0.6,1.4,0.6c0.3,0,0.6-0.1,0.8-0.2L46.7,38.3z M48.8,28.5
			l-5.6,5.6h-0.1l0,0l0,0c-0.1,0.1-0.3,0.1-0.5,0l-2.4-2.4c-0.1-0.1-0.1-0.3,0-0.4c0,0,0,0,0,0l0.8-0.8l0,0l5.1-5.1l2.7,2.6
			C48.9,28.1,48.9,28.3,48.8,28.5C48.8,28.5,48.8,28.5,48.8,28.5z"/>
		<path class="st1" d="M25.9,47.1c0.3,0.3,0.8,0.3,1.2,0c0.3-0.3,0.3-0.8,0-1.1l-1.6-1.6c-0.3-0.3-0.8-0.3-1.2,0
			c-0.3,0.3-0.3,0.8,0,1.2l0,0L25.9,47.1z"/>
		<path class="st1" d="M43.4,40.6l0.3,0.4c0.3,0.4,0.8,0.6,1.3,0.6c0.9,0,1.6-0.7,1.6-1.5c0-0.5-0.2-1-0.5-1.3l-0.4-0.4
			c-0.7-0.7-1.7-0.7-2.5-0.1C42.7,38.9,42.7,39.9,43.4,40.6z M45,39.9L45,39.9l-0.5-0.5L45,39.9z"/>
	</g>
</g>
</svg>
