<?xml version="1.0" encoding="utf-8"?>
<!-- Generator: Adobe Illustrator 22.1.0, SVG Export Plug-In . SVG Version: 6.00 Build 0)  -->
<svg version="1.1" id="Layer_1" xmlns="http://www.w3.org/2000/svg" xmlns:xlink="http://www.w3.org/1999/xlink" x="0px" y="0px"
	 viewBox="0 0 56 56" style="enable-background:new 0 0 56 56;" xml:space="preserve">
<style type="text/css">
	.st0{fill:none;}
	.st1{fill:#FFFFFF;stroke:#0097D6;stroke-width:0.25;stroke-miterlimit:10;}
</style>
<title>Wood &amp;amp; paperAsset 21</title>
<g id="Layer_2_1_">
	<g id="Layer_20">
		<rect class="st0" width="56" height="56"/>
		<path class="st1" d="M28,2.9L6.3,15.4v25.1L28,53.1l21.8-12.6V15.4L28,2.9z M47.9,39.5L28,51L8.1,39.5v-23L28,5l19.9,11.5V39.5z"
			/>
		<path class="st1" d="M18.9,21.3L18.9,21.3c-1.3,1.1-2,2.8-2,4.5c0,0.4,0,0.8,0.1,1.2l-3.9,3.9l0,0L13.1,31l0,0
			c-2.4,2.3-2.5,6.1-0.2,8.5s6.1,2.5,8.5,0.2c0.5-0.4,0.9-0.9,1.2-1.5c1.8,2.8,5.4,3.7,8.3,1.9c0.8-0.5,1.4-1.1,1.9-1.9l9.8-12.1
			h0.1c1.5-2.4,0.8-5.6-1.6-7.1c-0.8-0.5-1.8-0.8-2.8-0.8c-0.2,0-0.5,0-0.7,0c0.1-0.4,0.2-0.8,0.2-1.2c0-2.9-2.4-5.2-5.2-5.2
			c-1.4,0-2.7,0.5-3.7,1.5L18.9,21.3z M22.9,21.6c2.3,0,4.2,1.9,4.2,4.3c0,2.3-1.9,4.2-4.3,4.2c-2.3,0-4.2-1.9-4.2-4.2
			C18.7,23.5,20.5,21.6,22.9,21.6L22.9,21.6z M17.7,28.8c0.1,0.1,0.2,0.3,0.3,0.4c-0.2,0-0.4,0-0.6,0h0L17.7,28.8z M21.4,35.4
			c0,2.2-1.8,4-4,4c0,0-0.1,0-0.1,0c-2.3,0-4.2-1.9-4.2-4.2c0,0,0,0,0,0c0-1.1,0.5-2.2,1.3-3l0.1-0.1c0.7-0.8,1.8-1.2,2.9-1.2
			c2.2-0.1,4,1.7,4.1,3.9c0,0,0,0.1,0,0.1V35.4z M31,37.8c-1.5,1.8-4.1,2.2-6,0.7c-0.9-0.7-1.5-1.9-1.6-3.1c0-0.1,0-0.2,0-0.3
			c0-0.1,0-0.2,0-0.3c0.1-2.4,2-4.2,4.4-4.1s4.2,2,4.1,4.4c0,0.7-0.2,1.5-0.6,2.1L31,37.8z M36.3,20.5c1.6-1.1,3.8-0.6,4.8,1
			c0.4,0.6,0.6,1.3,0.6,1.9c0,0.5-0.1,1-0.3,1.4l-7.8,9.6c-0.1-0.5-0.2-0.9-0.3-1.3l5.2-5.9l-1.3-1.1l-4.7,5.4
			c-0.9-1.2-2.3-2-3.8-2.3l7.4-8.5l0.1-0.1L36.3,20.5z M35,14.5l-5.3,5.6l1.3,1.2l4.9-5.2c0.2,0.9,0.1,1.8-0.4,2.6l-0.6,0.7
			c-0.1,0.1-0.2,0.2-0.3,0.4l-5.7,6.6c0-0.2,0-0.3,0-0.5c0-3.1-2.4-5.7-5.6-5.9l7-5.6l0,0c0.6-0.5,1.4-0.8,2.2-0.8
			C33.4,13.5,34.3,13.9,35,14.5L35,14.5z"/>
		<path class="st1" d="M23.2,29.1v-1.7c-1.2,0-1.8-0.6-1.8-1.8h-1.7C19.7,27.5,21.3,29,23.2,29.1z"/>
		<path class="st1" d="M27.4,37.3v-0.7c-0.7-0.1-1.3-0.7-1.4-1.4h-1.7c-0.1,1.7,1.2,3.1,2.9,3.1c0.1,0,0.1,0,0.2,0V37.3L27.4,37.3z"
			/>
		<path class="st1" d="M17.1,37.3v-0.6c-0.7-0.1-1.2-0.7-1.3-1.4h-1.7c-0.1,1.6,1.1,3,2.7,3.1c0.1,0,0.2,0,0.3,0L17.1,37.3
			L17.1,37.3z"/>
	</g>
</g>
</svg>
