<svg xmlns="http://www.w3.org/2000/svg" viewBox="0 0 56 56"><defs><style>.cls-1{fill:none;}.cls-2{fill:#0097d6;stroke:#fff;stroke-miterlimit:10;stroke-width:0.25px;}</style></defs><title>Wood &amp;amp; paperAsset 21</title><g id="Layer_2" data-name="Layer 2"><g id="Layer_20" data-name="Layer 20"><rect class="cls-1" width="56" height="56"/><path class="cls-2" d="M28,2.87,6.25,15.44V40.56L28,53.13,49.75,40.56V15.44ZM47.94,39.52,28,51,8.06,39.52v-23L28,5,47.94,16.48Z"/><path class="cls-2" d="M18.91,21.34h0a6,6,0,0,0-2,4.51A6.06,6.06,0,0,0,17,27.06l-3.85,3.85,0,0-.06.06h0a6,6,0,1,0,9.41,7.2,6,6,0,0,0,10.19,0l9.82-12.08.06,0a5.18,5.18,0,0,0-4.41-7.95,5.06,5.06,0,0,0-.68.05A5.32,5.32,0,0,0,37.66,17a5.21,5.21,0,0,0-8.88-3.68Zm4,.26a4.25,4.25,0,1,1-4.26,4.25A4.26,4.26,0,0,1,22.89,21.6Zm-5.18,7.21c.08.13.16.27.25.4a5.44,5.44,0,0,0-.57,0h-.05Zm3.64,6.59a4,4,0,0,1-4.1,4,4.2,4.2,0,0,1-4.19-4.25,4.25,4.25,0,0,1,1.26-3l.07-.06a4,4,0,0,1,2.85-1.22,4,4,0,0,1,4.11,4Zm9.59,2.37a4.26,4.26,0,0,1-7.59-2.37,2.45,2.45,0,0,0,0-.27,2.28,2.28,0,0,0,0-.26,4.26,4.26,0,0,1,8.52.26,4.19,4.19,0,0,1-.57,2.11Zm5.3-17.24a3.48,3.48,0,0,1,5.41,2.91,3.39,3.39,0,0,1-.31,1.44l-7.8,9.6a5.94,5.94,0,0,0-.31-1.34l5.15-5.91-1.29-1.12-4.74,5.43a5.9,5.9,0,0,0-3.77-2.27L36,20.75l.14-.12Zm-1.28-6-5.27,5.65,1.25,1.16,4.89-5.24a3.4,3.4,0,0,1-.37,2.6l-.64.73a3.62,3.62,0,0,0-.3.35l-5.68,6.55a4.36,4.36,0,0,0,0-.51,6,6,0,0,0-5.56-5.94l7-5.61,0,0a3.45,3.45,0,0,1,2.21-.78A3.52,3.52,0,0,1,35,14.56Z"/><path class="cls-2" d="M23.17,29.11V27.4c-1.21,0-1.84-.56-1.84-1.77H19.62A3.69,3.69,0,0,0,23.17,29.11Z"/><path class="cls-2" d="M27.4,37.34v-.65A1.67,1.67,0,0,1,26,35.27H24.33a3,3,0,0,0,3.07,3.12v-1Z"/><path class="cls-2" d="M17.13,37.28v-.59a1.61,1.61,0,0,1-1.3-1.42H14.12a2.93,2.93,0,0,0,3,3.12V37.28Z"/></g></g></svg>