<svg xmlns="http://www.w3.org/2000/svg" viewBox="0 0 56 56"><defs><style>.cls-1{fill:none;}.cls-2{fill:#0097d6;stroke:#fff;stroke-miterlimit:10;stroke-width:0.5px;}</style></defs><title>AgricultureAsset 1</title><g id="Layer_2" data-name="Layer 2"><g id="Layer_1-2" data-name="Layer 1"><rect class="cls-1" width="56" height="56"/><path class="cls-2" d="M15.17,46.88A11.18,11.18,0,1,1,26.35,35.7,11.19,11.19,0,0,1,15.17,46.88Zm0-20.68a9.5,9.5,0,1,0,9.51,9.5A9.52,9.52,0,0,0,15.17,26.2Z"/><path class="cls-2" d="M15.17,42.5A6.8,6.8,0,1,1,22,35.7,6.8,6.8,0,0,1,15.17,42.5Zm0-11.92a5.12,5.12,0,1,0,5.12,5.12A5.13,5.13,0,0,0,15.17,30.58Z"/><path class="cls-2" d="M42.39,43.42a3,3,0,1,1,3-3A3,3,0,0,1,42.39,43.42Zm0-4.34a1.34,1.34,0,1,0,1.33,1.34A1.33,1.33,0,0,0,42.39,39.08Z"/><path class="cls-2" d="M37,39.81H27.05l.26-1A12.67,12.67,0,0,0,15,23.06V21.39A14.33,14.33,0,0,1,29.36,35.7a14.07,14.07,0,0,1-.21,2.43H37v1.68Z"/><path class="cls-2" d="M42.39,46.88a6.47,6.47,0,1,1,6.46-6.47A6.47,6.47,0,0,1,42.39,46.88Zm0-11.26a4.79,4.79,0,1,0,4.79,4.79A4.8,4.8,0,0,0,42.39,35.62Z"/><polygon class="cls-2" points="33.34 26.6 30.73 15.08 17.71 15.08 17.71 22.22 16.04 22.22 16.04 13.4 32.07 13.4 34.97 26.23 33.34 26.6"/><path class="cls-2" d="M31.27,15.08H18.06a2,2,0,1,1,0-4H31.27a2,2,0,1,1,0,4ZM18.06,12.72a.34.34,0,1,0,0,.68H31.27a.34.34,0,0,0,0-.68Z"/><polygon class="cls-2" points="52 39.81 48.41 39.81 48.41 38.13 50.33 38.13 50.33 29.75 34.99 27.39 34.99 36.54 29.3 36.54 29.3 34.87 33.31 34.87 33.31 25.44 52 28.31 52 39.81"/><path class="cls-2" d="M41.07,28.32l-5.14-.79V16.81h5.14ZM37.6,26.09l1.79.28V18.48H37.6Z"/><polygon class="cls-2" points="39.34 17.64 37.66 17.64 37.66 12.76 40.71 9.12 41.99 10.2 39.34 13.37 39.34 17.64"/><polygon class="cls-2" points="50.84 36.9 47.18 35.34 47.18 30.83 51.16 30.83 51.16 32.51 48.85 32.51 48.85 34.23 51.49 35.36 50.84 36.9"/></g></g></svg>