<?xml version="1.0" encoding="utf-8"?>
<!-- Generator: Adobe Illustrator 22.1.0, SVG Export Plug-In . SVG Version: 6.00 Build 0)  -->
<svg version="1.1" id="Layer_1" xmlns="http://www.w3.org/2000/svg" xmlns:xlink="http://www.w3.org/1999/xlink" x="0px" y="0px"
	 viewBox="0 0 56 56" style="enable-background:new 0 0 56 56;" xml:space="preserve">
<style type="text/css">
	.st0{fill:none;}
	.st1{fill:#FFFFFF;stroke:#0097D6;stroke-width:0.5;stroke-miterlimit:10;}
</style>
<title>AgricultureAsset 1</title>
<g id="Layer_2_1_">
	<g id="Layer_1-2">
		<rect class="st0" width="56" height="56"/>
		<path class="st1" d="M15.2,46.9C9,46.9,4,41.9,4,35.7s5-11.2,11.2-11.2s11.2,5,11.2,11.2l0,0C26.3,41.9,21.3,46.9,15.2,46.9z
			 M15.2,26.2c-5.2,0-9.5,4.3-9.5,9.5c0,5.2,4.3,9.5,9.5,9.5c5.2,0,9.5-4.3,9.5-9.5C24.7,30.5,20.4,26.2,15.2,26.2z"/>
		<path class="st1" d="M15.2,42.5c-3.8,0-6.8-3.1-6.8-6.8c0-3.8,3.1-6.8,6.8-6.8c3.7,0,6.8,3.1,6.8,6.8C22,39.5,19,42.5,15.2,42.5
			C15.2,42.5,15.2,42.5,15.2,42.5z M15.2,30.6c-2.8,0-5.1,2.3-5.1,5.1s2.3,5.1,5.1,5.1s5.1-2.3,5.1-5.1C20.3,32.9,18,30.6,15.2,30.6
			z"/>
		<path class="st1" d="M42.4,43.4c-1.7,0-3-1.3-3-3s1.3-3,3-3s3,1.3,3,3S44,43.4,42.4,43.4z M42.4,39.1c-0.7,0-1.3,0.6-1.3,1.3
			c0,0.7,0.6,1.3,1.3,1.3c0.7,0,1.3-0.6,1.3-1.3c0,0,0,0,0,0C43.7,39.7,43.1,39.1,42.4,39.1C42.4,39.1,42.4,39.1,42.4,39.1z"/>
		<path class="st1" d="M37,39.8H27l0.3-1c1.7-6.8-2.4-13.7-9.2-15.4c-1-0.3-2.1-0.4-3.1-0.4v-1.7c7.9,0,14.3,6.4,14.4,14.3
			c0,0,0,0,0,0c0,0.8-0.1,1.6-0.2,2.4H37V39.8z"/>
		<path class="st1" d="M42.4,46.9c-3.6,0-6.5-2.9-6.5-6.5s2.9-6.5,6.5-6.5c3.6,0,6.5,2.9,6.5,6.5c0,0,0,0,0,0
			C48.9,44,46,46.9,42.4,46.9z M42.4,35.6c-2.6,0-4.8,2.1-4.8,4.8c0,2.6,2.1,4.8,4.8,4.8s4.8-2.1,4.8-4.8
			C47.2,37.8,45,35.6,42.4,35.6z"/>
		<polygon class="st1" points="33.3,26.6 30.7,15.1 17.7,15.1 17.7,22.2 16,22.2 16,13.4 32.1,13.4 35,26.2 		"/>
		<path class="st1" d="M31.3,15.1H18.1c-1.1,0-2-0.9-2-2s0.9-2,2-2h13.2c1.1,0,2,0.9,2,2S32.4,15.1,31.3,15.1z M18.1,12.7
			c-0.2,0-0.3,0.2-0.3,0.3s0.2,0.3,0.3,0.3l0,0h13.2c0.2,0,0.3-0.2,0.3-0.3s-0.2-0.3-0.3-0.3H18.1z"/>
		<polygon class="st1" points="52,39.8 48.4,39.8 48.4,38.1 50.3,38.1 50.3,29.8 35,27.4 35,36.5 29.3,36.5 29.3,34.9 33.3,34.9 
			33.3,25.4 52,28.3 		"/>
		<path class="st1" d="M41.1,28.3l-5.1-0.8V16.8h5.1V28.3z M37.6,26.1l1.8,0.3v-7.9h-1.8V26.1z"/>
		<polygon class="st1" points="39.3,17.6 37.7,17.6 37.7,12.8 40.7,9.1 42,10.2 39.3,13.4 		"/>
		<polygon class="st1" points="50.8,36.9 47.2,35.3 47.2,30.8 51.2,30.8 51.2,32.5 48.8,32.5 48.8,34.2 51.5,35.4 		"/>
	</g>
</g>
</svg>
