<?xml version="1.0" encoding="utf-8"?>
<!-- Generator: Adobe Illustrator 22.1.0, SVG Export Plug-In . SVG Version: 6.00 Build 0)  -->
<svg version="1.1" id="Layer_1" xmlns="http://www.w3.org/2000/svg" xmlns:xlink="http://www.w3.org/1999/xlink" x="0px" y="0px"
	 viewBox="0 0 56 56" style="enable-background:new 0 0 56 56;" xml:space="preserve">
<style type="text/css">
	.st0{fill:none;}
	.st1{fill:#FFFFFF;stroke:#0097D6;stroke-width:0.5;stroke-miterlimit:10;}
</style>
<title>ConsultingAsset 3</title>
<g id="Layer_2_1_">
	<g id="Layer_3">
		<rect class="st0" width="56" height="56"/>
		<path class="st1" d="M5.6,51.3c0.5,0,0.8-0.4,0.8-0.8v-3.3h9.9v1.7c0,1.4,1.1,2.5,2.5,2.5h1.7c0.5,0,0.8-0.4,0.8-0.8v-8.3
			c0-1.8-1.5-3.3-3.3-3.3c0,0,0,0,0,0h-2.5v-1.6h5.8c0,1.5,1,2.8,2.5,3.2v10c0,0.5,0.4,0.8,0.8,0.8h6.6c0.5,0,0.8-0.4,0.8-0.8v-10
			c1.5-0.4,2.5-1.7,2.5-3.2h5.8v1.7h-2.5c-1.8,0-3.3,1.5-3.3,3.3v0v8.3c0,0.5,0.4,0.8,0.8,0.8h1.7c1.4,0,2.5-1.1,2.5-2.5v-1.7h9.9
			v3.3c0.1,0.5,0.5,0.8,0.9,0.7c0.4,0,0.7-0.3,0.7-0.7V33.2c0-1.8-1.5-3.3-3.3-3.3l0,0c0-1.4-0.6-2.8-1.6-3.8
			c-0.3-0.3-0.6-0.5-1-0.7c1.1-0.6,1.8-1.7,1.8-2.9v-1.7c-0.1-1.8-1.7-3.2-3.5-3.1c-1.7,0.1-3,1.4-3.1,3.1v1.6
			c0,1.2,0.7,2.3,1.8,2.9c-1.3,0.8-2.2,2.2-2.5,3.7h-0.9c-1.4,0-2.5,1.1-2.5,2.5v0.8h-1.6c0-2.9-2-5.5-4.8-6.3
			c0.9-0.6,1.5-1.6,1.5-2.7v-1.7c0-1.8-1.5-3.3-3.3-3.3c-1.8,0-3.3,1.5-3.3,3.3v1.6c0,1.1,0.5,2.1,1.5,2.8c-2.8,0.8-4.8,3.4-4.8,6.3
			h-1.6v-0.8c0-1.4-1.1-2.5-2.5-2.5c0,0,0,0,0,0h-0.9c-0.3-1.5-1.2-2.9-2.5-3.7c1.1-0.6,1.8-1.7,1.8-2.9v-1.6
			c-0.1-1.8-1.7-3.2-3.5-3.1c-1.7,0.1-3,1.4-3.1,3.1v1.6c0,1.2,0.7,2.3,1.8,2.9c-0.4,0.2-0.7,0.4-1,0.7c-1,1-1.6,2.4-1.6,3.8l0,0
			c-1.8,0-3.3,1.5-3.3,3.3v17.3C4.8,51,5.2,51.3,5.6,51.3C5.6,51.3,5.6,51.3,5.6,51.3z M23,37.3h0.8v1.4C23.3,38.4,23,37.9,23,37.3z
			 M30.5,49.7h-5V37.3h5V49.7z M32.1,38.7v-1.4H33C33,37.9,32.7,38.4,32.1,38.7L32.1,38.7z M49.5,33.1v12.4h-9.9v-1.6h4.1
			c2.3,0,4.1-1.8,4.1-4.1v-8.3C48.8,31.5,49.5,32.2,49.5,33.1L49.5,33.1z M42.1,20.8c0.1-0.9,0.9-1.6,1.8-1.5
			c0.8,0.1,1.5,0.7,1.5,1.5v1.6c-0.1,0.9-0.9,1.6-1.8,1.5c-0.8-0.1-1.5-0.7-1.5-1.5V20.8z M37.9,31.5c0-0.5,0.4-0.8,0.8-0.8l0,0h1.7
			c0.5,0,0.8-0.4,0.8-0.8c0-1.3,0.8-2.5,1.9-3.2c0.7-0.3,1.5,0,1.9,0.6c0.7,0.7,1.1,1.7,1.1,2.8v9.7c0,1.4-1.1,2.5-2.5,2.5h-5
			c-0.5,0-0.8,0.4-0.8,0.8v5.8c0,0.5-0.4,0.8-0.8,0.8h-0.8v-7.4c0-0.9,0.7-1.7,1.6-1.7c0,0,0,0,0,0h3.3c0.5,0,0.8-0.4,0.8-0.8v0
			v-6.6c0-0.5-0.4-0.8-0.8-0.8h0h-3.3V31.5z M37.1,34h3.3v1.7H15.6V34H37.1z M26.3,21.6c0-0.9,0.7-1.7,1.7-1.7
			c0.9,0,1.7,0.7,1.7,1.7v1.6c0,0.9-0.7,1.7-1.7,1.7c-0.9,0-1.7-0.7-1.7-1.7V21.6z M28,27.4c2.7,0,5,2.2,5,4.9H23
			C23,29.6,25.3,27.4,28,27.4z M10.6,20.8c0.1-0.9,0.9-1.6,1.8-1.5c0.8,0.1,1.5,0.7,1.5,1.5v1.6c-0.1,0.9-0.9,1.6-1.8,1.5
			c-0.8-0.1-1.5-0.7-1.5-1.5L10.6,20.8z M9.8,30c0-1,0.4-2.1,1.1-2.8c0.3-0.4,0.8-0.6,1.4-0.7c0.2,0,0.4,0,0.6,0.1
			c1.2,0.7,1.9,1.9,1.9,3.2c0,0.5,0.4,0.8,0.8,0.8h1.7c0.5,0,0.8,0.4,0.8,0.8v0.8h-3.3c-0.5,0-0.8,0.4-0.8,0.8l0,0v6.6
			c0,0.5,0.4,0.8,0.8,0.8c0,0,0,0,0,0h3.3c0.9,0,1.7,0.7,1.7,1.6c0,0,0,0,0,0v7.4h-0.8c-0.5,0-0.8-0.4-0.8-0.8v-5.8
			c0-0.5-0.4-0.8-0.8-0.8h-5c-1.4,0-2.5-1.1-2.5-2.5L9.8,30z M6.5,33.2c0-0.9,0.7-1.7,1.7-1.6v8.3c0,2.3,1.9,4.1,4.1,4.1h4.1v1.7
			H6.5V33.2z"/>
		<path class="st1" d="M31.9,9c0.2-2.1-1.5-4-3.6-4.2c-2-0.1-3.8,1.3-4.1,3.3c0,0.3,0,0.6,0,0.9v0.1l1.4,4.5
			c0.1,0.3,0.4,0.6,0.8,0.6h3.3c0.4,0,0.7-0.2,0.8-0.6l1.4-4.5L31.9,9z M30.2,8.7l-1.2,3.8H27l-1.2-3.8c-0.2-1.2,0.7-2.4,1.9-2.5
			c1.2-0.2,2.4,0.7,2.5,1.9c0,0.1,0,0.2,0,0.3C30.2,8.5,30.2,8.6,30.2,8.7z"/>
		<path class="st1" d="M29.7,15h-3.3c-0.5,0-0.8,0.4-0.8,0.8c0,0.5,0.4,0.8,0.8,0.8h3.3c0.5,0,0.8-0.4,0.8-0.8
			C30.5,15.4,30.1,15,29.7,15z"/>
		<rect x="12.3" y="14.2" class="st1" width="1.7" height="1.6"/>
		<rect x="12.3" y="10.9" class="st1" width="1.7" height="1.6"/>
		<rect x="15.6" y="10.9" class="st1" width="1.7" height="1.6"/>
		<rect x="18.9" y="10.9" class="st1" width="1.7" height="1.6"/>
		<rect x="42.1" y="14.2" class="st1" width="1.7" height="1.6"/>
		<rect x="42.1" y="10.9" class="st1" width="1.7" height="1.6"/>
		<rect x="38.8" y="10.9" class="st1" width="1.7" height="1.6"/>
		<rect x="35.5" y="10.9" class="st1" width="1.7" height="1.6"/>
	</g>
</g>
</svg>
