<?xml version="1.0" encoding="utf-8"?>
<!-- Generator: Adobe Illustrator 22.1.0, SVG Export Plug-In . SVG Version: 6.00 Build 0)  -->
<svg version="1.1" id="Layer_1" xmlns="http://www.w3.org/2000/svg" xmlns:xlink="http://www.w3.org/1999/xlink" x="0px" y="0px"
	 viewBox="0 0 56 56" style="enable-background:new 0 0 56 56;" xml:space="preserve">
<style type="text/css">
	.st0{fill:none;}
	.st1{fill:#FFFFFF;stroke:#0097D6;stroke-width:0.5;stroke-miterlimit:10;}
</style>
<title>ConstructionAsset 2</title>
<g id="Layer_2_1_">
	<g id="Layer_2-2">
		<rect class="st0" width="56" height="56"/>
		<path class="st1" d="M49.7,48.4V34.1l0,0V10.4h-1.4v15.5h-6.1v-7.5h-1.4v15h-6.1v-3.7h-1.4v4.5l0,0v6.8h-6.1v-7h-1.4v7l0,0v7.5
			h-1.4v-3.8h-4.7V16h13.7v2.4h-0.9v1.4h0.9V22l0,0c-0.1,0.8-0.9,1.4-1.7,1.3s-1.4-0.9-1.3-1.7c0-0.2,0.1-0.4,0.2-0.6l-1.2-0.8
			c-0.9,1.4-0.5,3.2,0.9,4.1c1.4,0.9,3.2,0.5,4.1-0.9c0.2-0.4,0.4-0.8,0.4-1.3l-0.8-0.1h0.8v-2.3h1v-1.4h-1V16h0.5v-1.4h-0.8
			l-14.8-5V6.2h-8v3.3h-0.6l-6.4,5.2H4.4v0.1l0,0V16h7.1v28.7H6.8v3.8H4.4v1.4h47.1v-1.4H49.7z M12.9,17l4.9,4.9l-4.9,4.9V17z
			 M12.9,10.8h5.2v3.8h-5.2V10.8z M18.1,32.2l-4.2-4.2l4.2-4.2V32.2z M18.1,20.2L13.9,16h4.2V20.2z M12.9,29l4.7,4.7l-4.7,4.6V29z
			 M18.1,35.2v8.5l-4.2-4.2L18.1,35.2z M29.9,14.6H19.5v-3.5L29.9,14.6z M12.9,7.6h5.2v1.8h-5.2V7.6z M6.8,14.6l4.6-3.8h0.1v3.8H6.8
			z M12.9,40.5l4.2,4.2h-4.2V40.5z M8.2,46.1h14.6v2.3H8.2V46.1z M48.2,48.4h-6.1v-6.1h6.1L48.2,48.4z M48.2,40.9h-6.1v-6.1h6.1
			L48.2,40.9z M42.1,27.3h6.1v6.1h-6.1V27.3z M34.6,34.8h6.1v6.1h-6.1V34.8z M27.1,48.4v-6.1h6.1v6.1H27.1z M34.6,42.3h6.1v6.1h-6.1
			V42.3z"/>
	</g>
</g>
</svg>
