<svg xmlns="http://www.w3.org/2000/svg" viewBox="0 0 56 56"><defs><style>.cls-1{fill:none;}.cls-2{fill:#0097d6;stroke:#fff;stroke-miterlimit:10;stroke-width:0.5px;}</style></defs><title>ConstructionAsset 2</title><g id="Layer_2" data-name="Layer 2"><g id="Layer_2-2" data-name="Layer 2"><rect class="cls-1" width="56" height="56"/><path class="cls-2" d="M49.67,48.43V34.12h0V10.38H48.26V25.89H42.14V18.37H40.72v15H34.6V29.64H33.19v4.48h0v6.8H27.06V33.87H25.65v7.05h0v7.51H24.24V44.68H19.51V16H33.19v2.35h-.94v1.41h.94v2.29h0a1.53,1.53,0,1,1-2.81-1l-1.19-.76a2.94,2.94,0,1,0,5.41,1.87l-.84-.08h.85V19.78h1V18.37h-1V16h.47V14.61h-.81l-14.75-5V6.16h-8V9.44h-.65L4.51,14.61H4.45v.05h0V16h7.07V44.68H6.81v3.75H4.45v1.41H51.56V48.43ZM12.93,17l4.93,4.92-4.93,4.92Zm0-6.17H18.1v3.76H12.93ZM18.1,32.16l-4.24-4.23L18.1,23.7Zm0-12L13.93,16H18.1ZM12.93,29l4.67,4.65L12.93,38.3Zm5.17,6.15v8.46l-4.24-4.23ZM29.85,14.61H19.51V11.13Zm-16.92-7H18.1V9.44H12.93Zm-6.18,7,4.62-3.76h.15v3.76Zm6.18,25.84,4.24,4.23H12.93ZM8.22,46.09H22.83v2.34H8.22Zm40,2.34H42.14v-6.1h6.12Zm0-7.51H42.14V34.81h6.12ZM42.14,27.3h6.12v6.1H42.14ZM34.6,34.81h6.12v6.11H34.6ZM27.06,48.43v-6.1h6.13v6.1Zm7.54-6.1h6.12v6.1H34.6Z"/></g></g></svg>