<svg xmlns="http://www.w3.org/2000/svg" viewBox="0 0 56 56"><defs><style>.cls-1{fill:none;}.cls-2{fill:#0097d6;stroke:#fff;stroke-miterlimit:10;stroke-width:0.5px;}</style></defs><title>ConsultingAsset 3</title><g id="Layer_2" data-name="Layer 2"><g id="Layer_3" data-name="Layer 3"><rect class="cls-1" width="56" height="56"/><path class="cls-2" d="M5.64,51.33a.82.82,0,0,0,.82-.82V47.2H16.4v1.66a2.49,2.49,0,0,0,2.49,2.47h1.66a.82.82,0,0,0,.82-.82V42.25a3.31,3.31,0,0,0-3.31-3.31H15.58V37.29h5.79a3.32,3.32,0,0,0,2.49,3.19v10a.83.83,0,0,0,.83.82h6.62a.83.83,0,0,0,.83-.82v-10a3.32,3.32,0,0,0,2.49-3.19h5.79v1.65H37.94a3.31,3.31,0,0,0-3.31,3.31v8.26a.82.82,0,0,0,.82.82h1.66a2.49,2.49,0,0,0,2.49-2.47V47.2h9.94v3.31a.83.83,0,0,0,1.65,0V33.16a3.31,3.31,0,0,0-3.31-3.3h0a5.6,5.6,0,0,0-1.6-3.81,4.39,4.39,0,0,0-1-.73,3.27,3.27,0,0,0,1.76-2.9V20.77a3.32,3.32,0,0,0-6.63,0v1.65a3.3,3.3,0,0,0,1.77,2.9A5.44,5.44,0,0,0,39.67,29h-.9a2.49,2.49,0,0,0-2.49,2.48v.82H34.63A6.64,6.64,0,0,0,29.84,26a3.29,3.29,0,0,0,1.47-2.74V21.6a3.31,3.31,0,1,0-6.62,0v1.65A3.29,3.29,0,0,0,26.16,26a6.64,6.64,0,0,0-4.79,6.34H19.72v-.82A2.49,2.49,0,0,0,17.23,29h-.9a5.44,5.44,0,0,0-2.52-3.71,3.3,3.3,0,0,0,1.77-2.9V20.77a3.32,3.32,0,0,0-6.63,0v1.65a3.27,3.27,0,0,0,1.76,2.9,4.39,4.39,0,0,0-1,.73,5.6,5.6,0,0,0-1.6,3.81h0a3.31,3.31,0,0,0-3.31,3.3V50.51A.83.83,0,0,0,5.64,51.33ZM23,37.29h.83v1.42A1.63,1.63,0,0,1,23,37.29Zm7.45,12.39h-5V37.29h5Zm1.66-11V37.29H33A1.63,1.63,0,0,1,32.14,38.71Zm17.4-5.55V45.55H39.6V43.9h4.14a4.14,4.14,0,0,0,4.14-4.13V31.51A1.66,1.66,0,0,1,49.54,33.16ZM42.08,20.77a1.66,1.66,0,0,1,3.31,0v1.65a1.66,1.66,0,0,1-3.31,0ZM37.94,31.51a.83.83,0,0,1,.83-.83h1.65a.83.83,0,0,0,.83-.82,3.79,3.79,0,0,1,1.91-3.19,1.7,1.7,0,0,1,1.94.56A3.92,3.92,0,0,1,46.22,30v9.74a2.48,2.48,0,0,1-2.48,2.48h-5a.83.83,0,0,0-.83.82v5.79a.83.83,0,0,1-.83.82h-.83V42.25a1.65,1.65,0,0,1,1.66-1.65h3.31a.83.83,0,0,0,.83-.83V33.16a.83.83,0,0,0-.83-.83H37.94ZM37.11,34h3.31v1.65H15.58V34ZM26.34,21.6a1.66,1.66,0,0,1,3.32,0v1.65a1.66,1.66,0,0,1-3.32,0ZM28,27.38a5,5,0,0,1,5,4.95H23A5,5,0,0,1,28,27.38ZM10.61,20.77a1.66,1.66,0,0,1,3.31,0v1.65a1.66,1.66,0,0,1-3.31,0ZM9.78,30a3.88,3.88,0,0,1,1.12-2.8,2,2,0,0,1,1.36-.68,1.43,1.43,0,0,1,.58.12,3.79,3.79,0,0,1,1.91,3.19.83.83,0,0,0,.83.82h1.65a.83.83,0,0,1,.83.83v.82H14.75a.83.83,0,0,0-.83.83v6.61a.83.83,0,0,0,.83.83h3.31a1.65,1.65,0,0,1,1.66,1.65v7.43h-.83a.83.83,0,0,1-.83-.82V43.07a.83.83,0,0,0-.83-.82h-5a2.48,2.48,0,0,1-2.48-2.48ZM6.46,33.16a1.66,1.66,0,0,1,1.66-1.65v8.26a4.14,4.14,0,0,0,4.14,4.13H16.4v1.65H6.46Z"/><path class="cls-2" d="M31.87,9a3.9,3.9,0,0,0-7.74-.9,4.51,4.51,0,0,0,0,.9l0,.14,1.39,4.46a.83.83,0,0,0,.79.58h3.32a.83.83,0,0,0,.79-.58l1.39-4.46Zm-1.64-.27-1.18,3.81H27L25.77,8.73a2.24,2.24,0,1,1,4.46-.34A1.93,1.93,0,0,1,30.23,8.73Z"/><path class="cls-2" d="M29.66,15H26.34a.83.83,0,0,0,0,1.66h3.32a.83.83,0,0,0,0-1.66Z"/><rect class="cls-2" x="12.26" y="14.16" width="1.66" height="1.65"/><rect class="cls-2" x="12.26" y="10.86" width="1.66" height="1.65"/><rect class="cls-2" x="15.58" y="10.86" width="1.66" height="1.65"/><rect class="cls-2" x="18.89" y="10.86" width="1.66" height="1.65"/><rect class="cls-2" x="42.08" y="14.16" width="1.66" height="1.65"/><rect class="cls-2" x="42.08" y="10.86" width="1.66" height="1.65"/><rect class="cls-2" x="38.77" y="10.86" width="1.66" height="1.65"/><rect class="cls-2" x="35.45" y="10.86" width="1.66" height="1.65"/></g></g></svg>