<svg xmlns="http://www.w3.org/2000/svg" viewBox="0 0 56 56"><defs><style>.cls-1{fill:none;}.cls-2{fill:#0097d6;stroke:#fff;stroke-miterlimit:10;stroke-width:0.85px;}</style></defs><title>EducationAsset 4</title><g id="Layer_2" data-name="Layer 2"><g id="Layer_4" data-name="Layer 4"><rect class="cls-1" width="56" height="56"/><path class="cls-2" d="M50.76,20.56,28.32,13a.66.66,0,0,0-.64,0L5.24,20.56a1,1,0,0,0-.74.94,1.07,1.07,0,0,0,.69,1L11.63,25V35.16a1,1,0,0,0,.58.88l12.41,6.31a7.71,7.71,0,0,0,6.76,0L43.79,36a1,1,0,0,0,.58-.88V25l4.49-1.72v9.85a1.06,1.06,0,0,0,2.11,0V22.43a1.14,1.14,0,0,0,.53-.93A1,1,0,0,0,50.76,20.56Zm-8.5,13.92-11.83,6a5.28,5.28,0,0,1-4.86,0l-11.83-6V25.82l13.89,5.32h.74l13.89-5.32ZM28,29.06,8.62,21.6,28,15,47.38,21.6Z"/></g></g></svg>