<?xml version="1.0" encoding="utf-8"?>
<!-- Generator: Adobe Illustrator 22.1.0, SVG Export Plug-In . SVG Version: 6.00 Build 0)  -->
<svg version="1.1" id="Layer_1" xmlns="http://www.w3.org/2000/svg" xmlns:xlink="http://www.w3.org/1999/xlink" x="0px" y="0px"
	 viewBox="0 0 56 56" style="enable-background:new 0 0 56 56;" xml:space="preserve">
<style type="text/css">
	.st0{fill:none;}
	.st1{fill:#FFFFFF;stroke:#0097D6;stroke-width:0.85;stroke-miterlimit:10;}
</style>
<title>EducationAsset 4</title>
<g id="Layer_2_1_">
	<g id="Layer_4">
		<rect class="st0" width="56" height="56"/>
		<path class="st1" d="M50.8,20.6L28.3,13c-0.2-0.1-0.4-0.1-0.6,0L5.2,20.6c-0.4,0.1-0.7,0.5-0.7,0.9c0,0.4,0.3,0.8,0.7,1l6.4,2.5
			v10.2c0,0.4,0.2,0.7,0.6,0.9l12.4,6.3c2.1,1,4.6,1,6.8,0L43.8,36c0.3-0.2,0.6-0.5,0.6-0.9V25l4.5-1.7v9.9c0.1,0.6,0.6,1,1.2,1
			c0.5,0,0.9-0.4,1-1V22.4c0.3-0.2,0.5-0.6,0.5-0.9C51.5,21.1,51.2,20.7,50.8,20.6z M42.3,34.5l-11.8,6c-1.5,0.8-3.3,0.8-4.9,0
			l-11.8-6v-8.7l13.9,5.3h0.7l13.9-5.3V34.5z M28,29.1L8.6,21.6L28,15l19.4,6.6L28,29.1z"/>
	</g>
</g>
</svg>
