<svg xmlns="http://www.w3.org/2000/svg" viewBox="0 0 56 56"><defs><style>.cls-1{fill:none;}.cls-2{fill:#0097d6;stroke:#fff;stroke-miterlimit:10;stroke-width:0.5px;}</style></defs><title>FinanceAsset 6</title><g id="Layer_2" data-name="Layer 2"><g id="Layer_5" data-name="Layer 5"><rect class="cls-1" width="56" height="56"/><path class="cls-2" d="M46.81,23.11H9.19a.81.81,0,0,1-.81-.81V19a.81.81,0,0,1,.43-.73L27.63,8.54a.79.79,0,0,1,.76,0l18.8,9.77a.82.82,0,0,1,.44.73V22.3A.82.82,0,0,1,46.81,23.11ZM10,21.48H46V19.53L28,10.18,10,19.53Z"/><path class="cls-2" d="M46.81,47.56H9.19a.82.82,0,0,1-.81-.82V43.48a.81.81,0,0,1,.81-.81H46.81a.82.82,0,0,1,.82.81v3.26A.82.82,0,0,1,46.81,47.56ZM10,45.93H46V44.3H10Z"/><path class="cls-2" d="M15.73,44.3a.82.82,0,0,1-.81-.82V22.3a.82.82,0,1,1,1.63,0V43.48A.82.82,0,0,1,15.73,44.3Z"/><path class="cls-2" d="M10.83,44.3a.82.82,0,0,1-.82-.82V22.3a.82.82,0,0,1,1.64,0V43.48A.82.82,0,0,1,10.83,44.3Z"/><path class="cls-2" d="M45.17,44.3a.82.82,0,0,1-.82-.82V22.3a.82.82,0,1,1,1.64,0V43.48A.82.82,0,0,1,45.17,44.3Z"/><path class="cls-2" d="M40.27,44.3a.82.82,0,0,1-.82-.82V22.3a.82.82,0,1,1,1.63,0V43.48A.82.82,0,0,1,40.27,44.3Z"/><path class="cls-2" d="M28,39.82a4,4,0,0,1-4.09-3.88.82.82,0,0,1,1.64,0A2.46,2.46,0,1,0,28,33.7a3.88,3.88,0,1,1,4.09-3.87.82.82,0,0,1-1.64,0A2.46,2.46,0,1,0,28,32.07a3.88,3.88,0,1,1,0,7.75Z"/><path class="cls-2" d="M28,41a.82.82,0,0,1-.82-.82V25.56a.82.82,0,0,1,1.64,0V40.22A.82.82,0,0,1,28,41Z"/></g></g></svg>