<?xml version="1.0" encoding="utf-8"?>
<!-- Generator: Adobe Illustrator 22.1.0, SVG Export Plug-In . SVG Version: 6.00 Build 0)  -->
<svg version="1.1" id="Layer_1" xmlns="http://www.w3.org/2000/svg" xmlns:xlink="http://www.w3.org/1999/xlink" x="0px" y="0px"
	 viewBox="0 0 56 56" style="enable-background:new 0 0 56 56;" xml:space="preserve">
<style type="text/css">
	.st0{fill:none;}
	.st1{fill:#FFFFFF;stroke:#0097D6;stroke-width:0.5;stroke-miterlimit:10;}
</style>
<title>FinanceAsset 6</title>
<g id="Layer_2_1_">
	<g id="Layer_5">
		<rect class="st0" width="56" height="56"/>
		<path class="st1" d="M46.8,23.1H9.2c-0.4,0-0.8-0.4-0.8-0.8V19c0-0.3,0.2-0.6,0.4-0.7l18.8-9.7c0.2-0.1,0.5-0.1,0.8,0l18.8,9.8
			c0.3,0.1,0.4,0.4,0.4,0.7v3.3C47.6,22.7,47.3,23.1,46.8,23.1z M10,21.5h36v-1.9l-18-9.4l-18,9.4V21.5z"/>
		<path class="st1" d="M46.8,47.6H9.2c-0.4,0-0.8-0.4-0.8-0.8v-3.3c0-0.4,0.4-0.8,0.8-0.8c0,0,0,0,0,0h37.6c0.4,0,0.8,0.4,0.8,0.8
			v3.3C47.6,47.2,47.3,47.6,46.8,47.6L46.8,47.6z M10,45.9h36v-1.6H10V45.9z"/>
		<path class="st1" d="M15.7,44.3c-0.4,0-0.8-0.4-0.8-0.8V22.3c0-0.5,0.3-0.9,0.7-0.9c0.5,0,0.9,0.3,0.9,0.7c0,0.1,0,0.1,0,0.2v21.2
			C16.5,43.9,16.2,44.3,15.7,44.3z"/>
		<path class="st1" d="M10.8,44.3c-0.5,0-0.8-0.4-0.8-0.8V22.3c0-0.5,0.4-0.8,0.8-0.8c0.5,0,0.8,0.4,0.8,0.8v21.2
			C11.7,43.9,11.3,44.3,10.8,44.3L10.8,44.3z"/>
		<path class="st1" d="M45.2,44.3c-0.5,0-0.8-0.4-0.8-0.8V22.3c0-0.5,0.4-0.8,0.8-0.8s0.8,0.4,0.8,0.8c0,0,0,0,0,0v21.2
			C46,43.9,45.6,44.3,45.2,44.3z"/>
		<path class="st1" d="M40.3,44.3c-0.5,0-0.8-0.4-0.8-0.8V22.3c0-0.5,0.3-0.9,0.7-0.9s0.9,0.3,0.9,0.7c0,0.1,0,0.1,0,0.2v21.2
			C41.1,43.9,40.7,44.3,40.3,44.3z"/>
		<path class="st1" d="M28,39.8c-2.2,0.1-4-1.7-4.1-3.9c0-0.5,0.4-0.8,0.8-0.8c0.5,0,0.8,0.4,0.8,0.8c-0.1,1.4,0.9,2.5,2.2,2.7
			c1.4,0.1,2.5-0.9,2.7-2.2c0.1-1.4-0.9-2.5-2.2-2.7c-0.1,0-0.1,0-0.2,0c-2.1-0.1-3.8-1.9-3.7-4.1c0.1-2.1,1.9-3.8,4.1-3.7
			c2.1,0.1,3.7,1.8,3.7,3.9c0,0.5-0.4,0.8-0.8,0.8c-0.5,0-0.8-0.4-0.8-0.8c0.1-1.4-0.9-2.5-2.2-2.7s-2.5,0.9-2.7,2.2
			s0.9,2.5,2.2,2.7c0.1,0,0.1,0,0.2,0c2.1-0.1,4,1.5,4.1,3.7s-1.5,4-3.7,4.1C28.3,39.8,28.1,39.8,28,39.8z"/>
		<path class="st1" d="M28,41c-0.5,0-0.8-0.4-0.8-0.8V25.6c0-0.5,0.4-0.8,0.8-0.8c0.5,0,0.8,0.4,0.8,0.8v14.7
			C28.8,40.7,28.4,41,28,41z"/>
	</g>
</g>
</svg>
