<svg xmlns="http://www.w3.org/2000/svg" viewBox="0 0 56 56"><defs><style>.cls-1,.cls-2,.cls-3{fill:none;}.cls-2,.cls-3{stroke:#0097d6;stroke-width:1.26px;}.cls-2{stroke-miterlimit:10;}.cls-3{stroke-linejoin:round;}</style></defs><title>Food &amp;amp; accommodationAsset 7</title><g id="Layer_2" data-name="Layer 2"><g id="Layer_6" data-name="Layer 6"><rect class="cls-1" width="56" height="56"/><path class="cls-2" d="M18.69,32.9a4,4,0,1,0-3.49-4.53,3.69,3.69,0,0,0,0,1.05A4,4,0,0,0,18.69,32.9Zm21.63-8.32H28.64A2.4,2.4,0,0,0,26.24,27v7.56a2.37,2.37,0,0,1-2.37,2.37h-9.3a2.39,2.39,0,0,1-2.42-2.36V22.83A1.76,1.76,0,0,0,10.44,21h0a1.76,1.76,0,0,0-1.76,1.76V45.72a1.76,1.76,0,0,0,1.76,1.77h0a1.77,1.77,0,0,0,1.73-1.77V44.15a2,2,0,0,1,2-2H41.84a2,2,0,0,1,2,2v1.53a1.76,1.76,0,0,0,1.72,1.8h0a1.76,1.76,0,0,0,1.76-1.76h0V31.62A7,7,0,0,0,40.32,24.58Z"/><path class="cls-3" d="M35.34,8.68l1.5,3a.31.31,0,0,0,.25.18l3.35.49a.33.33,0,0,1,.29.36.41.41,0,0,1-.1.21L38.2,15.33a.32.32,0,0,0-.1.29L38.67,19a.33.33,0,0,1-.26.38.37.37,0,0,1-.21,0l-3-1.58a.34.34,0,0,0-.31,0l-3,1.58a.33.33,0,0,1-.44-.14.37.37,0,0,1,0-.21L32,15.62a.32.32,0,0,0-.1-.29L29.47,13a.32.32,0,0,1,0-.46.31.31,0,0,1,.2-.11L33,11.9a.31.31,0,0,0,.25-.18l1.51-3a.33.33,0,0,1,.44-.13A.35.35,0,0,1,35.34,8.68Z"/><circle class="cls-2" cx="25.01" cy="12.93" r="1.22"/><rect class="cls-2" x="12.63" y="11.7" width="10.06" height="2.45" rx="1.22" ry="1.22"/><circle class="cls-2" cx="25.01" cy="17.06" r="1.22"/><rect class="cls-2" x="17.87" y="15.83" width="4.81" height="2.45" rx="1.22" ry="1.22"/></g></g></svg>