<?xml version="1.0" encoding="utf-8"?>
<!-- Generator: Adobe Illustrator 22.1.0, SVG Export Plug-In . SVG Version: 6.00 Build 0)  -->
<svg version="1.1" id="Layer_1" xmlns="http://www.w3.org/2000/svg" xmlns:xlink="http://www.w3.org/1999/xlink" x="0px" y="0px"
	 viewBox="0 0 56 56" style="enable-background:new 0 0 56 56;" xml:space="preserve">
<style type="text/css">
	.st0{fill:none;}
	.st1{fill:none;stroke:#FFFFFF;stroke-width:1.26;stroke-miterlimit:10;}
	.st2{fill:none;stroke:#FFFFFF;stroke-width:1.26;stroke-linejoin:round;}
</style>
<title>Food &amp;amp; accommodationAsset 7</title>
<g id="Layer_2_1_">
	<g id="Layer_6">
		<rect class="st0" width="56" height="56"/>
		<path class="st1" d="M18.7,32.9c2.2,0.3,4.2-1.3,4.4-3.5s-1.3-4.2-3.5-4.4c-2.2-0.3-4.1,1.3-4.4,3.4c-0.1,0.3-0.1,0.7,0,1
			C15.4,31.2,16.9,32.7,18.7,32.9z M40.3,24.6H28.6c-1.3,0-2.4,1.1-2.4,2.4c0,0,0,0,0,0v7.6c0,1.3-1.1,2.4-2.4,2.4h-9.3
			c-1.3,0-2.4-1-2.4-2.4c0,0,0,0,0,0V22.8c0-1-0.7-1.8-1.7-1.8c0,0,0,0,0,0l0,0c-1,0-1.8,0.8-1.8,1.8l0,0v23c0,1,0.8,1.8,1.7,1.8
			c0,0,0,0,0,0l0,0c1,0,1.7-0.8,1.7-1.8v-1.6c0-1.1,0.9-2,2-2h27.7c1.1,0,2,0.9,2,2v1.5c0,1,0.7,1.8,1.7,1.8c0,0,0,0,0,0l0,0
			c1,0,1.8-0.8,1.8-1.8l0,0V31.6C47.3,27.8,44.2,24.6,40.3,24.6C40.3,24.6,40.3,24.6,40.3,24.6z"/>
		<path class="st2" d="M35.3,8.7l1.5,3c0,0.1,0.1,0.2,0.3,0.2l3.3,0.5c0.2,0,0.3,0.2,0.3,0.4c0,0.1,0,0.2-0.1,0.2l-2.4,2.4
			c-0.1,0.1-0.1,0.2-0.1,0.3l0.6,3.4c0,0.2-0.1,0.3-0.3,0.4c-0.1,0-0.1,0-0.2,0l-3-1.6c-0.1,0-0.2,0-0.3,0l-3,1.6
			c-0.2,0.1-0.4,0-0.4-0.1c0-0.1,0-0.1,0-0.2l0.6-3.4c0-0.1,0-0.2-0.1-0.3L29.5,13c-0.1-0.1-0.1-0.3,0-0.5c0,0,0,0,0,0
			c0.1-0.1,0.1-0.1,0.2-0.1l3.3-0.5c0.1,0,0.2-0.1,0.3-0.2l1.5-3c0.1-0.2,0.3-0.2,0.4-0.1C35.3,8.6,35.3,8.6,35.3,8.7z"/>
		<circle class="st1" cx="25" cy="12.9" r="1.2"/>
		<path class="st1" d="M13.9,11.7h7.6c0.7,0,1.2,0.5,1.2,1.2v0c0,0.7-0.5,1.2-1.2,1.2h-7.6c-0.7,0-1.2-0.5-1.2-1.2v0
			C12.6,12.2,13.2,11.7,13.9,11.7z"/>
		<circle class="st1" cx="25" cy="17.1" r="1.2"/>
		<path class="st1" d="M19.1,15.8h2.4c0.7,0,1.2,0.5,1.2,1.2v0c0,0.7-0.5,1.2-1.2,1.2h-2.4c-0.7,0-1.2-0.5-1.2-1.2v0
			C17.9,16.4,18.4,15.8,19.1,15.8z"/>
	</g>
</g>
</svg>
