<?xml version="1.0" encoding="utf-8"?>
<!-- Generator: Adobe Illustrator 22.1.0, SVG Export Plug-In . SVG Version: 6.00 Build 0)  -->
<svg version="1.1" id="Layer_1" xmlns="http://www.w3.org/2000/svg" xmlns:xlink="http://www.w3.org/1999/xlink" x="0px" y="0px"
	 viewBox="0 0 56 56" style="enable-background:new 0 0 56 56;" xml:space="preserve">
<style type="text/css">
	.st0{fill:none;}
	.st1{fill:#FFFFFF;stroke:#0097D6;stroke-width:0.45;stroke-miterlimit:10;}
</style>
<title>HealthcareAsset 8</title>
<g id="Layer_2_1_">
	<g id="Layer_7">
		<rect class="st0" width="56" height="56"/>
		<path class="st1" d="M47.9,20.4c-0.1,2.7-1,5.3-2.4,7.6c-2.1,3.4-4.5,6.6-7.4,9.4c-2.1,2.2-4.4,4.3-6.6,6.2
			c-0.8,0.7-1.5,1.3-2.2,1.8l-0.8,0.7c-0.3,0.3-0.8,0.3-1.1,0l-0.8-0.7c-0.6-0.5-1.4-1.1-2.2-1.8c-2.3-1.9-4.5-4-6.6-6.2
			c-2.8-2.8-5.3-6-7.4-9.4c-1.4-2.3-2.3-4.9-2.4-7.6c0-11,11-14.1,19.9-6.2C37,6.3,47.9,9.3,47.9,20.4z M28.3,44
			c0.6-0.5,1.4-1.1,2.1-1.8c2.2-1.9,4.4-3.9,6.5-6.1c2.7-2.7,5.1-5.8,7.1-9c1.3-2,2-4.4,2.2-6.8c0-9.5-9.5-11.9-17.5-4.3
			c-0.3,0.3-0.9,0.3-1.2,0c-8.1-7.6-17.5-5.2-17.5,4.3c0.1,2.4,0.9,4.7,2.2,6.8c2,3.3,4.4,6.3,7.1,9.1c2.1,2.1,4.3,4.2,6.5,6.1
			c0.8,0.7,1.5,1.3,2.1,1.8l0.3,0.2L28.3,44z"/>
		<path class="st1" d="M20,20.6l3,5.6c0.2,0.4,0.8,0.6,1.2,0.4c0.2-0.1,0.3-0.2,0.4-0.4l1.8-3.2l2.1,3.2c0.2,0.3,0.5,0.4,0.8,0.4
			h2.3l1.8,6.9c0.1,0.5,0.6,0.8,1.1,0.6c0.3-0.1,0.5-0.3,0.6-0.6l2.4-7h11.3c0.5,0.1,0.9-0.3,1-0.8c0.1-0.5-0.3-0.9-0.8-1
			c-0.1,0-0.1,0-0.2,0h-12c-0.4,0-0.7,0.2-0.9,0.6l-1.6,4.8l-1.3-4.7c-0.1-0.4-0.5-0.7-0.9-0.7h-2.5l-2.6-4
			c-0.3-0.4-0.8-0.5-1.2-0.3c-0.1,0.1-0.2,0.2-0.3,0.3l-1.7,3l-3.1-5.8c-0.2-0.4-0.8-0.6-1.2-0.4c-0.2,0.1-0.3,0.3-0.4,0.4l-2.9,6.7
			h-9c-0.5-0.1-0.9,0.3-1,0.8s0.3,0.9,0.8,1c0.1,0,0.1,0,0.2,0h9.6c0.4,0,0.7-0.2,0.8-0.5L20,20.6z"/>
	</g>
</g>
</svg>
