<svg xmlns="http://www.w3.org/2000/svg" viewBox="0 0 56 56"><defs><style>.cls-1{fill:none;}.cls-2{fill:#0097d6;stroke:#fff;stroke-miterlimit:10;stroke-width:0.45px;}</style></defs><title>HealthcareAsset 8</title><g id="Layer_2" data-name="Layer 2"><g id="Layer_7" data-name="Layer 7"><rect class="cls-1" width="56" height="56"/><path class="cls-2" d="M47.94,20.35A15.93,15.93,0,0,1,45.53,28a49.11,49.11,0,0,1-7.36,9.42c-2.1,2.19-4.36,4.28-6.61,6.2-.79.67-1.52,1.28-2.17,1.81l-.84.65a.9.9,0,0,1-1.1,0l-.84-.65c-.65-.53-1.38-1.14-2.17-1.81-2.25-1.92-4.51-4-6.61-6.2A49.11,49.11,0,0,1,10.47,28a15.93,15.93,0,0,1-2.41-7.65c0-11,11-14.08,19.94-6.22C37,6.27,47.94,9.3,47.94,20.35ZM28.25,44c.64-.51,1.36-1.11,2.13-1.77,2.21-1.88,4.42-3.93,6.48-6.07A47.6,47.6,0,0,0,44,27.11a14.12,14.12,0,0,0,2.18-6.76c0-9.52-9.45-11.92-17.51-4.34a.9.9,0,0,1-1.24,0c-8.06-7.58-17.5-5.18-17.5,4.34a14.1,14.1,0,0,0,2.17,6.76,47.6,47.6,0,0,0,7.09,9.06c2.06,2.14,4.27,4.19,6.48,6.07.77.66,1.49,1.26,2.13,1.77l.25.2Z"/><path class="cls-2" d="M20,20.62l3,5.57a.9.9,0,0,0,1.58,0l1.81-3.16,2.1,3.21a.91.91,0,0,0,.76.41h2.3l1.85,6.9a.91.91,0,0,0,1.73.06l2.4-7H48.84a.91.91,0,1,0,0-1.81h-12a.9.9,0,0,0-.86.61l-1.64,4.77-1.26-4.71a.91.91,0,0,0-.88-.67h-2.5l-2.65-4a.9.9,0,0,0-1.54.05l-1.72,3L20.7,18.1a.91.91,0,0,0-1.64.07L16.2,24.86h-9a.91.91,0,1,0,0,1.81h9.63a.92.92,0,0,0,.84-.55Z"/></g></g></svg>