<svg xmlns="http://www.w3.org/2000/svg" viewBox="0 0 56 56"><defs><style>.cls-1{fill:#0097d6;stroke:#fff;stroke-miterlimit:10;stroke-width:0.25px;}.cls-2{fill:none;}</style></defs><title>manufacturingAsset 44</title><g id="Layer_2" data-name="Layer 2"><g id="Layer_57" data-name="Layer 57"><path class="cls-1" d="M46.73,48.79h-3V29.85a.68.68,0,0,0-.69-.69h-1.2l-1.9-11.79a.62.62,0,0,0-.6-.52H35.45a.58.58,0,0,0-.61.52L33,29.16H30.54V24.08a.86.86,0,0,0-.34-.6.63.63,0,0,0-.69.09L22,29.16V24.08a.87.87,0,0,0-.35-.6.63.63,0,0,0-.69.09l-7.49,5.59h-1a.68.68,0,0,0-.69.69V48.79H9.19a.69.69,0,0,0,0,1.38H46.81a.68.68,0,0,0,.69-.69A.93.93,0,0,0,46.73,48.79ZM36,18.14h2.76l1.81,11H34.24Zm-6.71,7.23v3.79H24.17Zm-8.52,0v3.79H15.65Zm.94,23.42h-4.3V40.53h4.3Zm5.6,0H23V40.53h4.31Zm15.06,0H28.65V39.92a.68.68,0,0,0-.69-.68H16.68a.67.67,0,0,0-.69.68v9H13V30.45H42.33V48.79Z"/><path class="cls-1" d="M39.92,8.93V8.67a2.84,2.84,0,0,0-5.68,0v.26a3.22,3.22,0,0,0-1,2.07,2.5,2.5,0,0,0,1.29,2.06,2.79,2.79,0,0,0,.69,1.81.78.78,0,0,0,1,.09.79.79,0,0,0,.08-1,1.36,1.36,0,0,1-.34-1V12.8a.78.78,0,0,0-.35-.68c-.6-.35-1-.78-1-1.12s.43-.86,1-1.21A.7.7,0,0,0,35.88,9a.93.93,0,0,1-.09-.43,1.55,1.55,0,1,1,3.1,0A.93.93,0,0,1,38.8,9a.7.7,0,0,0,.35.77c.69.35,1,.78,1,1.21s-.34.86-1,1.12a.58.58,0,0,0-.35.68V13a1.4,1.4,0,0,1-.51,1.12.66.66,0,0,0,0,.94c.08.18.26.18.43.18a.65.65,0,0,0,.43-.18,2.77,2.77,0,0,0,.86-2A2.42,2.42,0,0,0,41.3,11,2.44,2.44,0,0,0,39.92,8.93Z"/><path class="cls-1" d="M21.84,33.73h-4.3a.69.69,0,1,0,0,1.37h4.3a.69.69,0,1,0,0-1.37Z"/><path class="cls-1" d="M29.08,33.73H24.77a.69.69,0,1,0,0,1.37h4.31a.68.68,0,0,0,.68-.69C29.68,34.07,29.42,33.73,29.08,33.73Z"/><path class="cls-1" d="M36.22,33.64h-4.3a.68.68,0,0,0-.69.69c.08.43.34.69.69.69h4.3a.69.69,0,0,0,0-1.38Z"/><path class="cls-1" d="M37.69,39.24h-6a.67.67,0,0,0-.69.68V44.4a.68.68,0,0,0,.69.69h6a.68.68,0,0,0,.68-.69V39.92C38.29,39.58,38,39.24,37.69,39.24ZM37,43.71H32.26V40.53H37Z"/><rect class="cls-2" width="56" height="56"/></g></g></svg>