<svg xmlns="http://www.w3.org/2000/svg" viewBox="0 0 56 56"><defs><style>.cls-1{fill:none;}.cls-2{fill:#0097d6;}</style></defs><title>Real estateAsset 9</title><g id="Layer_2" data-name="Layer 2"><g id="Layer_8" data-name="Layer 8"><rect class="cls-1" width="56" height="56"/><polygon class="cls-2" points="45.51 48.84 10.49 48.84 10.49 26.66 7.13 26.66 7.13 24.97 20.24 15.48 21.03 16.57 8.95 25.31 11.84 25.31 11.84 47.5 44.16 47.5 44.16 25.31 47.05 25.31 34.97 16.57 35.76 15.48 48.88 24.97 48.88 26.66 45.51 26.66 45.51 48.84"/><rect class="cls-2" x="11.17" y="25.31" width="33.67" height="1.34"/><path class="cls-2" d="M35.41,48.17H34.06V37.41a6.06,6.06,0,0,0-12.12,0V48.17H20.59V37.41a7.41,7.41,0,0,1,14.82,0Z"/><path class="cls-2" d="M29,19.26H27a2.36,2.36,0,0,1-2.36-2.35v-.34H26v.34a1,1,0,0,0,1,1h2a1,1,0,0,0,0-2H27a2.36,2.36,0,1,1,0-4.71h2a2.36,2.36,0,0,1,2.36,2.36v.33H30v-.33a1,1,0,0,0-1-1H27a1,1,0,1,0,0,2h2a2.36,2.36,0,1,1,0,4.71Z"/><rect class="cls-2" x="27.33" y="9.85" width="1.35" height="2.02"/><rect class="cls-2" x="27.33" y="18.59" width="1.35" height="2.02"/><rect class="cls-2" x="18.57" y="19.93" width="18.85" height="1.34"/><path class="cls-2" d="M33.54,21.09l-.93-1a6.66,6.66,0,0,0,2.12-4.89,6.73,6.73,0,1,0-13.46,0,6.66,6.66,0,0,0,2.12,4.89l-.93,1a8,8,0,0,1-2.54-5.86,8.08,8.08,0,0,1,16.16,0A8,8,0,0,1,33.54,21.09Z"/></g></g></svg>