<?xml version="1.0" encoding="utf-8"?>
<!-- Generator: Adobe Illustrator 22.1.0, SVG Export Plug-In . SVG Version: 6.00 Build 0)  -->
<svg version="1.1" id="Layer_1" xmlns="http://www.w3.org/2000/svg" xmlns:xlink="http://www.w3.org/1999/xlink" x="0px" y="0px"
	 viewBox="0 0 56 56" style="enable-background:new 0 0 56 56;" xml:space="preserve">
<style type="text/css">
	.st0{fill:none;}
	.st1{fill:#FFFFFF;}
</style>
<title>Real estateAsset 9</title>
<g id="Layer_2_1_">
	<g id="Layer_8">
		<rect class="st0" width="56" height="56"/>
		<polygon class="st1" points="45.5,48.8 10.5,48.8 10.5,26.7 7.1,26.7 7.1,25 20.2,15.5 21,16.6 8.9,25.3 11.8,25.3 11.8,47.5 
			44.2,47.5 44.2,25.3 47,25.3 35,16.6 35.8,15.5 48.9,25 48.9,26.7 45.5,26.7 		"/>
		<rect x="11.2" y="25.3" class="st1" width="33.7" height="1.3"/>
		<path class="st1" d="M35.4,48.2h-1.3V37.4c0-3.3-2.7-6.1-6.1-6.1c-3.3,0-6.1,2.7-6.1,6.1v10.8h-1.4V37.4c0-4.1,3.3-7.4,7.4-7.4
			s7.4,3.3,7.4,7.4V48.2z"/>
		<path class="st1" d="M29,19.3h-2c-1.3,0-2.4-1.1-2.4-2.4v-0.3H26v0.3c0,0.6,0.4,1,1,1h2c0.6,0,1-0.4,1-1s-0.4-1-1-1h-2
			c-1.3,0.1-2.4-0.9-2.5-2.2c-0.1-1.3,0.9-2.4,2.2-2.5c0.1,0,0.2,0,0.3,0h2c1.3,0,2.4,1.1,2.4,2.4l0,0v0.3H30v-0.3c0-0.6-0.4-1-1-1
			h-2c-0.6,0-1,0.4-1,1s0.4,1,1,1h2c1.3-0.1,2.4,0.9,2.5,2.2c0.1,1.3-0.9,2.4-2.2,2.5C29.2,19.3,29.1,19.3,29,19.3L29,19.3z"/>
		<rect x="27.3" y="9.9" class="st1" width="1.4" height="2"/>
		<rect x="27.3" y="18.6" class="st1" width="1.4" height="2"/>
		<rect x="18.6" y="19.9" class="st1" width="18.8" height="1.3"/>
		<path class="st1" d="M33.5,21.1l-0.9-1c1.4-1.3,2.1-3,2.1-4.9c0-3.7-3-6.7-6.7-6.7c-3.7,0-6.7,3-6.7,6.7c0,0,0,0,0,0
			c0,1.9,0.8,3.6,2.1,4.9l-0.9,1c-1.6-1.5-2.5-3.6-2.5-5.9c0-4.5,3.6-8.1,8.1-8.1c4.5,0,8.1,3.6,8.1,8.1
			C36.1,17.5,35.2,19.6,33.5,21.1z"/>
	</g>
</g>
</svg>
