<svg xmlns="http://www.w3.org/2000/svg" viewBox="0 0 56 56"><defs><style>.cls-1{fill:none;}.cls-2{fill:#0097d6;}</style></defs><title>SportsAsset 11</title><g id="Layer_2" data-name="Layer 2"><g id="Layer_10" data-name="Layer 10"><rect class="cls-1" width="56" height="56"/><path class="cls-2" d="M37,35.22l-4.89-2.29-2.57,5.55H27.79a2.7,2.7,0,1,0,0,5.4H31A3.19,3.19,0,0,0,33.87,42Zm-4.36,6.25A1.88,1.88,0,0,1,31,42.56H27.79a1.4,1.4,0,1,1,0-2.8h2.3a.46.46,0,0,0,.43-.27l2.25-4.84,2.52,1.18-1.83,3.94Z"/><path class="cls-2" d="M45.49,17.57a4.24,4.24,0,1,0-4.27-4.24h0A4.25,4.25,0,0,0,45.49,17.57Zm0-7.12a2.89,2.89,0,1,1-2.91,2.89,2.9,2.9,0,0,1,2.91-2.89Z"/><path class="cls-2" d="M30.43,27.5h0a2.55,2.55,0,0,0,2.1-1.05l.09-.11,1.51-3.28h2.52l-2.59,5.6a3.2,3.2,0,0,0,1.51,4.2l7.59,3.67v7.69a2.71,2.71,0,0,0,5.41,0V34.79A2.81,2.81,0,0,0,47,32.27l-5.35-2.59,1.72-3.75.91.93a3.18,3.18,0,0,0,2.24.93H49a2.72,2.72,0,1,0,0-5.43H47.43L45.06,20a1.69,1.69,0,0,0-.49-.35l-4-1.86a1.91,1.91,0,0,0-.75-.17h-8a1.82,1.82,0,0,0-1.65,1.05l-2.63,5.73a1.72,1.72,0,0,0,.16,1.67A3.39,3.39,0,0,0,30.43,27.5ZM28.78,25l2.63-5.73a.52.52,0,0,1,.46-.3h8a.46.46,0,0,1,.2,0L44,20.85a.38.38,0,0,1,.13.09l2.63,2.6a.43.43,0,0,0,.32.14H49a1.39,1.39,0,0,1,1.4,1.4v.07A1.42,1.42,0,0,1,49,26.45H46.53a1.83,1.83,0,0,1-1.32-.52l-1.77-1.77a.46.46,0,0,0-.65,0,.45.45,0,0,0-.1.14l-2.58,5.59a.47.47,0,0,0,.22.62l6.09,2.95a1.48,1.48,0,0,1,.84,1.33v9.43a1.4,1.4,0,0,1-1.39,1.41h0a1.4,1.4,0,0,1-1.39-1.41h0V36a.48.48,0,0,0-.27-.42l-5.48-2.66-2.58-1.26a1.87,1.87,0,0,1-.88-2.47l.44-1,2.69-5.84a.48.48,0,0,0-.28-.61l-.13,0H33.59a.46.46,0,0,0-.43.27l-1.67,3.64c-.93,1.2-3-.09-2.72-.72Z"/><polygon class="cls-2" points="4.25 33.85 4.25 35.15 7.93 35.15 14.06 35.15 18.43 35.15 21.06 35.15 21.06 33.85 4.25 33.85"/><polygon class="cls-2" points="7.4 36.97 7.4 38.27 10.39 38.27 15.37 38.27 18.93 38.27 21.06 38.27 21.06 36.97 7.4 36.97"/><polygon class="cls-2" points="11.61 40.1 11.61 41.4 13.68 41.4 17.12 41.4 19.59 41.4 21.06 41.4 21.06 40.1 11.61 40.1"/></g></g></svg>