<?xml version="1.0" encoding="utf-8"?>
<!-- Generator: Adobe Illustrator 22.1.0, SVG Export Plug-In . SVG Version: 6.00 Build 0)  -->
<svg version="1.1" id="Layer_1" xmlns="http://www.w3.org/2000/svg" xmlns:xlink="http://www.w3.org/1999/xlink" x="0px" y="0px"
	 viewBox="0 0 56 56" style="enable-background:new 0 0 56 56;" xml:space="preserve">
<style type="text/css">
	.st0{fill:none;}
	.st1{fill:#FFFFFF;}
</style>
<title>SportsAsset 11</title>
<g id="Layer_2_1_">
	<g id="Layer_10">
		<rect class="st0" width="56" height="56"/>
		<path class="st1" d="M37,35.2l-4.9-2.3l-2.6,5.5h-1.8c-1.5,0-2.7,1.2-2.7,2.7s1.2,2.7,2.7,2.7H31c1.2,0,2.4-0.7,2.9-1.9L37,35.2z
			 M32.6,41.5c-0.3,0.6-0.9,1.1-1.6,1.1h-3.2c-0.8,0-1.4-0.6-1.4-1.4s0.6-1.4,1.4-1.4c0,0,0,0,0,0h2.3c0.2,0,0.4-0.1,0.4-0.3
			l2.3-4.8l2.5,1.2l-1.8,3.9L32.6,41.5z"/>
		<path class="st1" d="M45.5,17.6c2.3,0,4.2-1.9,4.2-4.3c0-2.3-1.9-4.2-4.3-4.2c-2.3,0-4.2,1.9-4.2,4.2l0,0
			C41.2,15.7,43.1,17.6,45.5,17.6C45.5,17.6,45.5,17.6,45.5,17.6z M45.5,10.4c1.6,0,2.9,1.3,2.9,2.9c0,1.6-1.3,2.9-2.9,2.9
			c-1.6,0-2.9-1.3-2.9-2.9C42.6,11.7,43.9,10.4,45.5,10.4C45.5,10.4,45.5,10.4,45.5,10.4z"/>
		<path class="st1" d="M30.4,27.5L30.4,27.5c0.8,0,1.6-0.4,2.1-1l0.1-0.1l1.5-3.3h2.5l-2.6,5.6c-0.7,1.6,0,3.4,1.5,4.2l7.6,3.7v7.7
			c0.1,1.5,1.4,2.6,2.9,2.5c1.4-0.1,2.5-1.2,2.5-2.5v-9.4c0-1.1-0.6-2-1.6-2.5l-5.3-2.6l1.7-3.8l0.9,0.9c0.6,0.6,1.4,0.9,2.2,0.9H49
			c1.5,0.1,2.8-1.1,2.9-2.6c0.1-1.5-1.1-2.8-2.6-2.9c-0.1,0-0.2,0-0.3,0h-1.6L45.1,20c-0.1-0.1-0.3-0.3-0.5-0.4l-4-1.9
			c-0.2-0.1-0.5-0.2-0.8-0.2h-8c-0.7,0-1.4,0.4-1.6,1l-2.6,5.7c-0.2,0.5-0.2,1.2,0.2,1.7C28.3,27,29.3,27.5,30.4,27.5z M28.8,25
			l2.6-5.7c0.1-0.2,0.3-0.3,0.5-0.3h8c0.1,0,0.1,0,0.2,0l3.9,1.9c0,0,0.1,0.1,0.1,0.1l2.6,2.6c0.1,0.1,0.2,0.1,0.3,0.1H49
			c0.8,0,1.4,0.6,1.4,1.4c0,0,0,0,0,0v0.1c-0.1,0.7-0.7,1.3-1.4,1.3h-2.5c-0.5,0-1-0.2-1.3-0.5l-1.8-1.8c-0.2-0.2-0.5-0.2-0.7,0
			c0,0-0.1,0.1-0.1,0.1l-2.6,5.6c-0.1,0.2,0,0.5,0.2,0.6l6.1,2.9c0.5,0.2,0.8,0.8,0.8,1.3v9.4c0,0.8-0.6,1.4-1.4,1.4c0,0,0,0,0,0
			l0,0c-0.8,0-1.4-0.6-1.4-1.4c0,0,0,0,0,0l0,0V36c0-0.2-0.1-0.3-0.3-0.4l-5.5-2.7l-2.6-1.3c-0.9-0.4-1.3-1.5-0.9-2.5l0.4-1l2.7-5.8
			c0.1-0.2,0-0.5-0.3-0.6H38h-4.4c-0.2,0-0.4,0.1-0.4,0.3l-1.7,3.6C30.6,26.9,28.5,25.6,28.8,25L28.8,25z"/>
		<polygon class="st1" points="4.3,33.8 4.3,35.2 7.9,35.2 14.1,35.2 18.4,35.2 21.1,35.2 21.1,33.8 		"/>
		<polygon class="st1" points="7.4,37 7.4,38.3 10.4,38.3 15.4,38.3 18.9,38.3 21.1,38.3 21.1,37 		"/>
		<polygon class="st1" points="11.6,40.1 11.6,41.4 13.7,41.4 17.1,41.4 19.6,41.4 21.1,41.4 21.1,40.1 		"/>
	</g>
</g>
</svg>
