<svg xmlns="http://www.w3.org/2000/svg" viewBox="0 0 56 56"><defs><style>.cls-1{fill:none;}.cls-2{fill:#0097d6;stroke:#fff;stroke-miterlimit:10;stroke-width:0.5px;}</style></defs><title>TransportationAsset 10</title><g id="Layer_2" data-name="Layer 2"><g id="Layer_9" data-name="Layer 9"><rect class="cls-1" width="56" height="56"/><path class="cls-2" d="M20.31,25.58a1,1,0,1,0,0-2H8.53a1,1,0,1,0,0,2Z"/><path class="cls-2" d="M4.43,29.26a1,1,0,0,0,1,1h5v4.83a3,3,0,0,0,3,3h.41a4.67,4.67,0,0,0,9.15,0H38.93a4.67,4.67,0,0,0,9.15,0h1a2.52,2.52,0,0,0,2.53-2.51V28.5A2.57,2.57,0,0,0,49.3,26l-2.53-4.58a4.09,4.09,0,0,0-3.54-2.06h-6V17.18a3,3,0,0,0-3-3H13.48a3,3,0,0,0-3,3v1.76h-5a1,1,0,1,0,0,2H17.23a1,1,0,0,0,0-2H12.47V17.18a1,1,0,0,1,1-1H34.17a1,1,0,0,1,1,1V36.1H23a4.66,4.66,0,0,0-9,0h-.46a1,1,0,0,1-1-1V30.26h4.76a1,1,0,1,0,0-2H5.44A1,1,0,0,0,4.43,29.26Zm39.1,10.56a2.67,2.67,0,1,1,2.63-2.71v.1a2.62,2.62,0,0,1-2.63,2.61Zm-.3-18.46A2,2,0,0,1,45,22.41L47,26H37.21V21.36Zm-6,6.64H49a.46.46,0,0,1,.51.4v7.2a.5.5,0,0,1-.51.5H48a4.64,4.64,0,0,0-4.5-3.57A4.7,4.7,0,0,0,39,36.1H37.21ZM18.49,34.54a2.67,2.67,0,1,1-2.68,2.67,2.68,2.68,0,0,1,2.68-2.67Z"/></g></g></svg>