<?xml version="1.0" encoding="utf-8"?>
<!-- Generator: Adobe Illustrator 22.1.0, SVG Export Plug-In . SVG Version: 6.00 Build 0)  -->
<svg version="1.1" id="Layer_1" xmlns="http://www.w3.org/2000/svg" xmlns:xlink="http://www.w3.org/1999/xlink" x="0px" y="0px"
	 viewBox="0 0 56 56" style="enable-background:new 0 0 56 56;" xml:space="preserve">
<style type="text/css">
	.st0{fill:none;}
	.st1{fill:#FFFFFF;stroke:#0097D6;stroke-width:0.5;stroke-miterlimit:10;}
</style>
<title>TransportationAsset 10</title>
<g id="Layer_2_1_">
	<g id="Layer_9">
		<rect class="st0" width="56" height="56"/>
		<path class="st1" d="M20.3,25.6c0.6,0,1-0.4,1-1s-0.4-1-1-1H8.5c-0.6,0-1,0.4-1,1s0.4,1,1,1H20.3z"/>
		<path class="st1" d="M4.4,29.3c0,0.6,0.4,1,1,1h5v4.8c0,1.7,1.3,3,3,3h0.4c0.5,2.5,3,4.2,5.5,3.6c1.8-0.4,3.3-1.8,3.6-3.6h15.9
			c0.5,2.5,3,4.2,5.5,3.6c1.8-0.4,3.3-1.8,3.6-3.6h1c1.4,0,2.5-1.1,2.5-2.5c0,0,0,0,0,0v-7.1c0-1.3-1-2.4-2.3-2.5l-2.5-4.6
			c-0.7-1.3-2.1-2.1-3.5-2.1h-6v-2.2c0-1.7-1.3-3-3-3H13.5c-1.7,0-3,1.3-3,3v1.8h-5c-0.6,0-1,0.4-1,1s0.4,1,1,1h11.8
			c0.6,0,1-0.4,1-1s-0.4-1-1-1h-4.8v-1.8c0-0.6,0.4-1,1-1h20.7c0.6,0,1,0.4,1,1v18.9H23c-0.7-2.5-3.2-4-5.7-3.3
			c-1.6,0.4-2.9,1.7-3.3,3.3h-0.5c-0.6,0-1-0.4-1-1v-4.8h4.8c0.6,0,1-0.4,1-1s-0.4-1-1-1H5.4C4.9,28.3,4.4,28.7,4.4,29.3
			C4.4,29.3,4.4,29.3,4.4,29.3z M43.5,39.8c-1.5,0-2.7-1.2-2.7-2.6s1.2-2.7,2.6-2.7c1.5,0,2.7,1.2,2.7,2.6v0.1
			C46.2,38.7,45,39.8,43.5,39.8C43.5,39.8,43.5,39.8,43.5,39.8z M43.2,21.4c0.7,0,1.4,0.4,1.8,1l2,3.6h-9.8v-4.6H43.2z M37.2,28H49
			c0.3,0,0.5,0.1,0.5,0.4v7.2c0,0.3-0.2,0.5-0.5,0.5c0,0,0,0,0,0h-1c-0.5-2.1-2.4-3.6-4.5-3.6c-2.1,0-4,1.5-4.5,3.6h-1.8L37.2,28z
			 M18.5,34.5c1.5,0,2.7,1.2,2.7,2.7c0,1.5-1.2,2.7-2.7,2.7c-1.5,0-2.7-1.2-2.7-2.7C15.8,35.7,17,34.5,18.5,34.5z"/>
	</g>
</g>
</svg>
