<svg xmlns="http://www.w3.org/2000/svg" viewBox="0 0 123.91 95.72"><defs><style>.cls-1{font-size:16px;font-family:Roboto-Regular, Roboto;}.cls-1,.cls-5{fill:#0097d6;}.cls-2{letter-spacing:-0.01em;}.cls-3{letter-spacing:-0.02em;}.cls-4{letter-spacing:-0.01em;}.cls-5{stroke:#0097d6;stroke-miterlimit:10;stroke-width:0.5px;}</style></defs><title>fruit_vegetablepapercontainers_hover_1</title><g id="Layer_2" data-name="Layer 2"><g id="Layer_1-2" data-name="Layer 1"><text class="cls-1" transform="translate(0.97 72.18)"><tspan class="cls-2">F</tspan><tspan x="8.63" y="0">ruit &amp; </tspan><tspan class="cls-3" x="50.66" y="0">V</tspan><tspan x="60.44" y="0">egetable</tspan><tspan class="cls-4" x="-0.97" y="19.2">P</tspan><tspan x="9.12" y="19.2">aper Containers</tspan></text><path class="cls-5" d="M42.55,46.53a.59.59,0,0,1-.59-.59V14.67a.59.59,0,1,1,1.18,0V45.94A.59.59,0,0,1,42.55,46.53Z"/><path class="cls-5" d="M54.86,52a.6.6,0,0,1-.24,0L42.3,46.47a.61.61,0,0,1-.33-.39.59.59,0,0,1,.11-.51l5.25-6.84a.6.6,0,0,1,.51-.23.63.63,0,0,1,.47.3l6,10.39V9.86L49.21,18.7a.59.59,0,0,1-.36.28.62.62,0,0,1-.46-.07l-6.15-3.73a.63.63,0,0,1-.28-.52.58.58,0,0,1,.3-.5l12.3-7h0a.29.29,0,0,1,.13,0h0a.46.46,0,0,1,.26,0H55l23.35,6.4a.6.6,0,0,1,.42.73.61.61,0,0,1-.73.41L55.45,8.41V50.68l22.76-4.86a.6.6,0,0,1,.7.46.59.59,0,0,1-.46.7L55,52h-.12ZM43.47,45.7l10,4.43-5.73-10Zm.24-31,4.78,2.9,4.78-8.37Z"/><path class="cls-5" d="M78.22,32.84a.58.58,0,0,1-.59-.59V14a.59.59,0,0,1,1.18,0V32.25A.58.58,0,0,1,78.22,32.84Z"/><path class="cls-5" d="M78.22,46.53a.59.59,0,0,1-.59-.59V32.25a.59.59,0,0,1,1.18,0V45.94A.59.59,0,0,1,78.22,46.53Z"/><path class="cls-5" d="M70.08,12.4l-.15,0a.58.58,0,0,1-.42-.72L71,6.1a.61.61,0,0,1,.27-.36l2.07-1.18a.47.47,0,0,1,.15-.06l7.23-1.76a1.41,1.41,0,0,0-.19-1.24L71.86,3.61l-1.77,1L68.67,11a.59.59,0,0,1-.7.45.6.6,0,0,1-.45-.71L69,4.1a.6.6,0,0,1,.28-.38l2.07-1.18.15-.06L80.59.27a.6.6,0,0,1,.56.15,2.61,2.61,0,0,1,.5,3.11.6.6,0,0,1-.37.29L73.84,5.63l-1.78,1L70.65,12A.59.59,0,0,1,70.08,12.4Z"/><path class="cls-5" d="M71.56,6.84a.63.63,0,0,1-.43-.17l-2-2a.6.6,0,0,1,.64-1l1.86.73-.54-1.1a.6.6,0,0,1,.27-.79.59.59,0,0,1,.79.27l1.21,2.46a.59.59,0,0,1-.74.81l-.72-.27.06,0a.6.6,0,0,1,0,.84A.57.57,0,0,1,71.56,6.84Z"/><path class="cls-5" d="M75.6,28h0l-16.65-.7a.58.58,0,0,1-.56-.59v-12a.57.57,0,0,1,.21-.45.59.59,0,0,1,.48-.13l16.65,3a.59.59,0,1,1-.2,1.16l-16-2.86V26.11l16.08.67a.59.59,0,0,1,0,1.18Z"/><path class="cls-5" d="M75.6,28a.59.59,0,0,1-.59-.59V17.66a.59.59,0,0,1,1.18,0v9.71A.6.6,0,0,1,75.6,28Z"/></g></g></svg>