<svg xmlns="http://www.w3.org/2000/svg" viewBox="0 0 131.12 91.35"><defs><style>.cls-1{font-size:16px;fill:#0097d6;font-family:Roboto-Regular, Roboto;}.cls-2{letter-spacing:-0.01em;}.cls-3{fill:none;stroke:#0097d6;stroke-miterlimit:10;stroke-width:2px;}</style></defs><title>fruit_vegetablepapercontainers_1</title><g id="Layer_2" data-name="Layer 2"><g id="Layer_1-2" data-name="Layer 1"><text class="cls-1" transform="translate(18.54 67.81)"><tspan class="cls-2">F</tspan><tspan x="8.63" y="0">ruit Drinks- </tspan><tspan x="-18.54" y="19.2">Plastic Containers</tspan></text><line class="cls-3" x1="65.56" y1="34.48" x2="65.56" y2="42.18"/><line class="cls-3" x1="62.36" y1="34.48" x2="62.71" y2="42.18"/><line class="cls-3" x1="68.76" y1="34.48" x2="68.4" y2="42.18"/><line class="cls-3" x1="71.96" y1="34.48" x2="71.25" y2="42.18"/><line class="cls-3" x1="59.16" y1="34.48" x2="59.87" y2="42.18"/><path class="cls-3" d="M75.87,1H55.25c-2.14,0-2.14,3.35-2.14,3.35V6.69H78V4.35S78,1,75.87,1Z"/><path class="cls-3" d="M53.11,6.69h26A2.42,2.42,0,0,1,81.56,9v2h-32V10A3.45,3.45,0,0,1,53.11,6.69Z"/><polyline class="cls-3" points="51.82 11.04 57.74 42.51 65.56 42.51 73.38 42.51 79.3 11.04"/></g></g></svg>