<svg xmlns="http://www.w3.org/2000/svg" viewBox="0 0 108.55 104.43"><defs><style>.cls-1{font-size:16px;font-family:Roboto-Regular, Roboto;}.cls-1,.cls-3{fill:#fff;}.cls-2{letter-spacing:-0.01em;}</style></defs><title>macaroni_cappellinietc.._hover</title><g id="Layer_2" data-name="Layer 2"><g id="Layer_1-2" data-name="Layer 1"><text class="cls-1" transform="translate(11.55 80.89)">Maca<tspan class="cls-2" x="39.87" y="0">r</tspan><tspan x="45.31" y="0">oni &amp; </tspan><tspan x="-11.55" y="19.2">Cappellini, etc..</tspan></text><path class="cls-3" d="M72.28,51.12V5.88l.79-2A2.85,2.85,0,0,0,70.43,0H38.12a2.84,2.84,0,0,0-2.64,3.91l.78,2V51.12l-.78,2A2.84,2.84,0,0,0,38.12,57H70.43a2.85,2.85,0,0,0,2.64-3.9ZM37.34,2.32a.92.92,0,0,1,.78-.42H70.43a1,1,0,0,1,.78.42.92.92,0,0,1,.09.88l-.61,1.55H37.86L37.24,3.2A.92.92,0,0,1,37.34,2.32ZM59.52,41.8c-11.77,0-21.36-7.67-21.36-17.1V22.25a17.31,17.31,0,0,0,10.54,3.4,25.48,25.48,0,0,0,17.69-7.84C67.9,16.31,69.14,15,70.17,14l.21-.23V41.8Zm10.86,1.9v6.65H38.16V32.22C41.74,39,50,43.7,59.52,43.7ZM38.16,19.77V6.65H70.38V11c-.46.47-1,1-1.58,1.63-1,1-2.26,2.33-3.75,3.83A23.59,23.59,0,0,1,48.7,23.75,14.94,14.94,0,0,1,38.16,19.77Zm1,35a1,1,0,0,0,0,.3h-1a.91.91,0,0,1-.78-.41.94.94,0,0,1-.1-.89l.62-1.55H40Zm4.69.3H41.06l.85-2.55a.75.75,0,0,0,0-.3h1.91V55.1Zm3.79,0H45.75V52.25h1.89Zm3.79,0H49.54V52.25h1.89Zm3.79,0H53.33V52.25h1.89Zm3.79,0H57.12V52.25H59Zm3.79,0H60.91V52.25H62.8Zm1.9,0V52.25h1.9a1,1,0,0,0,0,.3l.85,2.55Zm6.51-.41h0a.92.92,0,0,1-.78.41h-1a1,1,0,0,0,0-.3l-.85-2.55h2.15l.61,1.55A.94.94,0,0,1,71.21,54.69Z"/><path class="cls-3" d="M60,25.65H59a8.55,8.55,0,0,0-8.53,8.55v1.9c0,1.6,1.67,2.85,3.79,2.85s3.8-1.25,3.8-2.85V33.73a1.41,1.41,0,0,1,.7-1.24,1.46,1.46,0,0,1,1.43,0,1.41,1.41,0,0,1,.7,1.24V36.1c0,1.6,1.67,2.85,3.8,2.85s3.79-1.25,3.79-2.85V34.2A8.55,8.55,0,0,0,60,25.65Zm-5.69,11.4c-1.15,0-1.89-.56-1.89-.95s.74-1,1.89-1,1.9.56,1.9,1S55.43,37.05,54.27,37.05Zm10.43,0c-1.16,0-1.9-.56-1.9-.95s.74-1,1.9-1,1.89.56,1.89,1S65.85,37.05,64.7,37.05Zm-1.9-3.41a3.32,3.32,0,0,0-6.63,0,4.86,4.86,0,0,0-3.76,0A6.65,6.65,0,0,1,59,27.55h1a6.65,6.65,0,0,1,6.6,6.07A4.86,4.86,0,0,0,62.8,33.64Z"/><path class="cls-3" d="M45.74,42.75H41a1,1,0,0,0-.68.28,1,1,0,0,0-.27.67v3.8a1,1,0,0,0,.27.67,1,1,0,0,0,.68.28h4.73a.94.94,0,0,0,.95-1V43.7a1,1,0,0,0-.27-.67A1,1,0,0,0,45.74,42.75Zm-1,3.8H42v-1.9h2.83Z"/><path class="cls-3" d="M42,11.4h8.53a1,1,0,0,0,0-1.9H42a1,1,0,0,0,0,1.9Z"/><path class="cls-3" d="M54.27,11.4H60a1,1,0,0,0,0-1.9H54.27a1,1,0,1,0,0,1.9Z"/><path class="cls-3" d="M42,15.2h3.79a.95.95,0,1,0,0-1.9H42a.95.95,0,1,0,0,1.9Z"/><path class="cls-3" d="M56.17,13.3H49.53a1,1,0,1,0,0,1.9h6.64a1,1,0,0,0,0-1.9Z"/><path class="cls-3" d="M42.9,17.1H42A.95.95,0,1,0,42,19h.95a1,1,0,0,0,0-1.9Z"/><path class="cls-3" d="M54.28,18.05a1,1,0,0,0-1-.95H46.69a1,1,0,0,0,0,1.9h6.64A1,1,0,0,0,54.28,18.05Z"/><path class="cls-3" d="M60.63,13.58l-.14-.12a.53.53,0,0,0-.17-.08.48.48,0,0,0-.18-.06.77.77,0,0,0-.37,0,.64.64,0,0,0-.18.06.48.48,0,0,0-.16.08l-.14.12a1,1,0,0,0-.21.31,1.11,1.11,0,0,0-.08.36c0,.06,0,.13,0,.19l.06.17.09.17a1.58,1.58,0,0,0,.12.15l.14.11a.35.35,0,0,0,.16.08.64.64,0,0,0,.18.06.77.77,0,0,0,.37,0,.6.6,0,0,0,.19-.06.4.4,0,0,0,.16-.08l.14-.11.12-.15.09-.17a1.09,1.09,0,0,0,0-.17.62.62,0,0,0,0-.19.89.89,0,0,0-.07-.36A1,1,0,0,0,60.63,13.58Z"/></g></g></svg>