<?xml version="1.0" encoding="utf-8"?>
<!-- Generator: Adobe Illustrator 22.1.0, SVG Export Plug-In . SVG Version: 6.00 Build 0)  -->
<svg version="1.1" xmlns="http://www.w3.org/2000/svg" xmlns:xlink="http://www.w3.org/1999/xlink" x="0px" y="0px"
	 viewBox="0 0 56 56" style="enable-background:new 0 0 56 56;" xml:space="preserve">
<style type="text/css">
	.st0{display:none;}
	.st1{display:inline;}
	.st2{fill:none;}
	.st3{fill:#0097D6;stroke:#FFFFFF;stroke-width:0.5;stroke-miterlimit:10;}
	.st4{fill:#0097D6;stroke:#FFFFFF;stroke-width:0.8486;stroke-miterlimit:10;}
	.st5{fill:none;stroke:#0097D6;stroke-width:1.2577;stroke-miterlimit:10;}
	.st6{fill:none;stroke:#0097D6;stroke-width:1.2577;stroke-linejoin:round;}
	.st7{fill:#0097D6;stroke:#FFFFFF;stroke-width:0.4528;stroke-miterlimit:10;}
	.st8{fill:#0097D6;}
	.st9{fill:#0097D6;stroke:#FFFFFF;stroke-width:0.25;stroke-miterlimit:10;}
	.st10{fill:#0097D6;stroke:#FFFFFF;stroke-width:0.6316;stroke-miterlimit:10;}
	.st11{fill:#0097D6;stroke:#FFFFFF;stroke-miterlimit:10;}
	.st12{fill:#0097D6;stroke:#FFFFFF;stroke-width:0.75;stroke-miterlimit:10;}
	.st13{fill:none;stroke:#0097D6;stroke-width:1.5;stroke-linecap:round;stroke-linejoin:round;stroke-miterlimit:10;}
	.st14{display:inline;fill:#0097D6;}
	.st15{display:inline;fill:#0097D6;stroke:#FFFFFF;stroke-width:0.5;stroke-miterlimit:10;}
	.st16{fill:none;stroke:#0097D6;stroke-width:1.5;stroke-miterlimit:10;}
	.st17{fill:#0097D6;stroke:#FFFFFF;stroke-width:0.4616;stroke-miterlimit:10;}
</style>
<g id="Layer_1" class="st0">
	<g class="st1">
		<g>
			<rect class="st2" width="56" height="56"/>
		</g>
		<g>
			<g>
				<path class="st3" d="M15.2,46.9C9,46.9,4,41.9,4,35.7s5-11.2,11.2-11.2c6.2,0,11.2,5,11.2,11.2S21.3,46.9,15.2,46.9z M15.2,26.2
					c-5.2,0-9.5,4.3-9.5,9.5c0,5.2,4.3,9.5,9.5,9.5s9.5-4.3,9.5-9.5C24.7,30.5,20.4,26.2,15.2,26.2z"/>
			</g>
			<g>
				<path class="st3" d="M15.2,42.5c-3.7,0-6.8-3-6.8-6.8c0-3.7,3-6.8,6.8-6.8s6.8,3,6.8,6.8C22,39.4,18.9,42.5,15.2,42.5z
					 M15.2,30.6c-2.8,0-5.1,2.3-5.1,5.1c0,2.8,2.3,5.1,5.1,5.1c2.8,0,5.1-2.3,5.1-5.1C20.3,32.9,18,30.6,15.2,30.6z"/>
			</g>
			<g>
				<path class="st3" d="M42.4,43.4c-1.7,0-3-1.3-3-3c0-1.7,1.3-3,3-3c1.7,0,3,1.3,3,3C45.4,42.1,44,43.4,42.4,43.4z M42.4,39.1
					c-0.7,0-1.3,0.6-1.3,1.3c0,0.7,0.6,1.3,1.3,1.3c0.7,0,1.3-0.6,1.3-1.3C43.7,39.7,43.1,39.1,42.4,39.1z"/>
			</g>
			<g>
				<path class="st3" d="M37,39.8h-9.9l0.3-1c0.2-1,0.4-2,0.4-3.1c0-7-5.7-12.6-12.6-12.6v-1.7c7.9,0,14.3,6.4,14.3,14.3
					c0,0.8-0.1,1.6-0.2,2.4H37L37,39.8L37,39.8z"/>
			</g>
			<g>
				<path class="st3" d="M42.4,46.9c-3.6,0-6.5-2.9-6.5-6.5c0-3.6,2.9-6.5,6.5-6.5c3.6,0,6.5,2.9,6.5,6.5C48.9,44,46,46.9,42.4,46.9
					z M42.4,35.6c-2.6,0-4.8,2.1-4.8,4.8c0,2.6,2.1,4.8,4.8,4.8c2.6,0,4.8-2.1,4.8-4.8C47.2,37.8,45,35.6,42.4,35.6z"/>
			</g>
			<g>
				<polygon class="st3" points="33.3,26.6 30.7,15.1 17.7,15.1 17.7,22.2 16,22.2 16,13.4 32.1,13.4 35,26.2 				"/>
			</g>
			<g>
				<path class="st3" d="M31.3,15.1H18.1c-1.1,0-2-0.9-2-2s0.9-2,2-2h13.2c1.1,0,2,0.9,2,2C33.3,14.2,32.4,15.1,31.3,15.1z
					 M18.1,12.7c-0.2,0-0.3,0.2-0.3,0.3c0,0.2,0.2,0.3,0.3,0.3h13.2c0.2,0,0.3-0.2,0.3-0.3s-0.2-0.3-0.3-0.3H18.1z"/>
			</g>
			<g>
				<polygon class="st3" points="52,39.8 48.4,39.8 48.4,38.1 50.3,38.1 50.3,29.7 35,27.4 35,36.5 29.3,36.5 29.3,34.9 33.3,34.9 
					33.3,25.4 52,28.3 				"/>
			</g>
			<g>
				<path class="st3" d="M41.1,28.3l-5.1-0.8V16.8h5.1V28.3z M37.6,26.1l1.8,0.3v-7.9h-1.8V26.1z"/>
			</g>
			<g>
				<polygon class="st3" points="39.3,17.6 37.7,17.6 37.7,12.8 40.7,9.1 42,10.2 39.3,13.4 				"/>
			</g>
			<g>
				<polygon class="st3" points="50.8,36.9 47.2,35.3 47.2,30.8 51.2,30.8 51.2,32.5 48.9,32.5 48.9,34.2 51.5,35.4 				"/>
			</g>
		</g>
	</g>
</g>
<g id="Layer_2" class="st0">
	<g class="st1">
		<g>
			<rect class="st2" width="56" height="56"/>
		</g>
		<path class="st3" d="M49.7,48.4v-6.1v-1.4v-6.1v-0.7h0V10.4h-1.4v15.5h-6.1v-7.5h-1.4v15h-6.1v-3.8h-1.4v4.5h0v6.8h-6.1v-7h-1.4v7
			h0v7.5h-1.4v-3.8h-4.7V16h13.7v2.3h-0.9v1.4h0.9v2.3l0,0c-0.1,0.8-0.7,1.4-1.5,1.4c-0.8,0-1.5-0.7-1.5-1.5c0-0.3,0.1-0.6,0.2-0.8
			l-1.2-0.8c-0.3,0.5-0.5,1-0.5,1.6c0,1.6,1.3,2.9,2.9,2.9c1.5,0,2.8-1.1,2.9-2.7l-0.8-0.1h0.9v-2.3h1v-1.4h-1V16h0.5v-1.4h-0.8
			l-14.8-5V6.2h-8v3.3h-0.7l-6.4,5.2H4.5v0l0,0l0,0V16h7.1h0v28.7H6.8v3.8H4.5v1.4h21.2h7.5h1.4h7.5h9.4v-1.4H49.7z M12.9,17
			l4.9,4.9l-4.9,4.9V17z M12.9,10.9h5.2v3.8h-5.2V10.9z M18.1,32.2l-4.2-4.2l4.2-4.2V32.2z M18.1,20.2L13.9,16h4.2V20.2z M12.9,29
			l4.7,4.7l-4.7,4.7V29z M18.1,35.1v8.5l-4.2-4.2L18.1,35.1z M29.8,14.6H19.5v-3.5L29.8,14.6z M12.9,7.6h5.2v1.9h-5.2V7.6z
			 M6.7,14.6l4.6-3.8h0.2v3.8H6.7z M12.9,40.5l4.2,4.2h-4.2L12.9,40.5z M8.2,46.1h14.6v2.3H8.2V46.1z M48.3,48.4h-6.1v-6.1l0,0h6.1
			V48.4z M48.3,40.9h-6.1v-6.1h6.1V40.9z M42.1,27.3h6.1v6.1h-6.1V27.3z M34.6,34.8h6.1v6.1h-6.1V34.8z M27.1,48.4v-6.1h6.1l0,0v6.1
			H27.1z M34.6,42.3h6.1v6.1h-6.1V42.3z"/>
	</g>
</g>
<g id="Layer_3" class="st0">
	<g class="st1">
		<g>
			<rect class="st2" width="56" height="56"/>
		</g>
		<g>
			<path class="st3" d="M5.6,51.3c0.5,0,0.8-0.4,0.8-0.8v-3.3h9.9v1.7c0,1.4,1.1,2.5,2.5,2.5h1.7c0.5,0,0.8-0.4,0.8-0.8v-8.3
				c0-1.8-1.5-3.3-3.3-3.3h-2.5v-1.7h5.8c0,1.5,1,2.8,2.5,3.2v10c0,0.5,0.4,0.8,0.8,0.8h6.6c0.5,0,0.8-0.4,0.8-0.8v-10
				c1.5-0.4,2.5-1.7,2.5-3.2h5.8v1.7h-2.5c-1.8,0-3.3,1.5-3.3,3.3v8.3c0,0.5,0.4,0.8,0.8,0.8h1.7c1.4,0,2.5-1.1,2.5-2.5v-1.7h9.9
				v3.3c0,0.5,0.4,0.8,0.8,0.8s0.8-0.4,0.8-0.8V33.2c0-1.8-1.5-3.3-3.3-3.3h0c0-1.4-0.6-2.8-1.6-3.8c-0.3-0.3-0.6-0.5-1-0.7
				c1.1-0.6,1.8-1.7,1.8-2.9v-1.7c0-1.8-1.5-3.3-3.3-3.3s-3.3,1.5-3.3,3.3v1.7c0,1.2,0.7,2.3,1.8,2.9c-1.3,0.8-2.3,2.2-2.5,3.7h-0.9
				c-1.4,0-2.5,1.1-2.5,2.5v0.8h-1.7c0-2.9-2-5.5-4.8-6.3c0.9-0.6,1.5-1.6,1.5-2.7v-1.7c0-1.8-1.5-3.3-3.3-3.3
				c-1.8,0-3.3,1.5-3.3,3.3v1.7c0,1.1,0.6,2.1,1.5,2.7c-2.8,0.8-4.8,3.4-4.8,6.3h-1.7v-0.8c0-1.4-1.1-2.5-2.5-2.5h-0.9
				c-0.3-1.5-1.2-2.9-2.5-3.7c1.1-0.6,1.8-1.7,1.8-2.9v-1.7c0-1.8-1.5-3.3-3.3-3.3s-3.3,1.5-3.3,3.3v1.7c0,1.2,0.7,2.3,1.8,2.9
				c-0.4,0.2-0.7,0.4-1,0.7c-1,1-1.6,2.4-1.6,3.8h0c-1.8,0-3.3,1.5-3.3,3.3v17.3C4.8,51,5.2,51.3,5.6,51.3z M23,37.3h0.8v1.4
				C23.3,38.4,23,37.9,23,37.3z M30.5,49.7h-5V37.3h5V49.7z M32.1,38.7v-1.4H33C33,37.9,32.7,38.4,32.1,38.7z M49.5,33.2v12.4h-9.9
				v-1.7h4.1c2.3,0,4.1-1.9,4.1-4.1v-8.3C48.8,31.5,49.5,32.2,49.5,33.2z M42.1,20.8c0-0.9,0.7-1.7,1.7-1.7s1.7,0.7,1.7,1.7v1.7
				c0,0.9-0.7,1.7-1.7,1.7s-1.7-0.7-1.7-1.7V20.8z M37.9,31.5c0-0.5,0.4-0.8,0.8-0.8h1.7c0.5,0,0.8-0.4,0.8-0.8
				c0-1.3,0.8-2.5,1.9-3.2c0.7-0.3,1.5,0,1.9,0.6c0.7,0.7,1.1,1.8,1.1,2.8v9.7c0,1.4-1.1,2.5-2.5,2.5h-5c-0.5,0-0.8,0.4-0.8,0.8v5.8
				c0,0.5-0.4,0.8-0.8,0.8h-0.8v-7.4c0-0.9,0.7-1.7,1.7-1.7h3.3c0.5,0,0.8-0.4,0.8-0.8v-6.6c0-0.5-0.4-0.8-0.8-0.8h-3.3V31.5z
				 M37.1,34h3.3v1.7H15.6V34H37.1z M26.3,21.6c0-0.9,0.7-1.7,1.7-1.7c0.9,0,1.7,0.7,1.7,1.7v1.7c0,0.9-0.7,1.7-1.7,1.7
				c-0.9,0-1.7-0.7-1.7-1.7V21.6z M28,27.4c2.7,0,5,2.2,5,5H23C23,29.6,25.3,27.4,28,27.4z M10.6,20.8c0-0.9,0.7-1.7,1.7-1.7
				s1.7,0.7,1.7,1.7v1.7c0,0.9-0.7,1.7-1.7,1.7s-1.7-0.7-1.7-1.7V20.8z M9.8,30c0-1,0.4-2.1,1.1-2.8c0.3-0.4,0.8-0.6,1.4-0.7
				c0.2,0,0.4,0,0.6,0.1c1.2,0.7,1.9,1.9,1.9,3.2c0,0.5,0.4,0.8,0.8,0.8h1.7c0.5,0,0.8,0.4,0.8,0.8v0.8h-3.3c-0.5,0-0.8,0.4-0.8,0.8
				v6.6c0,0.5,0.4,0.8,0.8,0.8h3.3c0.9,0,1.7,0.7,1.7,1.7v7.4h-0.8c-0.5,0-0.8-0.4-0.8-0.8v-5.8c0-0.5-0.4-0.8-0.8-0.8h-5
				c-1.4,0-2.5-1.1-2.5-2.5V30z M6.5,33.2c0-0.9,0.7-1.7,1.7-1.7v8.3c0,2.3,1.9,4.1,4.1,4.1h4.1v1.7H6.5V33.2z"/>
			<path class="st3" d="M31.9,9c0.3-2.1-1.3-4.1-3.4-4.3c-2.1-0.2-4.1,1.3-4.3,3.4c0,0.3,0,0.6,0,0.9c0,0,0,0.1,0,0.1l1.4,4.5
				c0.1,0.3,0.4,0.6,0.8,0.6h3.3c0.4,0,0.7-0.2,0.8-0.6l1.4-4.5C31.9,9.1,31.9,9,31.9,9z M30.2,8.7L29,12.5H27l-1.2-3.8
				c-0.1-1.2,0.8-2.3,2.1-2.4s2.3,0.8,2.4,2.1C30.2,8.5,30.2,8.6,30.2,8.7z"/>
			<path class="st3" d="M29.7,15h-3.3c-0.5,0-0.8,0.4-0.8,0.8s0.4,0.8,0.8,0.8h3.3c0.5,0,0.8-0.4,0.8-0.8S30.1,15,29.7,15z"/>
			<rect x="12.3" y="14.2" class="st3" width="1.7" height="1.7"/>
			<rect x="12.3" y="10.9" class="st3" width="1.7" height="1.7"/>
			<rect x="15.6" y="10.9" class="st3" width="1.7" height="1.7"/>
			<rect x="18.9" y="10.9" class="st3" width="1.7" height="1.7"/>
			<rect x="42.1" y="14.2" class="st3" width="1.7" height="1.7"/>
			<rect x="42.1" y="10.9" class="st3" width="1.7" height="1.7"/>
			<rect x="38.8" y="10.9" class="st3" width="1.7" height="1.7"/>
			<rect x="35.5" y="10.9" class="st3" width="1.7" height="1.7"/>
		</g>
	</g>
</g>
<g id="Layer_4" class="st0">
	<g class="st1">
		<g>
			<rect class="st2" width="56" height="56"/>
		</g>
		<path class="st4" d="M50.8,20.6l-22.4-7.6c-0.2-0.1-0.4-0.1-0.6,0L5.2,20.6c-0.4,0.1-0.7,0.5-0.7,0.9s0.3,0.8,0.7,1l6.4,2.5v10.2
			c0,0.4,0.2,0.7,0.6,0.9l12.4,6.3c2.1,1,4.6,1,6.8,0L43.8,36c0.4-0.2,0.6-0.5,0.6-0.9V25l4.5-1.7v9.9c0,0.6,0.5,1,1.1,1
			s1.1-0.5,1.1-1V22.4c0.3-0.2,0.5-0.6,0.5-0.9C51.5,21.1,51.2,20.7,50.8,20.6z M42.3,34.5l-11.8,6c-1.5,0.8-3.3,0.8-4.9,0l-11.8-6
			v-8.7l13.9,5.3h0.7l13.9-5.3V34.5z M28,29.1L8.6,21.6L28,15l19.4,6.6L28,29.1z"/>
	</g>
</g>
<g id="Layer_5" class="st0">
	<g class="st1">
		<g>
			<rect class="st2" width="56" height="56"/>
		</g>
		<g>
			<g>
				<g>
					<path class="st3" d="M46.8,23.1H9.2c-0.5,0-0.8-0.4-0.8-0.8V19c0-0.3,0.2-0.6,0.4-0.7l18.8-9.8c0.2-0.1,0.5-0.1,0.8,0l18.8,9.8
						c0.3,0.1,0.4,0.4,0.4,0.7v3.3C47.6,22.7,47.3,23.1,46.8,23.1z M10,21.5h36v-2l-18-9.4l-18,9.4V21.5z"/>
				</g>
				<g>
					<path class="st3" d="M46.8,47.6H9.2c-0.5,0-0.8-0.4-0.8-0.8v-3.3c0-0.5,0.4-0.8,0.8-0.8h37.6c0.5,0,0.8,0.4,0.8,0.8v3.3
						C47.6,47.2,47.3,47.6,46.8,47.6z M10,45.9h36v-1.6H10V45.9z"/>
				</g>
			</g>
			<g>
				<path class="st3" d="M15.7,44.3c-0.5,0-0.8-0.4-0.8-0.8V22.3c0-0.5,0.4-0.8,0.8-0.8s0.8,0.4,0.8,0.8v21.2
					C16.6,43.9,16.2,44.3,15.7,44.3z"/>
			</g>
			<g>
				<path class="st3" d="M10.8,44.3c-0.5,0-0.8-0.4-0.8-0.8V22.3c0-0.5,0.4-0.8,0.8-0.8s0.8,0.4,0.8,0.8v21.2
					C11.6,43.9,11.3,44.3,10.8,44.3z"/>
			</g>
			<g>
				<path class="st3" d="M45.2,44.3c-0.5,0-0.8-0.4-0.8-0.8V22.3c0-0.5,0.4-0.8,0.8-0.8s0.8,0.4,0.8,0.8v21.2
					C46,43.9,45.6,44.3,45.2,44.3z"/>
			</g>
			<g>
				<path class="st3" d="M40.3,44.3c-0.5,0-0.8-0.4-0.8-0.8V22.3c0-0.5,0.4-0.8,0.8-0.8s0.8,0.4,0.8,0.8v21.2
					C41.1,43.9,40.7,44.3,40.3,44.3z"/>
			</g>
			<g>
				<path class="st3" d="M28,39.8c-2.3,0-4.1-1.7-4.1-3.9c0-0.5,0.4-0.8,0.8-0.8s0.8,0.4,0.8,0.8c0,1.2,1.1,2.2,2.5,2.2
					s2.5-1,2.5-2.2s-1.1-2.2-2.5-2.2c-2.3,0-4.1-1.7-4.1-3.9S25.7,26,28,26s4.1,1.7,4.1,3.9c0,0.5-0.4,0.8-0.8,0.8s-0.8-0.4-0.8-0.8
					c0-1.2-1.1-2.2-2.5-2.2s-2.5,1-2.5,2.2c0,1.2,1.1,2.2,2.5,2.2c2.3,0,4.1,1.7,4.1,3.9S30.3,39.8,28,39.8z"/>
			</g>
			<g>
				<path class="st3" d="M28,41c-0.5,0-0.8-0.4-0.8-0.8V25.6c0-0.5,0.4-0.8,0.8-0.8s0.8,0.4,0.8,0.8v14.7C28.8,40.7,28.5,41,28,41z"
					/>
			</g>
		</g>
	</g>
</g>
<g id="Layer_6" class="st0">
	<g class="st1">
		<g>
			<rect class="st2" width="56" height="56"/>
		</g>
		<g>
			<path class="st5" d="M18.7,32.9c2.2,0.3,4.2-1.3,4.5-3.5c0.3-2.2-1.3-4.2-3.5-4.5c-2.2-0.3-4.2,1.3-4.5,3.5c0,0.3,0,0.7,0,1
				C15.4,31.2,16.9,32.7,18.7,32.9z M40.3,24.6H28.6c-1.3,0-2.4,1.1-2.4,2.4v7.6c0,1.3-1.1,2.4-2.4,2.4h-9.3c-1.3,0-2.4-1-2.4-2.4
				c0,0,0,0,0,0V22.8c0-1-0.7-1.8-1.7-1.8c0,0,0,0,0,0l0,0c-1,0-1.8,0.8-1.8,1.8v22.9c0,1,0.8,1.8,1.8,1.8h0l0,0
				c1,0,1.7-0.8,1.7-1.8v-1.6c0-1.1,0.9-2,2-2h27.7c1.1,0,2,0.9,2,2v1.5c0,1,0.7,1.8,1.7,1.8c0,0,0,0,0,0l0,0c1,0,1.8-0.8,1.8-1.8
				l0,0V31.6C47.3,27.7,44.2,24.6,40.3,24.6z"/>
			<path class="st6" d="M35.3,8.7l1.5,3c0,0.1,0.1,0.2,0.2,0.2l3.4,0.5c0.2,0,0.3,0.2,0.3,0.4c0,0.1,0,0.2-0.1,0.2l-2.4,2.4
				c-0.1,0.1-0.1,0.2-0.1,0.3l0.6,3.3c0,0.2-0.1,0.3-0.3,0.4c-0.1,0-0.1,0-0.2,0l-3-1.6c-0.1-0.1-0.2-0.1-0.3,0l-3,1.6
				c-0.2,0.1-0.4,0-0.4-0.1c0-0.1,0-0.1,0-0.2l0.6-3.3c0-0.1,0-0.2-0.1-0.3L29.5,13c-0.1-0.1-0.1-0.3,0-0.5c0.1-0.1,0.1-0.1,0.2-0.1
				l3.4-0.5c0.1,0,0.2-0.1,0.2-0.2l1.5-3c0.1-0.2,0.3-0.2,0.4-0.1C35.3,8.6,35.3,8.6,35.3,8.7z"/>
			<circle class="st5" cx="25" cy="12.9" r="1.2"/>
			<path class="st5" d="M13.9,11.7h7.6c0.7,0,1.2,0.5,1.2,1.2v0c0,0.7-0.5,1.2-1.2,1.2h-7.6c-0.7,0-1.2-0.5-1.2-1.2v0
				C12.6,12.2,13.2,11.7,13.9,11.7z"/>
			<circle class="st5" cx="25" cy="17.1" r="1.2"/>
			<path class="st5" d="M19.1,15.8h2.4c0.7,0,1.2,0.5,1.2,1.2v0c0,0.7-0.5,1.2-1.2,1.2h-2.4c-0.7,0-1.2-0.5-1.2-1.2v0
				C17.9,16.4,18.4,15.8,19.1,15.8z"/>
		</g>
	</g>
</g>
<g id="Layer_7" class="st0">
	<g class="st1">
		<g>
			<rect class="st2" width="56" height="56"/>
		</g>
		<g>
			<g transform="translate(-408.000000, -120.000000)">
				<g transform="translate(408.000000, 122.000000)">
					<path class="st7" d="M47.9,18.4c0,2.3-0.8,4.9-2.4,7.6c-1.7,3-4.2,6.2-7.4,9.4c-2.1,2.2-4.4,4.3-6.6,6.2
						c-0.8,0.7-1.5,1.3-2.2,1.8c-0.4,0.3-0.7,0.5-0.8,0.7c-0.3,0.2-0.8,0.2-1.1,0c-0.2-0.1-0.4-0.3-0.8-0.7
						c-0.7-0.5-1.4-1.1-2.2-1.8c-2.3-1.9-4.5-4-6.6-6.2c-3.1-3.2-5.6-6.4-7.4-9.4c-1.6-2.8-2.4-5.3-2.4-7.6C8.1,7.3,19,4.3,28,12.1
						C37,4.3,47.9,7.3,47.9,18.4z M28.3,42c0.6-0.5,1.4-1.1,2.1-1.8c2.2-1.9,4.4-3.9,6.5-6.1c3-3.1,5.5-6.2,7.1-9.1
						c1.4-2.5,2.2-4.8,2.2-6.8c0-9.5-9.4-11.9-17.5-4.3c-0.3,0.3-0.9,0.3-1.2,0C19.3,6.4,9.9,8.8,9.9,18.4c0,2,0.7,4.2,2.2,6.8
						c1.6,2.9,4.1,5.9,7.1,9.1c2.1,2.1,4.3,4.2,6.5,6.1c0.8,0.7,1.5,1.3,2.1,1.8c0.1,0.1,0.2,0.1,0.3,0.2
						C28.1,42.2,28.2,42.1,28.3,42z"/>
					<path class="st7" d="M20,18.6l3,5.6c0.3,0.6,1.2,0.6,1.6,0l1.8-3.2l2.1,3.2c0.2,0.3,0.5,0.4,0.8,0.4h2.3l1.9,6.9
						c0.2,0.9,1.4,0.9,1.7,0.1l2.4-7h11.4c0.5,0,0.9-0.4,0.9-0.9s-0.4-0.9-0.9-0.9h-12c-0.4,0-0.7,0.2-0.9,0.6l-1.6,4.8l-1.3-4.7
						c-0.1-0.4-0.5-0.7-0.9-0.7h-2.5l-2.6-4c-0.4-0.6-1.2-0.5-1.5,0l-1.7,3l-3.1-5.8c-0.4-0.7-1.3-0.6-1.6,0.1l-2.9,6.7h-9
						c-0.5,0-0.9,0.4-0.9,0.9s0.4,0.9,0.9,0.9h9.6c0.4,0,0.7-0.2,0.8-0.5L20,18.6z"/>
				</g>
			</g>
		</g>
	</g>
</g>
<g id="Layer_8" class="st0">
	<g class="st1">
		<g>
			<rect class="st2" width="56" height="56"/>
		</g>
		<g>
			<g>
				<polygon class="st8" points="45.5,48.8 10.5,48.8 10.5,26.7 7.1,26.7 7.1,25 20.2,15.5 21,16.6 8.9,25.3 11.8,25.3 11.8,47.5 
					44.2,47.5 44.2,25.3 47.1,25.3 35,16.6 35.8,15.5 48.9,25 48.9,26.7 45.5,26.7 				"/>
			</g>
			<g>
				<rect x="11.2" y="25.3" class="st8" width="33.7" height="1.3"/>
			</g>
			<g>
				<path class="st8" d="M35.4,48.2h-1.3V37.4c0-3.3-2.7-6.1-6.1-6.1s-6.1,2.7-6.1,6.1v10.8h-1.3V37.4c0-4.1,3.3-7.4,7.4-7.4
					s7.4,3.3,7.4,7.4V48.2z"/>
			</g>
			<g>
				<path class="st8" d="M29,19.3h-2c-1.3,0-2.4-1.1-2.4-2.4v-0.3H26v0.3c0,0.6,0.5,1,1,1h2c0.6,0,1-0.5,1-1c0-0.6-0.5-1-1-1h-2
					c-1.3,0-2.4-1.1-2.4-2.4s1.1-2.4,2.4-2.4h2c1.3,0,2.4,1.1,2.4,2.4v0.3H30v-0.3c0-0.6-0.5-1-1-1h-2c-0.6,0-1,0.5-1,1s0.5,1,1,1h2
					c1.3,0,2.4,1.1,2.4,2.4S30.3,19.3,29,19.3z"/>
			</g>
			<g>
				<rect x="27.3" y="9.8" class="st8" width="1.3" height="2"/>
			</g>
			<g>
				<rect x="27.3" y="18.6" class="st8" width="1.3" height="2"/>
			</g>
			<g>
				<rect x="18.6" y="19.9" class="st8" width="18.9" height="1.3"/>
			</g>
			<g>
				<path class="st8" d="M33.5,21.1l-0.9-1c1.4-1.3,2.1-3,2.1-4.9c0-3.7-3-6.7-6.7-6.7s-6.7,3-6.7,6.7c0,1.9,0.8,3.6,2.1,4.9l-0.9,1
					c-1.6-1.5-2.5-3.6-2.5-5.9c0-4.4,3.6-8.1,8.1-8.1s8.1,3.6,8.1,8.1C36.1,17.5,35.2,19.6,33.5,21.1z"/>
			</g>
		</g>
	</g>
</g>
<g id="Layer_9" class="st0">
	<g class="st1">
		<g>
			<rect class="st2" width="56" height="56"/>
		</g>
		<g>
			<path class="st3" d="M20.3,25.6c0.6,0,1-0.5,1-1c0-0.6-0.5-1-1-1H8.5c-0.6,0-1,0.5-1,1c0,0.6,0.5,1,1,1H20.3z"/>
			<path class="st3" d="M4.4,29.3c0,0.6,0.5,1,1,1h5v4.8c0,1.7,1.4,3,3,3h0.4c0.5,2.2,2.4,3.7,4.6,3.7c2.2,0,4.1-1.6,4.6-3.7h15.9
				c0.5,2.2,2.4,3.7,4.6,3.7c2.2,0,4.1-1.6,4.6-3.7h1c1.4,0,2.5-1.1,2.5-2.5v-7.1c0-1.3-1-2.4-2.3-2.5l-2.5-4.6
				c-0.7-1.3-2.1-2.1-3.5-2.1h-6v-2.2c0-1.7-1.4-3-3-3H13.5c-1.7,0-3,1.4-3,3v1.8h-5c-0.6,0-1,0.5-1,1c0,0.6,0.5,1,1,1h11.8
				c0.6,0,1-0.5,1-1c0-0.6-0.5-1-1-1h-4.8v-1.8c0-0.6,0.5-1,1-1h20.7c0.6,0,1,0.5,1,1v18.9H23c-0.6-2.5-3.1-4-5.6-3.4
				c-1.7,0.4-3,1.7-3.4,3.4h-0.5c-0.6,0-1-0.5-1-1v-4.8h4.8c0.6,0,1-0.5,1-1c0-0.6-0.5-1-1-1H5.4C4.9,28.3,4.4,28.7,4.4,29.3z
				 M43.5,39.8c-1.5,0-2.7-1.1-2.7-2.6c0-1.5,1.1-2.7,2.6-2.7c1.5,0,2.7,1.1,2.7,2.6c0,0,0,0.1,0,0.1C46.2,38.7,45,39.8,43.5,39.8
				L43.5,39.8z M43.2,21.4c0.7,0,1.4,0.4,1.8,1.1l2,3.6h-9.8v-4.6H43.2z M37.2,28H49c0.2,0,0.5,0.1,0.5,0.4c0,0,0,0.1,0,0.1v7.1
				c0,0.3-0.2,0.5-0.5,0.5h-1c-0.5-2.1-2.4-3.6-4.5-3.6c-2.2,0-4,1.5-4.6,3.6h-1.8V28z M18.5,34.5c1.5,0,2.7,1.2,2.7,2.7
				c0,1.5-1.2,2.7-2.7,2.7c-1.5,0-2.7-1.2-2.7-2.7C15.8,35.7,17,34.5,18.5,34.5L18.5,34.5z"/>
		</g>
	</g>
</g>
<g id="Layer_10" class="st0">
	<g class="st1">
		<g>
			<rect class="st2" width="56" height="56"/>
		</g>
		<g>
			<path class="st8" d="M37,35.2l-4.9-2.3l-2.6,5.6h-1.8c-1.5,0-2.7,1.2-2.7,2.7s1.2,2.7,2.7,2.7H31c1.2,0,2.4-0.7,2.9-1.8L37,35.2z
				 M32.7,41.5c-0.3,0.7-1,1.1-1.7,1.1h-3.2c-0.8,0-1.4-0.6-1.4-1.4c0-0.8,0.6-1.4,1.4-1.4h2.3c0.2,0,0.3-0.1,0.4-0.3l2.2-4.8
				l2.5,1.2l-1.8,3.9L32.7,41.5z"/>
			<path class="st8" d="M45.5,17.6c2.4,0,4.3-1.9,4.3-4.2s-1.9-4.2-4.3-4.2c-2.4,0-4.3,1.9-4.3,4.2c0,0,0,0,0,0
				C41.2,15.7,43.1,17.6,45.5,17.6z M45.5,10.5c1.6,0,2.9,1.3,2.9,2.9c0,1.6-1.3,2.9-2.9,2.9c-1.6,0-2.9-1.3-2.9-2.9
				C42.6,11.7,43.9,10.4,45.5,10.5C45.5,10.4,45.5,10.4,45.5,10.5L45.5,10.5z"/>
			<path class="st8" d="M30.4,27.5L30.4,27.5c0.8,0,1.6-0.4,2.1-1l0.1-0.1l1.5-3.3h2.5l-2.6,5.6c-0.7,1.6-0.1,3.4,1.5,4.2l7.6,3.7
				v7.7c0,1.5,1.2,2.7,2.7,2.7c1.5,0,2.7-1.2,2.7-2.7v-9.4c0-1.1-0.6-2-1.6-2.5l-5.3-2.6l1.7-3.8l0.9,0.9c0.6,0.6,1.4,0.9,2.2,0.9
				H49c1.5,0,2.7-1.1,2.7-2.6c0-0.7-0.2-1.5-0.7-2c-0.5-0.5-1.2-0.8-2-0.8h-1.6L45.1,20c-0.1-0.1-0.3-0.3-0.5-0.3l-3.9-1.9
				c-0.2-0.1-0.5-0.2-0.8-0.2h-8c-0.7,0-1.4,0.4-1.7,1l-2.6,5.7c-0.2,0.5-0.2,1.2,0.2,1.7C28.4,27,29.4,27.5,30.4,27.5z M28.8,25
				l2.6-5.7c0.1-0.2,0.3-0.3,0.5-0.3h8c0.1,0,0.1,0,0.2,0l3.9,1.9c0,0,0.1,0.1,0.1,0.1l2.6,2.6c0.1,0.1,0.2,0.1,0.3,0.1H49
				c0.8,0,1.4,0.6,1.4,1.4c0,0,0,0,0,0.1c-0.1,0.7-0.7,1.3-1.4,1.3h-2.5c-0.5,0-1-0.2-1.3-0.5l-1.8-1.8c-0.2-0.2-0.5-0.2-0.7,0
				c0,0-0.1,0.1-0.1,0.1l-2.6,5.6c-0.1,0.2,0,0.5,0.2,0.6l6.1,2.9c0.5,0.2,0.8,0.8,0.8,1.3v9.4c0,0.8-0.6,1.4-1.4,1.4c0,0,0,0,0,0
				l0,0c-0.8,0-1.4-0.6-1.4-1.4c0,0,0,0,0,0V36c0-0.2-0.1-0.3-0.3-0.4l-5.5-2.7l-2.6-1.3c-0.9-0.5-1.3-1.5-0.9-2.5l0.4-0.9l2.7-5.8
				c0.1-0.2,0-0.5-0.3-0.6c0,0-0.1,0-0.1,0h-4.4c-0.2,0-0.3,0.1-0.4,0.3l-1.7,3.6C30.6,26.9,28.5,25.6,28.8,25L28.8,25z"/>
			<polygon class="st8" points="4.3,33.8 4.3,35.1 7.9,35.1 14.1,35.1 18.4,35.1 21.1,35.1 21.1,33.8 			"/>
			<polygon class="st8" points="7.4,37 7.4,38.3 10.4,38.3 15.4,38.3 18.9,38.3 21.1,38.3 21.1,37 			"/>
			<polygon class="st8" points="11.6,40.1 11.6,41.4 13.7,41.4 17.1,41.4 19.6,41.4 21.1,41.4 21.1,40.1 			"/>
		</g>
	</g>
</g>
<g id="Layer_11" class="st0">
	<g class="st1">
		<g>
			<rect class="st2" width="56" height="56"/>
		</g>
		<path class="st9" d="M36.1,19.7c-0.7-0.7-1.6-1-2.5-1c-0.9,0-1.8,0.4-2.5,1c-1.4,1.4-1.4,3.6,0,5c0.7,0.7,1.6,1,2.5,1
			c0.9,0,1.8-0.4,2.5-1C37.5,23.3,37.5,21.1,36.1,19.7z M34.9,23.5c-0.4,0.4-0.8,0.5-1.3,0.5s-1-0.2-1.3-0.5c-0.7-0.7-0.7-1.9,0-2.7
			c0.4-0.4,0.8-0.5,1.3-0.5s1,0.2,1.3,0.5C35.7,21.6,35.7,22.8,34.9,23.5z M49.3,6.5c-0.2-0.2-0.4-0.3-0.7-0.2c-0.2,0-4,0.6-9.1,2.9
			c0,0,0,0,0,0c-6.8,3.1-15.8,9.2-21,21.2L16,27.8c-0.1-0.1-0.4-0.3-0.6-0.3l0,0c-0.2,0-0.4,0.1-0.6,0.3l-6.8,7
			c-0.2,0.2-0.3,0.6-0.2,0.9C8,36,8.3,36.2,8.6,36.1l6-0.4l5.5,5.4L19.6,47c0,0.3,0.2,0.7,0.5,0.8c0.1,0,0.2,0.1,0.3,0.1
			c0.2,0,0.4-0.1,0.6-0.2l6.9-6.8c0.2-0.1,0.2-0.4,0.2-0.6c0-0.2-0.1-0.4-0.2-0.6l-2.5-2.5c12-5.1,18.2-14.1,21.2-20.9l0,0
			c2.3-5.1,2.9-8.9,2.9-9.1C49.6,6.9,49.5,6.7,49.3,6.5z M44.5,16.8L39,11.3c0.2-0.1,0.5-0.2,0.7-0.3l5.2,5.2
			C44.8,16.3,44.7,16.6,44.5,16.8z M24.1,35.9l-4.3-4.3c0.1-0.2,0.2-0.5,0.3-0.7l4.7,4.7C24.6,35.7,24.4,35.8,24.1,35.9z M26.2,40.3
			L21.4,45l0.3-4.1c0-0.2-0.1-0.5-0.2-0.6l-6-6c-0.1-0.1-0.4-0.2-0.6-0.2c0,0,0,0-0.1,0l-4.1,0.3l4.7-4.8l2.8,2.8l0,0l5.1,5.1l0,0
			L26.2,40.3z M26.4,34.9l-5.6-5.6c4.3-8.9,10.9-14.1,16.6-17.2l6.3,6.3C40.6,24,35.3,30.6,26.4,34.9z M45.6,14.5l-4.3-4.3
			c2.8-1.2,5.1-1.8,6.4-2.1C47.4,9.4,46.8,11.7,45.6,14.5z M16,39.3c-0.2,0-4,0.6-9.1,2.9c-0.2,0.1-0.4,0.3-0.5,0.6
			c0,0.3,0,0.5,0.2,0.7l6,6c0.1,0.1,0.4,0.2,0.6,0.2c0,0,0.1,0,0.1,0c0.3,0,0.5-0.2,0.6-0.5c2.3-5.1,2.9-8.9,2.9-9.1
			c0-0.3,0-0.5-0.2-0.7C16.5,39.3,16.2,39.2,16,39.3z M13,47.5l-4.3-4.3c2.8-1.2,5.1-1.8,6.4-2.1C14.7,42.4,14.1,44.7,13,47.5z"/>
	</g>
</g>
<g id="Layer_12" class="st0">
	<g class="st1">
		<g>
			<rect class="st2" width="56" height="56"/>
		</g>
		<g>
			<path class="st8" d="M40,16.1c0,1.4,1.2,2.6,2.6,2.6c1.4,0,2.6-1.2,2.6-2.6c0-1.4-1.2-2.6-2.6-2.6C41.1,13.5,40,14.7,40,16.1z
				 M44.2,16.1c0,0.9-0.7,1.6-1.6,1.6c-0.9,0-1.6-0.7-1.6-1.6c0-0.9,0.7-1.6,1.6-1.6C43.5,14.5,44.2,15.2,44.2,16.1z"/>
			<path class="st8" d="M25.4,16.1c0,1.4,1.2,2.6,2.6,2.6c1.4,0,2.6-1.2,2.6-2.6c0-1.4-1.2-2.6-2.6-2.6
				C26.6,13.5,25.4,14.7,25.4,16.1z M29.6,16.1c0,0.9-0.7,1.6-1.6,1.6c-0.9,0-1.6-0.7-1.6-1.6c0-0.9,0.7-1.6,1.6-1.6
				C28.9,14.5,29.6,15.2,29.6,16.1z"/>
			<path class="st8" d="M10.8,16.1c0,1.4,1.2,2.6,2.6,2.6c1.4,0,2.6-1.2,2.6-2.6c0-1.4-1.2-2.6-2.6-2.6C12,13.5,10.8,14.7,10.8,16.1
				z M15,16.1c0,0.9-0.7,1.6-1.6,1.6c-0.9,0-1.6-0.7-1.6-1.6c0-0.9,0.7-1.6,1.6-1.6C14.3,14.5,15,15.2,15,16.1z"/>
			<path class="st8" d="M46,42.8v-2.7c0-1.9-1.5-3.4-3.4-3.4c-1.9,0-3.4,1.5-3.4,3.4v2.6h-7.8v-2.6c0-1.9-1.5-3.4-3.4-3.4
				c-1.9,0-3.4,1.5-3.4,3.4v2.6h-7.8v-2.6c0-1.9-1.5-3.4-3.4-3.4S10,38.2,10,40.1v2.7C9,43,8.1,43.9,8.1,45.1v0.4
				c0,1.3,1.1,2.3,2.3,2.3h35.1c1.3,0,2.3-1.1,2.3-2.3v-0.4C47.9,43.9,47,43,46,42.8z M40.2,40.1c0-1.3,1.1-2.4,2.4-2.4
				c1.3,0,2.4,1.1,2.4,2.4v2.6h-4.8V40.1z M25.6,40.1c0-1.3,1.1-2.4,2.4-2.4c1.3,0,2.4,1.1,2.4,2.4v2.6h-4.8V40.1z M13.4,37.7
				c1.3,0,2.4,1.1,2.4,2.4v2.6H11v-2.6C11,38.8,12.1,37.7,13.4,37.7z M46.9,45.5c0,0.7-0.6,1.4-1.4,1.4H10.5c-0.7,0-1.4-0.6-1.4-1.4
				v-0.4c0-0.7,0.6-1.4,1.4-1.4h35.1c0.7,0,1.4,0.6,1.4,1.4L46.9,45.5L46.9,45.5z"/>
			<path class="st8" d="M47.4,9.1c0.3,0,0.5-0.2,0.5-0.5c0-0.3-0.2-0.5-0.5-0.5H8.6c-0.3,0-0.5,0.2-0.5,0.5c0,0.3,0.2,0.5,0.5,0.5
				h4.3v1.8c-2.7,0.3-4.8,2.5-4.8,5.3c0,2.1,1.2,3.9,2.9,4.7v4.5c0,0.8,0.7,1.5,1.5,1.5h0.3V28c-0.9,0.1-1.8,0.5-2.5,1.2
				c-1.6,1.6-1.6,4.3,0,5.9c0.2,0.2,0.5,0.2,0.7,0s0.2-0.5,0-0.7c-1.3-1.3-1.3-3.3,0-4.5c1.3-1.3,3.3-1.3,4.5,0
				c1.3,1.3,1.3,3.3,0,4.5c-0.2,0.2-0.2,0.5,0,0.7c0.1,0.1,0.2,0.1,0.4,0.1c0.1,0,0.3,0,0.4-0.1c1.6-1.6,1.6-4.3,0-5.9
				c-0.7-0.7-1.6-1.1-2.5-1.2v-1.1h0.3c0.8,0,1.5-0.7,1.5-1.5v-4.5c1.7-0.9,2.9-2.7,2.9-4.7c0-2.7-2.1-5-4.8-5.3V9.1h13.6v1.8
				c-2.7,0.3-4.8,2.5-4.8,5.3c0,2.1,1.2,3.9,2.9,4.7v4.5c0,0.8,0.7,1.5,1.5,1.5h0.3V28c-0.9,0.1-1.8,0.5-2.5,1.2
				c-1.6,1.6-1.6,4.3,0,5.9c0.2,0.2,0.5,0.2,0.7,0s0.2-0.5,0-0.7c-1.3-1.3-1.3-3.3,0-4.5c1.3-1.3,3.3-1.3,4.5,0
				c1.3,1.3,1.3,3.3,0,4.5c-0.2,0.2-0.2,0.5,0,0.7c0.1,0.1,0.2,0.1,0.4,0.1s0.3,0,0.4-0.1c1.6-1.6,1.6-4.3,0-5.9
				c-0.7-0.7-1.6-1.1-2.5-1.2v-1.1h0.3c0.8,0,1.5-0.7,1.5-1.5v-4.5c1.7-0.9,2.9-2.7,2.9-4.7c0-2.7-2.1-5-4.8-5.3V9.1h13.6v1.8
				c-2.7,0.3-4.8,2.5-4.8,5.3c0,2.1,1.2,3.9,2.9,4.7v4.5c0,0.8,0.7,1.5,1.5,1.5h0.3V28c-0.9,0.1-1.8,0.5-2.5,1.2
				c-1.6,1.6-1.6,4.3,0,5.9c0.2,0.2,0.5,0.2,0.7,0c0.2-0.2,0.2-0.5,0-0.7c-1.3-1.3-1.3-3.3,0-4.5c1.3-1.3,3.3-1.3,4.5,0
				c1.3,1.3,1.3,3.3,0,4.5c-0.2,0.2-0.2,0.5,0,0.7c0.1,0.1,0.2,0.1,0.4,0.1c0.1,0,0.3,0,0.4-0.1c1.6-1.6,1.6-4.3,0-5.9
				c-0.7-0.7-1.6-1.1-2.5-1.2v-1.1h0.3c0.8,0,1.5-0.7,1.5-1.5v-4.5c1.7-0.9,2.9-2.7,2.9-4.7c0-2.7-2.1-5-4.8-5.3V9.1H47.4z
				 M14.8,25.4c0,0.3-0.2,0.5-0.5,0.5h-1.7c-0.3,0-0.5-0.2-0.5-0.5v-4.1c0.4,0.1,0.9,0.2,1.4,0.2c0.5,0,0.9-0.1,1.4-0.2V25.4z
				 M17.7,16.2c0,2.4-1.9,4.3-4.3,4.3s-4.3-1.9-4.3-4.3s1.9-4.3,4.3-4.3S17.7,13.8,17.7,16.2z M29.4,25.4c0,0.3-0.2,0.5-0.5,0.5
				h-1.7c-0.3,0-0.5-0.2-0.5-0.5v-4.1c0.4,0.1,0.9,0.2,1.4,0.2c0.5,0,0.9-0.1,1.4-0.2L29.4,25.4z M32.3,16.2c0,2.4-1.9,4.3-4.3,4.3
				s-4.3-1.9-4.3-4.3s1.9-4.3,4.3-4.3S32.3,13.8,32.3,16.2z M43.9,25.4c0,0.3-0.2,0.5-0.5,0.5h-1.7c-0.3,0-0.5-0.2-0.5-0.5v-4.1
				c0.4,0.1,0.9,0.2,1.4,0.2s0.9-0.1,1.4-0.2V25.4z M46.9,16.2c0,2.4-1.9,4.3-4.3,4.3c-2.4,0-4.3-1.9-4.3-4.3s1.9-4.3,4.3-4.3
				C45,11.9,46.9,13.8,46.9,16.2z"/>
		</g>
	</g>
</g>
<g id="Layer_13" class="st0">
	<g class="st1">
		<g>
			<rect class="st2" width="56" height="56"/>
		</g>
		<g>
			<g>
				<g>
					<path class="st9" d="M45.6,41.4H10.4c-2.2,0-4-1.8-4-4V12c0-2.2,1.8-4,4-4h35.2c2.2,0,4,1.8,4,4v25.4
						C49.6,39.6,47.8,41.4,45.6,41.4z M10.4,9.8c-1.2,0-2.2,1-2.2,2.2v25.4c0,1.2,1,2.2,2.2,2.2h35.2c1.2,0,2.2-1,2.2-2.2V12
						c0-1.2-1-2.2-2.2-2.2H10.4z"/>
				</g>
			</g>
			<g>
				<g>
					<path class="st9" d="M35.5,48H20.5c-0.3,0-0.6-0.2-0.8-0.4c-0.2-0.3-0.2-0.6-0.1-0.9l2.9-6.7c0.2-0.5,0.7-0.7,1.2-0.5
						c0.5,0.2,0.7,0.7,0.5,1.2l-2.4,5.4h12.3l-2.4-5.4c-0.2-0.5,0-1,0.5-1.2c0.5-0.2,1,0,1.2,0.5l2.9,6.7c0.1,0.3,0.1,0.6-0.1,0.9
						C36.1,47.9,35.8,48,35.5,48z"/>
				</g>
			</g>
			<g>
				<g>
					<path class="st9" d="M48.7,35.1H7.3c-0.5,0-0.9-0.4-0.9-0.9s0.4-0.9,0.9-0.9h41.4c0.5,0,0.9,0.4,0.9,0.9S49.2,35.1,48.7,35.1z"
						/>
				</g>
			</g>
			<g>
				<g>
					<path class="st9" d="M14.4,30.4c-0.2,0-0.5-0.1-0.6-0.3c-0.4-0.4-0.4-0.9,0-1.3l9.6-9.6c0.4-0.4,0.9-0.4,1.3,0l5.5,5.5L40.9,14
						c0.4-0.4,0.9-0.4,1.3,0c0.4,0.4,0.4,0.9,0,1.3L30.8,26.7c-0.4,0.4-0.9,0.4-1.3,0L24,21.2l-9,9C14.9,30.4,14.7,30.4,14.4,30.4z"
						/>
				</g>
			</g>
			<g>
				<g>
					<path class="st9" d="M28,38.1c-0.1,0-0.2,0-0.3-0.1c-0.1,0-0.2-0.1-0.3-0.2c-0.2-0.2-0.3-0.4-0.3-0.6c0-0.2,0.1-0.5,0.3-0.6
						c0.1-0.1,0.2-0.2,0.3-0.2c0.2-0.1,0.5-0.1,0.7,0c0.1,0,0.2,0.1,0.3,0.2c0.2,0.2,0.3,0.4,0.3,0.6c0,0.2-0.1,0.5-0.3,0.6
						c-0.1,0.1-0.2,0.2-0.3,0.2C28.2,38.1,28.1,38.1,28,38.1z"/>
				</g>
			</g>
		</g>
	</g>
</g>
<g id="Layer_14" class="st0">
	<g class="st1">
		<g>
			<rect class="st2" width="56" height="56"/>
		</g>
		<g>
			<g>
				<path class="st8" d="M38.3,15.8c2.7,0,4.9-2.2,4.9-4.9S41,6.1,38.3,6.1c-2.7,0-4.9,2.2-4.9,4.9S35.6,15.8,38.3,15.8z M38.3,7.1
					c2.1,0,3.9,1.7,3.9,3.9c0,2.1-1.7,3.9-3.9,3.9c-2.1,0-3.9-1.7-3.9-3.9S36.2,7.1,38.3,7.1z"/>
				<path class="st8" d="M49.8,46.2L44.8,34c2.1-1.2,1.5-3.6,1.1-5c-0.1-0.4-0.2-0.8-0.2-1v-6.3c0-3-2.4-5.4-5.4-5.4h-0.8
					c-0.9,0-1.7,0.4-2.2,1.1l-7.8,9.4c-0.8,0.9-0.7,2.2,0,3.1l-5.5,12.3H9.6c-0.3,0-0.5,0.2-0.5,0.5s0.2,0.5,0.5,0.5h15l5.7-12.7
					c0.4,0.2,0.8,0.3,1.2,0.2c0.5-0.1,1-0.3,1.4-0.7c0,0,0,0,0.1,0h1.5c0.3,0,0.5-0.2,0.5-0.5c0-0.3-0.2-0.5-0.5-0.5h-0.7l4.2-5.1
					l0.8,8.9l-6.3,12.9c-0.9,1.3-0.6,3,0.5,3.8c0.4,0.3,0.9,0.4,1.4,0.4c0.2,0,0.3,0,0.5,0c0.8-0.1,1.4-0.6,1.9-1.3l4.7-8.9l3.5,8.2
					c0.3,0.8,0.8,1.4,1.5,1.7c0.4,0.2,0.7,0.3,1.1,0.3c0.3,0,0.5,0,0.8-0.1C49.7,49.3,50.3,47.7,49.8,46.2z M36,48.1
					c-0.3,0.4-0.8,0.7-1.3,0.8c-0.4,0.1-0.8,0-1.1-0.2c-0.7-0.5-0.9-1.6-0.3-2.5L39.8,33l-1-10.1l2.3-2.8l-0.8-0.6l-8,9.7
					c-0.2,0.3-0.6,0.5-1,0.5c-0.4,0-0.7-0.1-1-0.3c-0.6-0.5-0.7-1.4-0.2-2L38,18c0.4-0.4,0.9-0.7,1.5-0.7h0.8c2.4,0,4.4,2,4.4,4.4
					V28c0,0.3,0.1,0.7,0.3,1.2c0.5,1.8,0.8,3.4-1,4.1l-0.2,0.1L36,48.1z M48,48.9c-0.4,0.1-0.8,0.1-1.1-0.1c-0.5-0.2-0.8-0.6-1-1.2
					l-3.8-9l2-3.8l4.9,11.7C49.3,47.5,48.8,48.6,48,48.9z"/>
				<path class="st8" d="M22.2,44.1c-1.6,0-2.9,1.3-2.9,2.9s1.3,2.9,2.9,2.9c1.6,0,2.9-1.3,2.9-2.9S23.9,44.1,22.2,44.1z M22.2,48.9
					c-1.1,0-1.9-0.9-1.9-1.9s0.9-1.9,1.9-1.9s1.9,0.9,1.9,1.9S23.3,48.9,22.2,48.9z"/>
				<path class="st8" d="M11.5,44.1c-1.6,0-2.9,1.3-2.9,2.9s1.3,2.9,2.9,2.9s2.9-1.3,2.9-2.9S13.1,44.1,11.5,44.1z M11.5,48.9
					c-1.1,0-1.9-0.9-1.9-1.9s0.9-1.9,1.9-1.9s1.9,0.9,1.9,1.9S12.6,48.9,11.5,48.9z"/>
				<path class="st8" d="M23,40.7l4.8-10.7H6l3.2,10.7H23z M26.4,30.9l-3.9,8.8H9.9l-2.6-8.8H26.4z"/>
			</g>
		</g>
	</g>
</g>
<g id="Layer_15" class="st0">
	<g class="st1">
		<g>
			<rect class="st2" width="56" height="56"/>
		</g>
		<g>
			<path class="st8" d="M31.5,35.7c-0.1-5.7-4.8-10.1-10.5-10.1h-2.8c-5.7,0-10.3,4.5-10.5,10.1c-0.8,0.5-1.4,1.4-1.4,2.4
				c0,1.3,0.9,2.4,2.1,2.7v2c0,2,1.5,3.5,3.5,3.5h15.5c2,0,3.5-1.5,3.5-3.5v-2c1.2-0.3,2.1-1.4,2.1-2.7C33,37.1,32.4,36.2,31.5,35.7
				z M18.2,26.9H21c4.8,0,8.7,3.7,9.1,8.4H9.1C9.5,30.6,13.4,26.9,18.2,26.9z M29.4,42.9c0,1.2-0.9,2.1-2.1,2.1H11.9
				c-1.2,0-2.1-0.9-2.1-2.1V41h19.7V42.9z M30.1,39.5H9.1c-0.8,0-1.4-0.6-1.4-1.4c0-0.8,0.6-1.4,1.4-1.4h21.1c0.8,0,1.4,0.6,1.4,1.4
				S30.9,39.5,30.1,39.5z"/>
			<polygon class="st8" points="12.1,32.7 13.5,31.3 14.5,32.3 13.1,33.7 			"/>
			<polygon class="st8" points="15.6,29.9 17,28.5 18,29.5 16.6,30.9 			"/>
			<polygon class="st8" points="18.4,32.7 19.8,31.3 20.8,32.3 19.4,33.7 			"/>
			<polygon class="st8" points="24.7,32.7 26.1,31.3 27.1,32.3 25.7,33.7 			"/>
			<polygon class="st8" points="21.9,29.9 23.3,28.5 24.3,29.5 22.9,30.9 			"/>
			<path class="st8" d="M47.7,21.3h-5.6v-5.2l-5.8-6.5l-1.1,0.9l5.4,6.1v4.6h-6.3c-1.2,0-2.1,0.9-2.1,2.1c0,0.9,0.6,1.7,1.5,2
				l2.1,21.1h10.4l2.1-21.1c0.8-0.3,1.5-1,1.5-2C49.8,22.3,48.9,21.3,47.7,21.3z M45,45.1h-7.9l-2-19.6h11.8L45,45.1z M47.7,24.1
				H34.4c-0.4,0-0.7-0.3-0.7-0.7s0.3-0.7,0.7-0.7h13.4c0.4,0,0.7,0.3,0.7,0.7S48.1,24.1,47.7,24.1z"/>
		</g>
	</g>
</g>
<g id="Layer_16" class="st0">
	<g class="st1">
		<g>
			<rect class="st2" width="56" height="56"/>
		</g>
		<g>
			<path class="st10" d="M51.6,25.2c0-2.2-1.8-4-4.1-4h-2.6v-4.5c0-2.2-1.8-4-4.1-4H15.1c-2.2,0-4.1,1.8-4.1,4v4.5H8.4
				c-2.2,0-4.1,1.8-4.1,4v8.4c0,2.2,1.7,3.9,3.8,4v4.8c0,0.6,0.5,1,1,1s1-0.5,1-1v-4.8h35.5v4.8c0,0.6,0.5,1,1,1c0.6,0,1-0.5,1-1
				v-4.8c2.2-0.1,3.9-1.9,3.8-4L51.6,25.2z M42.9,16.6v12.2h-14V14.6h12C42,14.6,42.9,15.5,42.9,16.6z M13,16.6c0-1.1,0.9-2,2-2
				h11.9v14.2H13V16.6z M49.5,33.5c0,1.1-0.9,2-2,2H8.4c-1.1,0-2-0.9-2-2v-8.4c0-1.1,0.9-2,2-2H11v6.7c0,0.6,0.5,1,1,1h31.9
				c0.6,0,1-0.5,1-1v-6.7h2.6c1.1,0,2,0.9,2,2V33.5z"/>
		</g>
	</g>
</g>
<g id="Layer_17" class="st0">
	<g class="st1">
		<g>
			<rect class="st2" width="56" height="56"/>
		</g>
		<g transform="translate(0,-952.36218)">
			<path class="st11" d="M21,959.3c-2.1,0-3.8,1.7-3.8,3.8v6.6h-6.7c-2.1,0-3.8,1.7-3.8,3.8v13.9c0,2.1,1.7,3.8,3.8,3.8h6.7v6.6
				c0,2.1,1.7,3.8,3.8,3.8h14c2.1,0,3.8-1.7,3.8-3.8v-6.6h6.7c2.1,0,3.8-1.7,3.8-3.8v-13.9c0-2.1-1.7-3.8-3.8-3.8h-6.7V963
				c0-2.1-1.7-3.8-3.8-3.8H21L21,959.3z M21,961.9h14c0.6,0,1.1,0.5,1.1,1.1v7.9c0,0.7,0.6,1.3,1.3,1.3h8c0.6,0,1.1,0.5,1.1,1.2
				v13.9c0,0.6-0.5,1.1-1.1,1.1h-8c-0.7,0-1.3,0.6-1.3,1.3v7.9c0,0.6-0.5,1.1-1.1,1.1H21c-0.7,0-1.1-0.5-1.1-1.1v-7.9
				c0-0.7-0.6-1.3-1.3-1.3l0,0h-8c-0.7,0-1.1-0.5-1.1-1.1v-13.9c0-0.6,0.5-1.2,1.1-1.2h8c0.7,0,1.3-0.6,1.3-1.3l0,0V963
				C19.8,962.4,20.3,961.9,21,961.9L21,961.9z"/>
			<path class="st11" d="M23.4,973.4c-1.7,0-3.1,0.8-4,1.9c-1.9,2.2-2.2,5.4-1.1,8.2c0.1,0.1,0.1,0.3,0.2,0.4
				c1.3,2.8,4.6,5.9,8.7,9.6c0.6,0.5,1.3,0.5,1.8,0c4.1-3.8,7.4-6.8,8.7-9.6c0.1-0.2,0.1-0.3,0.2-0.5c1.1-2.7,0.7-6-1.1-8.1
				c-1-1.1-2.4-1.9-4-1.9c-1.4,0-3,0.4-4.6,1.5C26.4,973.8,24.8,973.3,23.4,973.4L23.4,973.4z M23.4,976c0.9,0,2.1,0.3,3.6,1.4
				c0.7,0.5,1.2,0.5,1.9,0c1.5-1,2.8-1.4,3.7-1.4c0.9,0,1.6,0.4,2.1,1c1.1,1.2,1.4,3.7,0.6,5.5c0,0,0,0,0,0.1c0,0,0,0,0,0
				c-0.7,1.5-3.6,4.6-7.3,8.1c-3.7-3.4-6.6-6.5-7.3-8c0,0,0-0.1,0-0.1c-0.8-1.9-0.5-4.4,0.6-5.6C21.9,976.4,22.5,976,23.4,976
				L23.4,976z"/>
		</g>
	</g>
</g>
<g id="Layer_18" class="st0">
	<g class="st1">
		<g>
			<rect class="st2" width="56" height="56"/>
		</g>
		<g>
			<path class="st3" d="M43.8,7H12.3C9.4,7,7,9.4,7,12.3v31.5c0,2.9,2.3,5.2,5.2,5.2h0h31.5c2.9,0,5.3-2.3,5.3-5.2V12.3
				C49,9.4,46.6,7,43.8,7z M46.4,43.7c0,1.4-1.2,2.6-2.6,2.6H12.3c-1.4,0-2.6-1.2-2.6-2.6V12.3c0-1.4,1.2-2.6,2.6-2.6h14.4v9.2h-0.2
				c-0.3,0-0.5,0.1-0.7,0.3c-0.2,0.2-0.3,0.5-0.3,0.7v3.3c-3.1,1.1-5.3,4-5.3,7.4c0,4.3,3.5,7.9,7.9,7.9s7.9-3.5,7.9-7.9
				c0-3.4-2.2-6.3-5.3-7.4v-3.3c0-0.3-0.1-0.5-0.3-0.7c-0.2-0.2-0.5-0.3-0.7-0.3h-0.2V9.6h14.4c1.4,0,2.6,1.2,2.6,2.6L46.4,43.7
				L46.4,43.7z M28,25.4c2.9,0,5.3,2.3,5.3,5.2c0,2.9-2.4,5.2-5.3,5.2s-5.3-2.3-5.3-5.2S25.1,25.4,28,25.4z"/>
			<g transform="matrix(1,0,0,1,-327.5,2.5)">
				<path class="st3" d="M367.3,29.4c-0.7,0-1.3-0.6-1.3-1.3c0-0.7,0.6-1.3,1.3-1.3h2.6h0c0.7,0,1.3,0.6,1.3,1.3
					c0,0.7-0.6,1.3-1.3,1.3H367.3L367.3,29.4z"/>
			</g>
			<g transform="matrix(1,0,0,1,-377.5,2.5)">
				<path class="st3" d="M391.1,29.4c-0.7,0-1.3-0.6-1.3-1.3c0-0.7,0.6-1.3,1.3-1.3h2.6h0c0.7,0,1.3,0.6,1.3,1.3
					c0,0.7-0.6,1.3-1.3,1.3H391.1L391.1,29.4z"/>
			</g>
			<g transform="matrix(0.707107,-0.707107,0.707107,0.707107,-254.056,284.81)">
				<path class="st3" d="M391,21c-0.7,0-1.3-0.6-1.3-1.3c0-0.7,0.6-1.3,1.3-1.3l2.6,0l0,0c0.7,0,1.3,0.6,1.3,1.3
					c0,0.7-0.6,1.3-1.3,1.3L391,21L391,21z"/>
			</g>
			<g transform="matrix(0.707107,-0.707107,0.707107,0.707107,-289.411,320.165)">
				<path class="st3" d="M414.7,21c-0.7,0-1.3-0.6-1.3-1.3c0-0.7,0.6-1.3,1.3-1.3l2.6,0l0,0c0.7,0,1.3,0.6,1.3,1.3
					c0,0.7-0.6,1.3-1.3,1.3L414.7,21L414.7,21z"/>
			</g>
			<g transform="matrix(0.707107,0.707107,-0.707107,0.707107,-179.81,-249.056)">
				<path class="st3" d="M356.5,52.1c-0.7,0-1.3-0.6-1.3-1.3c0-0.7,0.6-1.3,1.3-1.3l2.6,0l0,0c0.7,0,1.3,0.6,1.3,1.3
					c0,0.7-0.6,1.3-1.3,1.3L356.5,52.1L356.5,52.1z"/>
			</g>
			<g transform="matrix(0.707107,0.707107,-0.707107,0.707107,-215.165,-284.411)">
				<path class="st3" d="M380.3,52.1c-0.7,0-1.3-0.6-1.3-1.3c0-0.7,0.6-1.3,1.3-1.3l2.6,0l0,0c0.7,0,1.3,0.6,1.3,1.3
					c0,0.7-0.6,1.3-1.3,1.3L380.3,52.1L380.3,52.1z"/>
			</g>
		</g>
	</g>
</g>
<g id="Layer_19" class="st0">
	<g class="st1">
		<g>
			<rect class="st2" width="56" height="56"/>
		</g>
		<g>
			<path class="st9" d="M47.1,24.1c0.3-0.7,0.1-1.5-0.4-2.1l-2.4-2.4c-0.1-0.1-0.3-0.2-0.4-0.3c0.3-0.7,0.2-1.6-0.4-2.2L41,14.8
				c-0.8-0.8-2-0.8-2.8,0L38,15c-0.1-0.1-0.1-0.2-0.2-0.3l-2.4-2.4c-0.8-0.8-2-0.8-2.8,0l-1.9,1.9c-1.2-0.9-2.4-0.9-3.9-0.7L26,13.7
				c-1.5,0.2-2.8,0.4-3.8,0.7l-0.3-0.2c0.9-3.2-0.2-6.8-2.9-8.9C16.2,3,12.4,2.8,9.4,4.8c0,0,0,0-0.1,0c0,0,0,0,0,0c0,0,0,0,0,0
				C9.1,4.9,9,5,9,5.2c0,0,0,0,0,0.1c0,0,0,0,0,0.1c0,0.2,0,0.3,0.1,0.5c0,0,0,0,0,0c0,0,0,0,0,0C9.2,6,9.3,6,9.4,6.1l0.1,0
				c0,0,0,0,0,0l4.1,1.3l0,4.3l-4.1,1.4L7,9.5c0,0,0,0,0,0C6.9,9.4,6.8,9.3,6.6,9.3c0,0,0,0,0,0c0,0,0,0-0.1,0c-0.2,0-0.3,0-0.5,0.1
				c0,0,0,0,0,0c0,0,0,0,0,0C5.9,9.5,5.8,9.6,5.7,9.8c0,0,0,0,0,0.1c0,0,0,0,0,0C5,13,6.1,16.3,8.6,18.3c1.6,1.2,3.4,1.9,5.3,1.9
				c1.1,0,2.3-0.3,3.3-0.7l1.8,1.7c0,0.5-0.1,1-0.1,1.4c0,3.5-0.5,5.7-0.9,6.1l-1,1l-1-1c-0.3-0.3-0.9-0.3-1.2,0L8.3,35
				c-0.3,0.3-0.3,0.8,0,1.2l16.2,16.2c0.2,0.2,0.4,0.2,0.6,0.2s0.4-0.1,0.6-0.2l6.5-6.5c0.3-0.3,0.3-0.8,0-1.2l-1-1l1-1
				c0.4-0.4,1.2-0.4,2.1-0.4c1.4,0,3,0,4.3-1.2l0.7-0.7l2.9,2.7c0.6,0.6,1.5,0.9,2.4,0.9c0.1,0,0.3,0,0.4,0c1-0.1,2-0.6,2.7-1.4
				c1.5-1.7,1.6-4.1,0.1-5.5L45,34.6l5-5c0.8-0.8,0.8-2,0-2.8L47.1,24.1z M43.1,20.8l2.4,2.4c0.1,0.1,0.1,0.3,0,0.5l-5.7,5.7l0,0
				c-0.1,0.1-0.3,0.1-0.4,0l-2.3-2.2c1.5-0.4,2.8-1.4,3.3-2.6c0.1-0.3,0-0.6-0.2-0.9L40,23.4l2.7-2.7C42.8,20.7,43,20.7,43.1,20.8z
				 M37.8,17.5l1.6-1.6c0.1-0.1,0.3-0.1,0.5,0l2.4,2.4c0.1,0.1,0.1,0.3,0,0.5l-0.8,0.8l0,0l-2.7,2.7L36,19.4L37.8,17.5
				C37.8,17.5,37.8,17.5,37.8,17.5z M33.7,13.5c0.1-0.1,0.3-0.1,0.5,0l2.4,2.4c0.1,0.1,0.1,0.3,0,0.5l-1.8,1.8l-2.9-2.9L33.7,13.5z
				 M18,17.9c-0.3-0.3-0.9-0.3-1.2,0c0,0,0,0.1,0,0.1c-2.3,1.2-5.1,0.9-7.3-0.9C7.9,15.9,7,13.9,7,11.9l1.8,2.4
				c0.1,0.2,0.4,0.3,0.6,0.3c0.1,0,0.2,0,0.2,0l5.1-1.7c0.3-0.1,0.5-0.4,0.5-0.7l0-5.3c0-0.3-0.2-0.6-0.5-0.7l-3-0.9
				c2.2-0.7,4.6-0.4,6.5,1.1c2.3,1.8,3.3,5,2.3,7.8c0,0,0,0.1,0,0.1c-0.1,0.3-0.1,0.7,0.2,1l0.1,0.1c-0.6,0.8-1.1,2.2-1.4,3.8
				L18,17.9z M25.1,50.6l-15-15l5.3-5.3l15,15L25.1,50.6z M37.4,39.8c-0.8,0.8-1.9,0.8-3.2,0.8c-1.2,0-2.4,0-3.3,0.8l-1,1L18.2,30.7
				l1-1c1.3-1.3,1.4-5.8,1.4-7.2c0-2.8,0.9-5.8,1.5-6.2c0.6-0.5,2.8-0.8,4.2-1l0.9-0.1c1.6-0.2,2.3-0.1,3.1,0.8l8.5,8.5
				c-0.4,0.5-1.2,1-2.1,1.2c-0.9,0.2-2.3,0.2-3.6-1.1l-3.2-3.2c0,0,0,0,0,0c-0.3-0.3-0.8-0.3-1.2,0c-0.3,0.3-0.3,0.8,0,1.2v0
				c2.6,2.6,2.2,7.9-0.8,11c-0.3,0.3-0.3,0.8,0,1.2c0.2,0.2,0.4,0.2,0.6,0.2s0.4-0.1,0.6-0.2c0.6-0.6,1.2-1.3,1.6-2.1l7.6,6.8
				L37.4,39.8z M46.7,38.3c0.8,0.8,0.7,2.2-0.2,3.2c-0.5,0.5-1.1,0.8-1.7,0.9c-0.6,0.1-1.1-0.1-1.5-0.4l-3.5-3.3l0,0l0,0l0,0
				l-8.6-7.7c0.6-1.7,0.9-3.5,0.6-5.2c0.9,0.9,2,1.4,3.1,1.5l3.3,3.3c0.1,0.1,0.3,0.2,0.4,0.2c-0.1,0.2-0.2,0.5-0.2,0.8
				c0,0.5,0.2,1,0.6,1.4l2.4,2.4c0.4,0.4,0.9,0.6,1.4,0.6c0.3,0,0.6-0.1,0.8-0.2L46.7,38.3z M48.8,28.5l-5.6,5.6c0,0,0,0-0.1,0
				c0,0,0,0,0,0l0,0c-0.1,0.1-0.3,0.1-0.5,0l-2.4-2.4c-0.1-0.1-0.1-0.2-0.1-0.2c0,0,0-0.1,0.1-0.2l0.8-0.8l0,0l5.1-5.1l2.7,2.7
				C48.9,28.2,48.9,28.4,48.8,28.5z"/>
			<path class="st9" d="M25.9,47.1c0.2,0.2,0.4,0.2,0.6,0.2c0.2,0,0.4-0.1,0.6-0.2c0.3-0.3,0.3-0.8,0-1.2l-1.6-1.6
				c-0.3-0.3-0.8-0.3-1.2,0c-0.3,0.3-0.3,0.8,0,1.2L25.9,47.1z"/>
			<path class="st9" d="M43.4,40.6l0.4,0.4c0.4,0.4,0.8,0.6,1.3,0.6c0.4,0,0.8-0.2,1.1-0.4c0.3-0.3,0.5-0.7,0.5-1.1
				c0-0.5-0.2-1-0.5-1.3l-0.4-0.4c-0.7-0.7-1.8-0.8-2.4-0.1C42.6,38.8,42.7,39.9,43.4,40.6z M45,39.9l0,0.8L45,39.9l-0.5-0.5
				L45,39.9z"/>
		</g>
	</g>
</g>
<g id="Layer_20" class="st0">
	<g class="st1">
		<g>
			<rect class="st2" width="56" height="56"/>
		</g>
		<g>
			<path class="st9" d="M28,2.9L6.3,15.4v25.1L28,53.1l21.8-12.6V15.4L28,2.9z M47.9,39.5L28,51L8.1,39.5v-23L28,5l19.9,11.5V39.5z"
				/>
			<path class="st9" d="M18.9,21.3L18.9,21.3c-1.2,1.1-2,2.7-2,4.5c0,0.4,0,0.8,0.1,1.2l-3.9,3.8c0,0,0,0,0,0L13.1,31l0,0
				c-1,1.1-1.7,2.5-1.7,4.1c0,3.3,2.7,6,6,6c2.2,0,4.1-1.2,5.1-2.9c1,1.7,2.9,2.9,5.1,2.9c2.2,0,4-1.1,5.1-2.8l9.8-12.1l0.1,0
				c0.5-0.8,0.8-1.8,0.8-2.8c0-2.9-2.3-5.2-5.2-5.2c-0.2,0-0.5,0-0.7,0c0.1-0.4,0.2-0.9,0.2-1.3c0-2.9-2.3-5.2-5.2-5.2
				c-1.4,0-2.7,0.5-3.7,1.5L18.9,21.3z M22.9,21.6c2.4,0,4.3,1.9,4.3,4.2s-1.9,4.2-4.3,4.2s-4.3-1.9-4.3-4.2S20.5,21.6,22.9,21.6z
				 M17.7,28.8c0.1,0.1,0.2,0.3,0.2,0.4c-0.2,0-0.4,0-0.6,0c0,0,0,0-0.1,0L17.7,28.8z M21.4,35.4c0,2.2-1.8,4-4.1,4
				c-2.4,0-4.2-1.9-4.2-4.2c0-1.2,0.5-2.2,1.3-3l0.1-0.1c0.8-0.8,1.7-1.2,2.8-1.2c2.3,0,4.1,1.8,4.1,4V35.4z M30.9,37.8
				c-0.8,1-2,1.6-3.3,1.6c-2.3,0-4.1-1.8-4.2-4c0-0.1,0-0.2,0-0.3s0-0.2,0-0.3c0.1-2.2,2-4,4.2-4c2.4,0,4.3,1.9,4.3,4.2
				c0,0.8-0.2,1.5-0.6,2.1L30.9,37.8z M36.2,20.5c0.6-0.4,1.2-0.6,1.9-0.6c1.9,0,3.5,1.6,3.5,3.5c0,0.5-0.1,1-0.3,1.4l-7.8,9.6
				c-0.1-0.5-0.2-0.9-0.3-1.3l5.2-5.9l-1.3-1.1l-4.7,5.4c-0.9-1.2-2.2-2-3.8-2.3l7.4-8.5c0,0,0.1-0.1,0.1-0.1L36.2,20.5z M35,14.6
				l-5.3,5.6l1.3,1.2l4.9-5.2c0.1,0.3,0.1,0.6,0.1,0.8c0,0.6-0.2,1.2-0.5,1.7l-0.6,0.7c-0.1,0.1-0.3,0.4-0.3,0.4l-5.7,6.6
				c0-0.2,0-0.3,0-0.5c0-3.1-2.5-5.7-5.6-5.9l6.9-5.6l0,0c0.6-0.5,1.4-0.8,2.2-0.8C33.4,13.5,34.3,13.9,35,14.6z"/>
			<path class="st9" d="M23.2,29.1v-1.7c-1.2,0-1.8-0.6-1.8-1.8h-1.7C19.6,27.4,21.4,29.1,23.2,29.1z"/>
			<path class="st9" d="M27.4,37.3v-0.6c-0.6,0-1.4-0.8-1.4-1.4h-0.7h-0.1h-0.9c0,1.8,1.3,3.1,3.1,3.1v-0.1v-0.8V37.3z"/>
			<path class="st9" d="M17.1,37.3v-0.2v-0.4c-0.6,0-1.3-0.8-1.3-1.4h-0.7H15h-0.9c0,1.8,1.2,3.1,3,3.1v-0.1v-0.8L17.1,37.3z"/>
		</g>
	</g>
</g>
<g id="Layer_21" class="st0">
	<g class="st1">
		<g>
			<rect class="st2" width="56" height="56"/>
		</g>
		<g>
			<path class="st12" d="M32,12.7c0-2-1.8-4-4-4s-4,2-4,4H10.9c-0.6,0-1,0.5-1,1s0.5,1,1,1h34.3c0.6,0,1-0.5,1-1s-0.5-1-1-1H32z
				 M28,10.7c1.1,0,2,1,2,2h-4C26,11.6,26.9,10.7,28,10.7z"/>
			<path class="st12" d="M49.2,22.9h-2.8v-5c0-0.6-0.7-1.1-1.2-1.1H10.9c-0.6,0-1.2,0.6-1.2,1.1v5H6.8C5.1,22.9,4,24.3,4,26V34
				c0,1.7,1.1,3.1,2.8,3.1h2.8v6.9c0,1.7,1.6,3.3,3.3,3.3h30.3c1.7,0,3.3-1.6,3.3-3.3v-6.9h2.8c1.7,0,2.8-1.5,2.8-3.1V26
				C52,24.3,50.9,22.9,49.2,22.9z M6.8,35.1C6.3,35.1,6,34.6,6,34V26c0-0.5,0.2-1,0.8-1h2.8v10.2H6.8z M44.3,44.1
				c0,0.5-0.7,1.2-1.2,1.2H12.9c-0.5,0-1.2-0.7-1.2-1.2V18.8h32.7V44.1z M50,34c0,0.5-0.2,1.1-0.8,1.1h-2.8V24.9h2.8
				c0.5,0,0.8,0.5,0.8,1V34z"/>
			<path class="st12" d="M14.7,27c-0.6,0-1,0.5-1,1v14.1c0,0.6,0.5,1,1,1c0.6,0,1-0.5,1-1V28C15.7,27.4,15.3,27,14.7,27z"/>
		</g>
	</g>
</g>
<g id="Layer_22" class="st0">
	<g class="st1">
		<g>
			<rect class="st2" width="56" height="56"/>
		</g>
		<g>
			<path class="st13" d="M30,20.4c6.5-0.4,11.1-1.6,11.1-2.9"/>
			<path class="st13" d="M6.8,17.5c0,1.7,7.7,3.1,17.2,3.1c0.4,0,0.7,0,1.1,0"/>
			<g>
				<path class="st13" d="M6.8,39.1c0,5.6,4.6,10.1,10.2,10.1h14.1c5.6,0,10.2-4.6,10.2-10.1V16.9c0-5.6-4.6-10.1-10.2-10.1H16.9
					c-5.6,0-10.2,4.6-10.2,10.1V39.1z"/>
			</g>
			<line class="st13" x1="17.4" y1="20.9" x2="17.4" y2="49.1"/>
			<ellipse class="st13" cx="28.7" cy="42.2" rx="3.2" ry="3.2"/>
			<polyline class="st13" points="41.9,18.3 49.3,18.3 49.3,39.6 41.9,39.6 			"/>
			<rect x="25.1" y="14.8" class="st13" width="4.8" height="17"/>
		</g>
	</g>
</g>
<g id="Layer_23" class="st0">
	<g class="st1">
		<g>
			<rect class="st2" width="56" height="56"/>
		</g>
		<path class="st3" d="M8.8,8.8C6.2,8.8,4,11,4,13.6v19.2c0,0.5,0.4,1,1,1s1-0.4,1-1V13.6c0-1.6,1.3-2.9,2.9-2.9h38.4
			c1.6,0,2.9,1.3,2.9,2.9v19.2c0,0.5,0.4,1,1,1s1-0.4,1-1V13.6c0-2.6-2.2-4.8-4.8-4.8H8.8z M14.5,18.4c-0.1,0-0.2,0-0.2,0h-0.1
			c0,0-0.1,0-0.2,0c0,0,0,0-0.1,0c0,0-0.1,0-0.1,0.1l0,0l-0.1,0.1l0,0L11,22.6c-0.3,0.4-0.2,1,0.2,1.3c0.4,0.3,1,0.2,1.3-0.2l1-1.3
			V29c0.1,4.8-3.8,8.6-8.6,8.6c-0.5,0-1,0.4-1,1c0,0.5,0.4,1,1,1c5.8,0,10.6-4.7,10.6-10.6v-6.6l1,1.3c0.2,0.3,0.5,0.4,0.8,0.4
			c0.2,0,0.4,0,0.5-0.2c0.4-0.3,0.5-0.9,0.2-1.3l-2.7-3.8l0,0l-0.1-0.1l0,0c0,0-0.1,0-0.1-0.1c0,0,0,0-0.1,0c0,0-0.1,0-0.2,0h-0.1
			C14.7,18.4,14.6,18.4,14.5,18.4z M23.4,18.4c-0.1,0-0.2,0-0.2,0H23c0,0-0.1,0-0.2,0s0,0-0.1,0c0,0-0.1,0-0.1,0.1l0,0l-0.1,0.1l0,0
			l-2.7,3.8c-0.3,0.4-0.2,1,0.2,1.3s1,0.2,1.3-0.2l1-1.3v10.4c0.1,6.9-5.5,12.5-12.4,12.5c-0.5,0-1,0.4-1,1c0,0.5,0.4,1,1,1
			c7.9,0,14.4-6.5,14.4-14.4V22.4l1,1.3c0.2,0.3,0.5,0.4,0.8,0.4c0.2,0,0.4,0,0.5-0.2c0.4-0.3,0.5-0.9,0.2-1.3l-2.7-3.8l0,0L24,18.6
			l0,0c0,0-0.1,0-0.1-0.1c0,0,0,0-0.1,0c0,0-0.1,0-0.2,0h-0.1C23.5,18.4,23.4,18.4,23.4,18.4z M32.6,18.4c-0.1,0-0.2,0-0.2,0h0
			c-0.1,0-0.1,0-0.2,0.1h0c-0.1,0-0.1,0.1-0.2,0.1c-0.1,0.1-0.1,0.1-0.2,0.2l-2.6,3.8c-0.3,0.4-0.2,1,0.2,1.3s1,0.2,1.3-0.2l0.9-1.3
			v10.4c0,7.9,6.5,14.4,14.4,14.4c0.5,0,1-0.4,1-1c0-0.5-0.4-1-1-1c-6.9,0-12.5-5.6-12.5-12.5V22.4l1,1.3c0.2,0.3,0.5,0.4,0.8,0.4
			c0.2,0,0.4,0,0.5-0.2c0.4-0.3,0.5-0.9,0.2-1.3l-2.7-3.8c0,0,0-0.1-0.1-0.1l0,0c0,0-0.1,0-0.1-0.1c0,0,0,0-0.1,0c0,0-0.1,0-0.1,0
			s-0.1,0-0.1,0s-0.1,0-0.1,0C32.7,18.4,32.7,18.4,32.6,18.4L32.6,18.4z M41.4,18.4c-0.1,0-0.2,0-0.2,0h0c-0.1,0-0.1,0-0.2,0.1h0
			c-0.1,0-0.1,0.1-0.2,0.1c-0.1,0.1-0.1,0.1-0.2,0.2L38,22.7c-0.3,0.4-0.2,1,0.2,1.3c0.4,0.3,1,0.2,1.3-0.2l0.9-1.3V29
			c0,5.8,4.7,10.6,10.6,10.6c0.5,0,1-0.4,1-1c0-0.5-0.4-1-1-1c-4.8,0-8.6-3.9-8.6-8.6v-6.6l1,1.3c0.2,0.3,0.5,0.4,0.8,0.4
			c0.2,0,0.4,0,0.5-0.2c0.4-0.3,0.5-0.9,0.2-1.3l-2.7-3.8c0,0,0-0.1-0.1-0.1l0,0c0,0-0.1,0-0.1-0.1c0,0,0,0-0.1,0s-0.1,0-0.1,0
			c0,0-0.1,0-0.1,0s-0.1,0-0.1,0C41.6,18.4,41.5,18.4,41.4,18.4L41.4,18.4z"/>
	</g>
</g>
<g id="Layer_24" class="st0">
	<g class="st1">
		<g>
			<rect class="st2" width="56" height="56"/>
		</g>
		<g>
			<path class="st9" d="M44.4,7.5H11.6c-2.3,0-4.1,1.8-4.1,4.1v32.8c0,2.2,1.8,4.1,4.1,4.1h32.8c2.3,0,4.1-1.9,4.1-4.1V11.6
				C48.5,9.3,46.7,7.5,44.4,7.5z M46.9,44.4c0,1.4-1.1,2.5-2.5,2.5H11.6c-1.4,0-2.5-1.1-2.5-2.5V17.9h37.7V44.4z M46.9,16.2H9.1
				v-4.6c0-1.4,1.1-2.5,2.5-2.5h32.8c1.4,0,2.5,1.1,2.5,2.5V16.2z"/>
			<path class="st9" d="M18.4,43.3h19.1c2.3,0,4.1-1.9,4.1-4.1V25.5c0-2.2-1.9-4.1-4.1-4.1H18.4c-2.3,0-4.1,1.8-4.1,4.1v13.7
				C14.3,41.4,16.2,43.3,18.4,43.3z M16.6,23.8c0.4-0.4,1.1-0.7,1.8-0.7h19.1c1.4,0,2.5,1.1,2.5,2.5v13.7c0,0.7-0.3,1.2-0.7,1.8
				c-0.5,0.4-1.1,0.7-1.8,0.7H18.4c-1.4,0-2.5-1.1-2.5-2.5V25.5C16,24.8,16.2,24.3,16.6,23.8z"/>
			<rect x="24.6" y="12.1" class="st9" width="6.8" height="1.6"/>
			<rect x="35.5" y="12.1" class="st9" width="6.8" height="1.6"/>
			<path class="st9" d="M16.9,9.3c-1.9,0-3.4,1.5-3.4,3.4s1.5,3.4,3.4,3.4s3.4-1.5,3.4-3.4S18.7,9.3,16.9,9.3z M16.9,14.5
				c-0.9,0-1.8-0.8-1.8-1.8s0.8-1.8,1.8-1.8c0.9,0,1.8,0.8,1.8,1.8S17.9,14.5,16.9,14.5z"/>
		</g>
	</g>
</g>
<g id="Layer_25" class="st0">
	<g class="st1">
		<g>
			<rect class="st2" width="56" height="56"/>
		</g>
		<g>
			<path class="st9" d="M46.3,28.1H9.5c-0.5,0-0.9,0.4-0.9,0.9s0.4,1,0.9,1h0.6c0.8,3.8,2.6,7.3,5.4,9.9c0.2,0.2,0.4,0.3,0.7,0.3
				h2.1l-4.1,12.5c-0.2,0.5,0.1,1,0.6,1.2s1-0.1,1.2-0.6l4.3-13h6.8v9.9c0,0.5,0.4,0.9,0.9,0.9s0.9-0.4,0.9-0.9v-9.9h6.8l4.3,13
				c0.2,0.5,0.7,0.8,1.2,0.6s0.8-0.7,0.6-1.2l-4.1-12.5h2.1c0.2,0,0.5-0.1,0.7-0.3c2.7-2.7,4.6-6.2,5.4-9.9h0.6
				c0.5,0,0.9-0.4,0.9-0.9S46.8,28.1,46.3,28.1z M39.3,38.3H16.5C14.3,36,12.7,33.1,12,30h31.8C43.1,33.2,41.5,36.1,39.3,38.3z"/>
			<path class="st9" d="M9.9,27.1l34.2-13.5c0.5-0.2,0.7-0.7,0.5-1.2s-0.7-0.7-1.2-0.5l-0.5,0.2C38.2,4.8,29.5,1.7,21.6,4.3
				l-0.7-1.7c-0.2-0.5-0.8-0.7-1.2-0.5c-0.5,0.2-0.7,0.8-0.5,1.2L19.8,5C12.3,8.5,8.2,16.7,9.7,25.2l-0.5,0.2
				c-0.5,0.2-0.7,0.7-0.5,1.2C8.8,27.1,9.4,27.3,9.9,27.1z M21.4,6.4c7.1-2.8,15.2-0.2,19.6,6.4L11.5,24.5
				C10.2,16.7,14.3,9.2,21.4,6.4z"/>
		</g>
	</g>
</g>
<g id="Layer_26" class="st0">
	<g class="st1">
		<g>
			<rect class="st2" width="56" height="56"/>
		</g>
		<g>
			<path class="st8" d="M43.6,9.5h-3.9c-9.2,0-18.4,0-27.6,0c-4.4,0-7.1,2.7-7.1,7c0,6.9,0,13.8,0,20.7c0,4.3,2.3,6.9,6.5,7.2
				c0,0,0,0,0,0c0,0,0,0,0,0v1.2c0,0.4,0.3,0.8,0.8,0.8c0.4,0,0.8-0.3,0.8-0.8v-1.2c1,0,5.9,0.1,5.9,0.1l8.9,0l4.5,0
				c0,0,9.1,0,10.5-0.1v1.2c0,0.4,0.3,0.8,0.8,0.8c0.4,0,0.8-0.3,0.8-0.8v-1.2c0,0,0,0,0,0c4.2-0.3,6.6-2.9,6.6-7.3
				c0-5.8,0-11.6,0-17.3V17C51,12.1,48.4,9.5,43.6,9.5z M49.5,37.2c0,3.6-1.7,5.5-5.1,5.7H11.6c-3.4-0.2-5-2.1-5-5.6
				c0-6.9,0-13.8,0-20.7c0-3.5,2-5.5,5.5-5.5c9.2,0,18.4,0,27.6,0h3.9c4,0,5.8,1.9,5.8,5.9l0,2.9C49.5,25.7,49.5,31.4,49.5,37.2z"/>
			<path class="st8" d="M43.1,31.5c-2.2,0-4,1.8-4.1,4c0,1.1,0.4,2.1,1.2,2.9c0.8,0.8,1.8,1.2,2.9,1.2c0,0,0,0,0,0
				c2.3,0,4.1-1.8,4.1-4.1c0-1.1-0.4-2.1-1.2-2.9C45.3,32,44.2,31.5,43.1,31.5z M43.2,37.9C43.2,37.9,43.1,37.9,43.2,37.9
				c-0.6,0-1.2-0.2-1.7-0.7c-0.4-0.4-0.7-1-0.7-1.6c0-1.3,1.1-2.3,2.3-2.3c0.6,0,1.2,0.2,1.6,0.7c0.4,0.4,0.7,1,0.7,1.6
				C45.5,36.9,44.5,37.9,43.2,37.9z"/>
			<path class="st8" d="M46.5,15h-6.7c-0.4,0-0.8,0.3-0.8,0.8s0.3,0.8,0.8,0.8h6.7c0.4,0,0.8-0.3,0.8-0.8S46.9,15,46.5,15z"/>
			<path class="st8" d="M46.4,20.5c0.4,0,0.8-0.3,0.8-0.8c0-0.4-0.3-0.8-0.8-0.8h-6.5c-0.4,0-0.8,0.3-0.8,0.8c0,0.4,0.3,0.8,0.8,0.8
				H46.4z"/>
			<path class="st8" d="M39.9,24.5h6.5c0.4,0,0.8-0.3,0.8-0.8c0-0.4-0.3-0.8-0.8-0.8h-6.5c-0.4,0-0.8,0.3-0.8,0.8
				C39.1,24.1,39.4,24.5,39.9,24.5z"/>
			<path class="st8" d="M39.9,28.4h6.5c0.4,0,0.8-0.3,0.8-0.8c0-0.4-0.3-0.8-0.8-0.8h-6.5c-0.4,0-0.8,0.3-0.8,0.8
				C39.1,28.1,39.4,28.4,39.9,28.4z"/>
			<path class="st8" d="M31.8,15.1c-1.1,0-2.3,0-3.4,0l-5.2,0l-5.3,0c-1.1,0-2.2,0-3.3,0c-3.4,0-5.4,2-5.4,5.3c0,4.4,0,8.8,0,13.2
				c0,3.1,2.1,5.2,5.2,5.2c2.9,0,5.8,0,8.7,0c2.9,0,5.8,0,8.7,0c3.1,0,5.2-2.1,5.2-5.3c0-4.7,0-9,0-13.2
				C37.1,17.2,35.1,15.2,31.8,15.1z M35.6,33.6c0,2.3-1.4,3.7-3.7,3.7c-5.8,0.1-11.6,0.1-17.5,0c-2.3,0-3.7-1.4-3.7-3.7
				c0-4.4,0-8.8,0-13.2c0-2.5,1.3-3.8,3.9-3.8c1.1,0,2.2,0,3.3,0l5.3,0l5.2,0c1.1,0,2.3,0,3.4,0c2.4,0,3.8,1.4,3.8,3.8
				C35.6,24.6,35.6,29,35.6,33.6z"/>
			<path class="st8" d="M18.1,17.7l-5.7,5.7c-0.3,0.3-0.3,0.8,0,1.1c0.1,0.1,0.3,0.2,0.5,0.2c0.2,0,0.4-0.1,0.5-0.2l5.7-5.7
				c0.3-0.3,0.3-0.8,0-1.1C18.9,17.4,18.4,17.4,18.1,17.7z"/>
			<path class="st8" d="M12.8,21.1l2.3-2.3c0.3-0.3,0.3-0.8,0-1.1c-0.3-0.3-0.8-0.3-1.1,0l-2.3,2.3c-0.3,0.3-0.3,0.8,0,1.1
				c0.1,0.1,0.3,0.2,0.5,0.2C12.5,21.4,12.7,21.3,12.8,21.1z"/>
			<circle class="st8" cx="43.1" cy="35.6" r="1.3"/>
		</g>
	</g>
</g>
<g id="Layer_27" class="st0">
	<g class="st1">
		<g>
			<rect class="st2" width="56" height="56"/>
		</g>
		<g>
			<g>
				<path class="st8" d="M46.8,19.6L46.8,19.6c1.2,0,2.2-0.9,2.2-2.1v-1.4c0-0.4-0.3-0.7-0.7-0.7h-1.4v-0.7c0-1.9-1.6-3.5-3.5-3.5
					h-9.1v-0.7c0-1.9-1.6-3.5-3.5-3.5h-5.6c-1.9,0-3.5,1.6-3.5,3.5v0.7h-9.1c-1.9,0-3.5,1.6-3.5,3.5v0.7H7.7c-0.4,0-0.7,0.3-0.7,0.7
					v1.4c0,1.2,0.9,2.1,2.1,2.1h0.1l0.3,2.5c0.1,0.6,0.3,1.2,0.7,1.7H7.7c-0.4,0-0.7,0.3-0.7,0.7v1.4C7,27.1,7.9,28,9.1,28h0.1
					l0.3,2.5c0.1,0.6,0.3,1.2,0.7,1.7c-0.2,0.1-0.4,0.3-0.4,0.5L7.5,43.5c-0.3,1.1,0.3,2.3,1.5,2.6c0.2,0.1,0.4,0.1,0.6,0.1h1.7v0.7
					c0,1.2,0.9,2.1,2.1,2.1h1.4c1.2,0,2.1-0.9,2.1-2.1v-0.7h22.4v0.7c0,1.2,0.9,2.1,2.1,2.1h1.4c1.2,0,2.1-0.9,2.1-2.1v-0.7h1.7
					c0.7,0,1.3-0.3,1.7-0.8c0.4-0.5,0.5-1.2,0.4-1.8l-2.3-10.8c0-0.2-0.2-0.4-0.4-0.5c0.4-0.5,0.6-1.1,0.7-1.7l0.3-2.5h0.1
					c1.2,0,2.1-0.9,2.1-2.1v-1.4c0-0.4-0.3-0.7-0.7-0.7h-2.5c0.4-0.5,0.6-1.1,0.7-1.7L46.8,19.6z M23.1,10.5c0-1.2,0.9-2.1,2.1-2.1
					h5.6c1.2,0,2.1,0.9,2.1,2.1v0.7h-9.8V10.5z M10.5,14.7c0-1.2,0.9-2.1,2.1-2.1h30.8c1.2,0,2.1,0.9,2.1,2.1v0.7h-35V14.7z
					 M15.4,46.9c0,0.4-0.3,0.7-0.7,0.7h-1.4c-0.4,0-0.7-0.3-0.7-0.7v-0.7h2.8V46.9z M43.4,46.9c0,0.4-0.3,0.7-0.7,0.7h-1.4
					c-0.4,0-0.7-0.3-0.7-0.7v-0.7h2.8V46.9z M47.1,43.9c0.1,0.4-0.1,0.8-0.5,0.9c-0.1,0-0.1,0-0.2,0H9.5c-0.2,0-0.4-0.1-0.6-0.3
					c-0.1-0.2-0.2-0.4-0.1-0.7l2.2-10.3h33.9L47.1,43.9z M47.6,25.9c0,0.4-0.3,0.7-0.7,0.7h-0.7c-0.4,0-0.7,0.3-0.7,0.6l-0.4,3.1
					c-0.1,1-1,1.8-2.1,1.8H13c-1.1,0-2-0.8-2.1-1.8l-0.4-3.1c0-0.3-0.3-0.6-0.7-0.6H9.1c-0.4,0-0.7-0.3-0.7-0.7v-0.7h39.2V25.9z
					 M45.5,18.8L45.1,22c-0.1,1-1,1.8-2.1,1.8H13c-1.1,0-2-0.8-2.1-1.8l-0.4-3.1c0-0.3-0.3-0.6-0.7-0.6H9.1c-0.4,0-0.7-0.3-0.7-0.7
					v-0.7h39.2v0.7c0,0.4-0.3,0.7-0.7,0.7h-0.7C45.8,18.2,45.5,18.5,45.5,18.8z"/>
				<rect x="13.3" y="38.5" class="st8" width="2.8" height="1.4"/>
				<rect x="18.2" y="38.5" class="st8" width="2.8" height="1.4"/>
				<rect x="23.1" y="38.5" class="st8" width="2.8" height="1.4"/>
				<path class="st8" d="M40.6,35c-1.2,0-2.1,0.9-2.1,2.1v4.2c0,1.2,0.9,2.1,2.1,2.1c1.2,0,2.1-0.9,2.1-2.1v-4.2
					C42.7,35.9,41.8,35,40.6,35z M40.6,36.4c0.4,0,0.7,0.3,0.7,0.7v2.1h-1.4v-2.1C39.9,36.7,40.2,36.4,40.6,36.4z M40.6,42
					c-0.4,0-0.7-0.3-0.7-0.7v-0.7h1.4v0.7C41.3,41.7,41,42,40.6,42z"/>
				<path class="st8" d="M32.2,35c-2.3,0-4.2,1.9-4.2,4.2c0,2.3,1.9,4.2,4.2,4.2s4.2-1.9,4.2-4.2C36.4,36.9,34.5,35,32.2,35z
					 M32.2,42c-1.5,0-2.8-1.3-2.8-2.8s1.3-2.8,2.8-2.8c1.5,0,2.8,1.3,2.8,2.8S33.7,42,32.2,42z"/>
				
					<rect x="30.2" y="38.5" transform="matrix(0.7071 -0.7071 0.7071 0.7071 -18.2873 34.2502)" class="st8" width="4" height="1.4"/>
			</g>
		</g>
	</g>
</g>
<g id="Layer_28" class="st0">
	<g class="st1">
		<rect class="st2" width="56" height="56"/>
	</g>
	<g class="st1">
		<path class="st8" d="M51.4,46.4h-2.2c0.7-0.7,1.1-1.6,1.1-2.6v-0.2c0-0.3-0.1-0.5-0.2-0.8c0.5-0.3,0.8-0.9,0.8-1.5
			c0-0.6-0.3-1.2-0.8-1.5c0.1-0.2,0.2-0.5,0.2-0.8v-0.1c0-1.1-0.5-2.2-1.4-3c-0.1-0.1-0.2-0.2-0.4-0.2c0.2-0.1,0.3-0.2,0.5-0.3
			c0.8-0.7,1.3-1.7,1.3-2.8v-0.2c0-0.3-0.1-0.5-0.2-0.8c0.5-0.3,0.8-0.9,0.8-1.5c0-0.6-0.3-1.2-0.8-1.5c0.1-0.2,0.2-0.5,0.2-0.8
			v-0.1c0-1.1-0.5-2.2-1.4-3c-0.7-0.6-1.6-0.9-2.5-0.9h-9.5c-0.9,0-1.8,0.3-2.4,0.9c-0.8,0.7-1.3,1.7-1.3,2.8v0.2
			c0,0.3,0.1,0.5,0.2,0.8c-0.5,0.3-0.8,0.9-0.8,1.5c0,0.6,0.3,1.2,0.8,1.5c-0.1,0.2-0.2,0.5-0.2,0.8v0.1c0,1.1,0.5,2.2,1.4,3
			c0.1,0.1,0.2,0.2,0.4,0.2c-0.2,0.1-0.3,0.2-0.5,0.3c-0.8,0.7-1.3,1.7-1.3,2.8V39c0,0.3,0.1,0.5,0.2,0.8c-0.5,0.3-0.8,0.9-0.8,1.5
			c0,0.6,0.3,1.2,0.8,1.5c-0.1,0.2-0.2,0.5-0.2,0.8v0.1c0,1,0.4,2,1.1,2.7h-4.2c0.1-0.3,0.2-0.6,0.2-0.9c0-0.9-0.7-1.7-1.5-1.9
			c0.1-1.2-0.5-2.9-1.1-3.8h0.6c1.1,0,2-0.9,2-2c0-1-0.7-1.8-1.6-1.9c0.2-1.2-0.3-2.9-0.9-3.9h0.5c1.1,0,2-0.9,2-2s-0.9-2-2-2H27
			c1-0.9,1.6-2.1,1.6-3.5c0-2.3-1.7-4.3-4-4.6c0.4-0.6,0.6-1.3,0.6-2c0-1.9-1.4-3.3-3.7-3.9c-2.7-0.7-2.9-2.7-2.9-2.9
			c0-0.3-0.3-0.6-0.6-0.6c-2.2,0-3.9,1.8-3.9,3.9c0,0.3,0,0.5,0.1,0.8c-2.1,0.1-3.8,1.9-3.8,4c0,0.6,0.1,1.2,0.4,1.7
			c-1.9,0.4-3.3,2.1-3.3,4.1c0,1.2,0.5,2.2,1.2,2.9h-1c-1.1,0-2,0.9-2,2s0.9,2,2,2h0.1c-0.6,1.1-1.2,2.9-0.9,4.1
			c-0.7,0.3-1.1,1-1.1,1.8c0,1.1,0.9,2,2,2h0.2c-0.6,1-1.2,2.7-1,3.9c-0.7,0.3-1.1,1-1.1,1.8c0,0.3,0.1,0.6,0.2,0.9H4.6
			C4.3,46.4,4,46.7,4,47v4.4C4,51.7,4.3,52,4.6,52h46.8c0.3,0,0.6-0.3,0.6-0.6V47C52,46.7,51.7,46.4,51.4,46.4z M34.4,43.6
			c0-0.3,0.2-0.5,0.5-0.5h13.6c0.3,0,0.5,0.2,0.5,0.5v0.2c0,0.7-0.3,1.4-0.9,1.9c-0.5,0.4-1,0.6-1.6,0.6H37c-0.6,0-1.2-0.2-1.7-0.6
			C34.8,45.2,34.4,44.5,34.4,43.6L34.4,43.6L34.4,43.6z M34.4,41.9c-0.3,0-0.6-0.3-0.6-0.6s0.3-0.6,0.6-0.6h0.5h13.6h0.5
			c0.3,0,0.6,0.3,0.6,0.6c0,0.3-0.3,0.6-0.6,0.6h-0.5H34.9H34.4z M34.4,30.7c-0.3,0-0.6-0.3-0.6-0.6c0-0.3,0.3-0.6,0.6-0.6h0.5h13.6
			h0.5c0.3,0,0.6,0.3,0.6,0.6c0,0.3-0.3,0.6-0.6,0.6h-0.5H34.9H34.4z M34.4,27.5c0-0.7,0.3-1.4,0.9-1.9c0.5-0.4,1-0.6,1.6-0.6h9.5
			c0.6,0,1.2,0.2,1.7,0.6c0.6,0.5,1,1.2,1,2v0.1c0,0.3-0.2,0.5-0.5,0.5H34.9c-0.3,0-0.5-0.2-0.5-0.5L34.4,27.5L34.4,27.5z
			 M34.4,32.5L34.4,32.5c0-0.3,0.2-0.6,0.5-0.6h13.6c0.3,0,0.5,0.2,0.5,0.5v0.2c0,0.7-0.3,1.4-0.9,1.9c-0.5,0.4-1,0.6-1.6,0.6h-0.1
			H37c-0.6,0-1.2-0.2-1.7-0.6C34.8,34,34.4,33.2,34.4,32.5z M34.4,38.8c0-0.7,0.3-1.4,0.9-1.9c0.5-0.4,1-0.6,1.6-0.6H37h9.3
			c0.6,0,1.2,0.2,1.7,0.6c0.6,0.5,1,1.2,1,2V39c0,0.3-0.2,0.5-0.5,0.5H34.9c-0.3,0-0.5-0.2-0.5-0.5L34.4,38.8L34.4,38.8z M29.1,45.6
			c0,0.4-0.4,0.8-0.8,0.8H7.7c-0.4,0-0.8-0.4-0.8-0.8c0-0.4,0.4-0.8,0.8-0.8h20.7C28.8,44.8,29.1,45.1,29.1,45.6z M8.8,40.5
			c0.6,0.6,1.4,0.7,2,0.8c0.3,0.1,0.6,0.1,0.9,0.2c1.4,0.5,1.7,1.4,1.8,2H8C7.9,42.7,8.5,41.2,8.8,40.5z M17.7,40.3
			c0.4,0.7,1.1,1.1,1.3,1.2c1.1,0.8,1.4,1.6,1.4,2.1H15c0.1-0.5,0.3-1.3,1.4-2.1C16.6,41.4,17.3,41,17.7,40.3z M27.6,43.6H22
			c0.1-0.6,0.5-1.5,1.8-2c0.3-0.1,0.6-0.2,0.9-0.2c0.7-0.1,1.4-0.3,2-0.8C27.2,41.2,27.7,42.7,27.6,43.6z M24.5,40.2
			c-0.3,0.1-0.7,0.1-1,0.3c-1.2,0.4-1.9,1.1-2.2,1.8c-0.3-0.6-0.8-1.2-1.6-1.8c0,0,0,0-0.1,0c-0.2-0.1-0.5-0.3-0.7-0.6h6.8
			C25.3,40,24.9,40.1,24.5,40.2z M8.1,35.9c-0.3-0.8,0.3-2.6,0.8-3.3c0.6,0.6,1.4,0.7,2,0.8c0.3,0.1,0.6,0.1,0.9,0.2
			c1.6,0.6,1.8,1.7,1.9,2.3H8.1z M17.7,32.5c0.4,0.7,1.1,1.1,1.3,1.2c1.2,0.8,1.4,1.7,1.4,2.2H15c0-0.4,0.3-1.3,1.4-2.2
			C16.6,33.6,17.3,33.2,17.7,32.5z M22,35.9c0-0.5,0.3-1.7,1.9-2.3c0.3-0.1,0.6-0.2,0.9-0.2c0.7-0.1,1.4-0.3,2-0.8
			c0.4,0.8,1.1,2.5,0.8,3.3H22z M24.5,32.2c-0.3,0.1-0.7,0.1-1,0.3c-1.2,0.4-1.9,1.2-2.3,1.9c-0.3-0.6-0.8-1.2-1.6-1.7
			c0,0,0,0-0.1,0c-0.2-0.1-0.5-0.4-0.8-0.7h6.5C25.1,32.1,24.8,32.2,24.5,32.2z M8.7,25.1c0-1.6,1.3-2.9,2.9-2.9c0,0,0.1,0,0.2,0
			c0.2,0,0.5-0.1,0.6-0.3c0.1-0.2,0.1-0.5-0.1-0.7c-0.5-0.5-0.7-1.2-0.7-1.9c0-1.5,1.3-2.8,2.8-2.8c0.2,0,0.3,0,0.5,0.1
			c0.2,0,0.4,0,0.6-0.2c0.1-0.2,0.2-0.4,0.1-0.6c-0.2-0.4-0.3-0.8-0.3-1.2c0-1.3,0.9-2.4,2.2-2.7c0.2,1,1,2.7,3.7,3.4
			c1.1,0.3,2.8,0.9,2.8,2.7c0,0.8-0.4,1.6-1.1,2.1c-0.2,0.2-0.3,0.5-0.2,0.7c0.1,0.3,0.4,0.4,0.6,0.4c0.2,0,0.4,0,0.6,0
			c1.9,0,3.5,1.6,3.5,3.5c0,1.9-1.6,3.5-3.6,3.5H11.6C10,28.1,8.7,26.7,8.7,25.1z M6.9,30c0-0.4,0.4-0.8,0.8-0.8h20.7
			c0.4,0,0.8,0.4,0.8,0.8s-0.4,0.8-0.8,0.8H7.7C7.3,30.8,6.9,30.5,6.9,30z M16.6,32c-0.2,0.3-0.6,0.5-0.7,0.7c0,0,0,0-0.1,0
			c-0.7,0.5-1.1,1-1.4,1.5c-0.4-0.7-1.1-1.3-2.2-1.7c-0.3-0.1-0.7-0.2-1-0.3c-0.3-0.1-0.6-0.1-0.8-0.2L16.6,32z M6.9,37.9
			c0-0.4,0.4-0.8,0.8-0.8h20.7c0.4,0,0.8,0.4,0.8,0.8c0,0.4-0.4,0.8-0.8,0.8H7.7C7.3,38.7,6.9,38.3,6.9,37.9z M16.5,39.9
			c-0.2,0.3-0.5,0.5-0.7,0.6c0,0,0,0-0.1,0c-0.7,0.5-1.2,1.1-1.5,1.6c-0.4-0.7-1.1-1.3-2.1-1.6c-0.3-0.1-0.7-0.2-1-0.3
			c-0.4-0.1-0.8-0.2-1.2-0.4H16.5z M50.8,50.8H5.2v-3.2h45.6V50.8z"/>
		<path class="st8" d="M51.4,4H4.6C4.3,4,4,4.3,4,4.6V9c0,0.3,0.3,0.6,0.6,0.6h30.6v9.5c0,0.3,0.3,0.6,0.6,0.6h11.9
			c0.3,0,0.6-0.3,0.6-0.6V9.6h3.1C51.7,9.6,52,9.3,52,9V4.6C52,4.3,51.7,4,51.4,4z M47.1,18.5H36.4V9.6h10.7V18.5z M50.8,8.4H5.2
			V5.2h45.6V8.4z"/>
		<path class="st8" d="M38.8,13.1h5.8c0.3,0,0.6-0.3,0.6-0.6c0-0.3-0.3-0.6-0.6-0.6h-5.8c-0.3,0-0.6,0.3-0.6,0.6
			C38.2,12.8,38.5,13.1,38.8,13.1z"/>
		<path class="st8" d="M44.6,15.1h-5.8c-0.3,0-0.6,0.3-0.6,0.6s0.3,0.6,0.6,0.6h5.8c0.3,0,0.6-0.3,0.6-0.6S45,15.1,44.6,15.1z"/>
		<path class="st8" d="M24.8,24.5c0,0.3,0.3,0.6,0.6,0.6c0.3,0,0.6-0.3,0.6-0.6c0-0.5-0.2-1-0.6-1.3c-0.3-0.3-1-0.7-2.2-0.6
			c-0.3,0-0.6,0.3-0.6,0.6c0,0.3,0.3,0.6,0.6,0.6c0.6,0,1,0.1,1.3,0.3C24.8,24.2,24.8,24.3,24.8,24.5z"/>
		<path class="st8" d="M20.5,16.5c-1.7-0.4-2.2-1.3-2.2-1.4c-0.1-0.2-0.3-0.3-0.5-0.3c-0.3,0-0.6,0.3-0.6,0.6c0,0.1,0,0.2,0.1,0.3
			c0.1,0.3,0.9,1.4,3,2c0.4,0.1,0.9,0.3,0.9,0.8c0,0.3,0.3,0.6,0.6,0.6c0.3,0,0.6-0.3,0.6-0.6C22.3,17.5,21.6,16.8,20.5,16.5z"/>
	</g>
</g>
<g id="Layer_29" class="st0">
	<g class="st1">
		<rect class="st2" width="56" height="56"/>
	</g>
	<g class="st1">
		<path class="st9" d="M51.3,11.2c0.9-0.9,0.9-2.4,0-3.3L48,4.7c-0.9-0.9-2.4-0.9-3.3,0l-16,16v-4.3C28.8,9.6,23.2,4,16.4,4
			S4,9.6,4,16.4v3.9c0,2.1,1.7,3.9,3.9,3.9s3.9-1.7,3.9-3.9v-3.9c0-2.6,2.1-4.6,4.6-4.6s4.6,2.1,4.6,4.6v12L4.7,44.8
			c-0.4,0.4-0.7,1-0.7,1.6s0.2,1.2,0.7,1.6L8,51.3C8.4,51.8,9,52,9.6,52s1.2-0.2,1.6-0.7l9.8-9.8v6.6c0,2.1,1.7,3.9,3.9,3.9
			s3.9-1.7,3.9-3.9V33.8L51.3,11.2z M45.8,5.8c0.3-0.3,0.8-0.3,1.1,0l3.3,3.3c0.3,0.3,0.3,0.8,0,1.1l-6.5,6.5
			c-0.3-0.4-0.5-0.8-0.7-1.2L41.6,16c0.3,0.7,0.6,1.3,1,1.8l-7.1,7.1c-2-2.7-1-7.1-0.7-8l6.3-6.3c-0.1,1-0.2,2.2,0,3.3l1.5-0.2
			c-0.3-2.2,0.2-4.4,0.4-5.1L45.8,5.8z M32.8,18.8c-0.2,2.1-0.2,5,1.5,7.2l-5.6,5.6v-8.8L32.8,18.8z M22.6,20.6l4.6-4.6
			c0,0.1,0,0.3,0,0.4v9.7l-4.6,4.6V20.6z M10.2,20.3c0,1.3-1,2.3-2.3,2.3s-2.3-1-2.3-2.3v-3.9h4.6V20.3z M10.4,14.8H5.7
			c0.5-3.2,2.3-6,5-7.6l2.3,4C11.7,12.1,10.8,13.3,10.4,14.8z M14.4,10.5L12,6.5c1.3-0.6,2.8-0.9,4.4-0.9c1.6,0,3,0.3,4.4,0.9
			l-2.3,4.1c-0.6-0.2-1.3-0.3-2-0.3C15.7,10.2,15,10.3,14.4,10.5z M19.8,11.2l2.3-4c2.4,1.5,4.2,3.9,4.8,6.8l-4.4,4.4v-2
			C22.6,14.2,21.5,12.3,19.8,11.2z M10.2,50.2c-0.3,0.3-0.8,0.3-1.1,0l-3.3-3.3c-0.1-0.1-0.2-0.3-0.2-0.5s0.1-0.4,0.2-0.5l6.5-6.5
			c-0.2,2.1-0.2,5,1.5,7.2L10.2,50.2z M14.9,45.4c-2-2.7-1-7.1-0.7-8l6.8-6.8v8.8L14.9,45.4z M24.9,50.5c-1.3,0-2.3-1-2.3-2.3v-2.8
			l2.1-2.1l-1.1-1.1l-1,1V33l4.6-4.6v10.2l-2.4,2.4l1.1,1.1l1.3-1.3v7.4C27.2,49.4,26.2,50.5,24.9,50.5z"/>
		<path class="st9" d="M52,27.6c0-1.1-0.9-1.9-1.9-1.9H40c-1.1,0-1.9,0.9-1.9,1.9c0,0.4,0.1,0.8,0.4,1.2l1.7,2.3
			c-1.3,0.8-2.1,2.3-2.1,3.9v7.7c0,1.6,0.8,3.1,2.1,3.9l-1.7,2.3c-0.2,0.3-0.4,0.7-0.4,1.2c0,1.1,0.9,1.9,1.9,1.9h10.1
			c1.1,0,1.9-0.9,1.9-1.9c0-0.4-0.1-0.8-0.4-1.2l-1.7-2.3c1.3-0.8,2.1-2.3,2.1-3.9V35c0-1.6-0.8-3.1-2.1-3.9l1.7-2.3
			C51.9,28.4,52,28,52,27.6z M50.4,49.8c0.1,0.1,0.1,0.1,0.1,0.2c0,0.2-0.2,0.4-0.4,0.4H40c-0.2,0-0.4-0.2-0.4-0.4
			c0-0.1,0-0.2,0.1-0.2l2-2.6c0.3,0.1,0.7,0.1,1.1,0.1h4.6c0.4,0,0.7,0,1.1-0.1L50.4,49.8z M50.4,42.7c0,1.7-1.4,3.1-3.1,3.1h-4.6
			c-1.7,0-3.1-1.4-3.1-3.1V35c0-1.7,1.4-3.1,3.1-3.1h4.6c1.7,0,3.1,1.4,3.1,3.1V42.7z M50.4,27.8l-2,2.6c-0.3-0.1-0.7-0.1-1.1-0.1
			h-4.6c-0.4,0-0.7,0-1.1,0.1l-2-2.6c-0.1-0.1-0.1-0.1-0.1-0.2c0-0.2,0.2-0.4,0.4-0.4h10.1c0.2,0,0.4,0.2,0.4,0.4
			C50.4,27.7,50.4,27.8,50.4,27.8z"/>
		<path class="st9" d="M41.2,35.7v4.6h1.5v-4.6c0-0.4,0.3-0.8,0.8-0.8h0.8v-1.5h-0.8C42.2,33.4,41.2,34.5,41.2,35.7z"/>
		<rect x="41.2" y="41.9" class="st9" width="1.5" height="1.5"/>
	</g>
</g>
<g id="Layer_30" class="st0">
	<g class="st1">
		<rect class="st2" width="56" height="56"/>
	</g>
	<path class="st14" d="M47.9,38.8v-8.8c0.6-3.4-1.4-9.5-5.3-15.5c-2.4-3.8-5.2-7-7.8-9c-2.8-2.2-5.2-2.9-6.7-1.9
		c-0.5,0.3-0.8,0.8-1.1,1.3h0l-0.1,0.5c-1,3.2,1.1,9.7,5.2,16c0.5,0.8,1.1,1.7,1.7,2.4c-0.5,0-1-0.1-1.5-0.1
		c-1.3-0.1-2.7-0.1-4.1-0.1C18.3,23.5,8,25.7,8,29.7v16.7v0.1V47c0,3.9,10.3,6,19.9,6c9.7,0,19.9-2.1,19.9-6v-0.5v0v-6.4h-1.3v3.7
		c0,0,0,0.1,0,0.1l0,0c0,0.1-0.1,0.3-0.1,0.4c-0.2,0.3-0.5,0.7-1,1.1c-0.1,0-0.1,0.1-0.2,0.1l0,0c-0.8,0.5-1.8,1-3.1,1.4l-0.1,0
		c-3.6,1.2-8.7,1.8-14.1,1.8c-2.5,0-5-0.1-7.3-0.4v-5.4h-1.3v5.3c-1.8-0.3-3.5-0.6-4.9-1c-3.3-1-5.2-2.2-5.2-3.4V32.1
		c3,2.6,11,4,18.7,4c5.5,0,10.7-0.7,14.4-1.9l0.1,0c1.4-0.4,2.5-0.9,3.4-1.5l0.2-0.1c0.1,0,0.1-0.1,0.2-0.1c0.1-0.1,0.2-0.1,0.3-0.2
		c0,0,0.1-0.1,0.1-0.1v2.5c-0.2,0.2-0.3,0.3-0.5,0.5c-0.1,0-0.1,0.1-0.2,0.1l0,0c-0.5,0.3-1.2,0.7-1.9,1c-0.4,0.1-0.8,0.3-1.2,0.4
		l-0.1,0c-3.6,1.2-8.7,1.8-14.1,1.8c-3,0-5.8-0.2-8.4-0.6l-0.7-0.1V41h1.3v-1.7c2.5,0.3,5.1,0.5,7.9,0.5c5.5,0,10.7-0.7,14.4-1.9
		l0.1,0c0.5-0.2,0.9-0.3,1.4-0.5c0.8-0.3,1.4-0.6,2-1l0.2-0.1c0,0,0,0,0.1,0v2.5L47.9,38.8L47.9,38.8z M27.9,50
		c5.5,0,10.7-0.7,14.4-1.9l0.1,0c1.4-0.4,2.5-0.9,3.4-1.5l0.2-0.1c0.1-0.1,0.2-0.1,0.3-0.2c0.1-0.1,0.3-0.2,0.4-0.3v0.4v0V47
		c0,0.8-1.4,2.1-5.2,3.2c-3.6,1-8.4,1.5-13.5,1.5c-5.1,0-9.9-0.5-13.5-1.5c-3.8-1.1-5.2-2.3-5.2-3.2v-0.5v-0.1v-0.3
		C12.3,48.7,20.3,50,27.9,50z M41.5,15.1c3.7,5.7,5.7,11.6,5.1,14.6l0,0h0c0,0,0,0,0,0.1l0,0v0c0,0.1-0.1,0.3-0.1,0.4
		c0-0.9-0.1-1.9-0.4-3c-0.8-3.3-2.5-7.3-5-11.1C36.8,9.5,31.8,5,28.5,4.7c0.1-0.1,0.1-0.1,0.2-0.2C30.7,3.2,36.5,7.2,41.5,15.1z
		 M27.9,6c2.4-0.2,7.5,3.6,12.1,10.8c2.4,3.8,4.1,7.6,4.9,10.7c0.4,1.6,0.4,2.9,0.3,3.9c-2.1,0.2-6-2.7-9.6-7.3
		c-0.9-1.1-1.7-2.3-2.5-3.5C29.3,14.9,27.3,9,27.9,6z M40.6,30.9c0.1,0.1,0.2,0.1,0.3,0.2c-2.9,0.9-7.6,1.4-12.7,1.4
		c-4.2,0-8.2-0.4-11.2-1c-3.4-0.7-4.2-1.6-4.2-1.8c0-0.2,0.8-1.1,4.2-1.8c3-0.6,6.9-1,11.2-1c3,0,5.9,0.2,8.5,0.5
		C38,28.8,39.3,30,40.6,30.9z M42.1,32.9L42.1,32.9c-3.7,1.2-8.8,1.9-14.2,1.9c-5.1,0-9.9-0.6-13.5-1.6c-3.3-1-5.2-2.2-5.2-3.4
		c0-1.2,1.9-2.4,5.2-3.4c3.6-1.1,8.4-1.6,13.5-1.6c1.4,0,2.7,0,4,0.1c0.9,0.1,1.8,0.1,2.7,0.2c0.2,0.3,0.5,0.6,0.7,0.9
		c-2.2-0.2-4.7-0.4-7.2-0.4c-5.8,0-16.6,0.8-16.6,4.1s10.9,4.1,16.6,4.1c5.9,0,11.2-0.7,14.1-1.8c0.4,0.2,0.8,0.3,1.1,0.5
		C43,32.6,42.6,32.7,42.1,32.9z"/>
</g>
<g id="Layer_31" class="st0">
	<g class="st1">
		<rect class="st2" width="56" height="56"/>
	</g>
	<g class="st1">
		<path class="st8" d="M8.9,37c-0.1,0-0.1,0-0.2,0.1c0,0,0,0,0,0c0,0,0,0,0,0c-0.1,0.1-0.2,0.2-0.2,0.3c0,0,0,0.1,0,0.1c0,0,0,0,0,0
			v0v6.9c0,0.3,0.2,0.5,0.5,0.6l18.8,8.7c0.1,0,0.2,0.1,0.2,0.1s0.2,0,0.2-0.1L47,45.1c0.3,0,0.5-0.3,0.5-0.6v-7c0-0.1,0-0.1,0-0.2
			c0,0,0,0,0,0c0-0.1-0.1-0.1-0.1-0.2c0,0,0,0,0,0c0,0,0,0-0.1-0.1c0,0,0,0,0,0c0,0-0.1,0-0.1,0c0,0,0,0-0.1,0l-18.8-8.7
			c-0.2-0.1-0.3-0.1-0.5,0L8.9,37C8.9,37,8.9,37,8.9,37z M46.4,44.1L28,52.6L9.6,44.1v-5.7l18.1,8.4c0.1,0,0.2,0.1,0.2,0.1
			s0.2,0,0.2-0.1l18.1-8.4V44.1z M28,29.5l17.5,8.1L28,45.6l-17.5-8.1L28,29.5z"/>
		<path class="st8" d="M26.2,37.8c0.2-0.1,0.3-0.3,0.3-0.5c0-0.2-0.1-0.4-0.3-0.5c0,0-0.1-0.1-0.2-0.1l-5.9-2.7
			c-0.2-0.1-0.3-0.1-0.5,0l-5.9,2.7c0,0-0.1,0-0.1,0.1c-0.2,0.1-0.3,0.3-0.3,0.5c0,0.2,0.1,0.4,0.3,0.5c0,0,0.1,0.1,0.2,0.1l5.9,2.7
			c0.1,0,0.2,0.1,0.2,0.1c0.1,0,0.2,0,0.2-0.1l5.9-2.7C26.1,37.9,26.1,37.9,26.2,37.8z M19.9,39.5l-4.6-2.1l4.6-2.1l4.6,2.1
			L19.9,39.5z"/>
		<path class="st8" d="M21.8,34.2c0,0,0.1,0.1,0.1,0.1l5.9,2.7c0.1,0,0.2,0.1,0.2,0.1c0.1,0,0.2,0,0.2-0.1l5.9-2.7
			c0,0,0.1,0,0.1-0.1c0.2-0.1,0.3-0.3,0.3-0.5s-0.1-0.4-0.3-0.5c0,0-0.1-0.1-0.1-0.1l-5.9-2.7c-0.2-0.1-0.3-0.1-0.5,0L22,33.1
			c0,0-0.1,0-0.1,0.1c-0.2,0.1-0.3,0.3-0.3,0.5C21.6,33.9,21.7,34.1,21.8,34.2z M28.1,31.6l4.6,2.1l-4.6,2.1l-4.6-2.1L28.1,31.6z"/>
		<path class="st8" d="M34,41.6c0,0,0.1,0,0.1-0.1c0.2-0.1,0.3-0.3,0.3-0.5c0-0.2-0.1-0.4-0.3-0.5c0,0-0.1-0.1-0.2-0.1l-5.9-2.7
			c-0.2-0.1-0.3-0.1-0.5,0l-5.9,2.7c0,0-0.1,0-0.1,0.1c-0.2,0.1-0.3,0.3-0.3,0.5s0.1,0.4,0.3,0.5c0,0,0.1,0.1,0.2,0.1l5.9,2.7
			c0.1,0,0.2,0.1,0.2,0.1c0.1,0,0.2,0,0.2-0.1L34,41.6z M23.3,41l4.6-2.1l4.6,2.1l-4.6,2.1L23.3,41z"/>
		<path class="st8" d="M29.8,36.9c-0.2,0.1-0.3,0.3-0.3,0.5c0,0.2,0.1,0.4,0.3,0.5c0,0,0.1,0.1,0.2,0.1l5.9,2.7
			c0.1,0,0.2,0.1,0.2,0.1c0.1,0,0.2,0,0.2-0.1l5.9-2.7c0,0,0.1,0,0.1-0.1c0.2-0.1,0.3-0.3,0.3-0.5c0-0.2-0.1-0.4-0.3-0.5
			c0,0-0.1-0.1-0.2-0.1l-5.9-2.7c-0.2-0.1-0.3-0.1-0.5,0l-5.9,2.7C29.9,36.8,29.8,36.8,29.8,36.9z M36,35.2l4.6,2.1L36,39.5
			l-4.6-2.1L36,35.2z"/>
		<path class="st8" d="M16.9,28.9c0,0.3,0.3,0.6,0.6,0.6c0.3,0,0.6-0.3,0.6-0.6c0-1.5,0.5-2.2,1.1-3.1c0.6-0.9,1.3-1.9,1.3-3.7
			c0-1.9-0.7-2.9-1.3-3.7c-0.6-0.8-1.1-1.6-1.1-3.1c0-1.5,0.5-2.2,1.1-3.1c0.6-0.9,1.3-1.9,1.3-3.7c0-0.3-0.3-0.6-0.6-0.6
			s-0.6,0.3-0.6,0.6c0,1.5-0.5,2.2-1.1,3.1c-0.6,0.9-1.3,1.8-1.3,3.7c0,1.9,0.7,2.9,1.3,3.7c0.6,0.8,1.1,1.6,1.1,3.1
			c0,1.5-0.5,2.2-1.1,3.1C17.6,26,16.9,27,16.9,28.9z"/>
		<path class="st8" d="M26.3,23.2c0,0.3,0.3,0.6,0.6,0.6c0.3,0,0.6-0.3,0.6-0.6c0-1.5,0.5-2.2,1.1-3.1c0.6-0.9,1.3-1.9,1.3-3.7
			s-0.7-2.9-1.3-3.7c-0.6-0.8-1.1-1.6-1.1-3.1c0-1.5,0.5-2.2,1.1-3.1c0.6-0.9,1.3-1.9,1.3-3.7c0-0.3-0.3-0.6-0.6-0.6
			c-0.3,0-0.6,0.3-0.6,0.6c0,1.5-0.5,2.2-1.1,3.1c-0.6,0.9-1.3,1.9-1.3,3.7c0,1.9,0.7,2.9,1.3,3.7c0.6,0.8,1.1,1.6,1.1,3.1
			c0,1.5-0.5,2.2-1.1,3.1C27,20.3,26.3,21.3,26.3,23.2z"/>
		<path class="st8" d="M35.7,28.9c0,0.3,0.3,0.6,0.6,0.6c0.3,0,0.6-0.3,0.6-0.6c0-1.5,0.5-2.2,1.1-3.1c0.6-0.9,1.3-1.9,1.3-3.7
			c0-1.9-0.7-2.9-1.3-3.7c-0.6-0.8-1.1-1.6-1.1-3.1c0-1.5,0.5-2.2,1.1-3.1c0.6-0.9,1.3-1.9,1.3-3.7c0-0.3-0.3-0.6-0.6-0.6
			c-0.3,0-0.6,0.3-0.6,0.6c0,1.5-0.5,2.2-1.1,3.1c-0.6,0.9-1.3,1.8-1.3,3.7c0,1.9,0.7,2.9,1.3,3.7c0.6,0.8,1.1,1.6,1.1,3.1
			c0,1.5-0.5,2.2-1.1,3.1C36.4,26,35.7,27,35.7,28.9z"/>
	</g>
</g>
<g id="Layer_32" class="st0">
	<g class="st1">
		<rect class="st2" width="56" height="56"/>
	</g>
	<path class="st15" d="M47.6,6.8c-0.6-0.3-1.3-0.3-1.8,0.1l-3.8,2.5c-0.5,0.3-0.7,1-0.3,1.5c0.3,0.5,1,0.6,1.5,0.3L46.6,9v33.4
		c0,0.2-0.2,0.5-0.8,0.9l-4.3,3.1V15.9c0-2.7-2.2-4.9-4.9-4.9H12.2c-0.7,0-1.5,0.2-2.1,0.5c1.5-3,5.5-4.7,8.5-4.7h23.2
		c0.6,0,1.1-0.5,1.1-1.1s-0.5-1.1-1.1-1.1H18.6c-2.4,0-5.1,0.9-7.2,2.3c-2.5,1.7-4,4.1-4.1,6.8c-0.1,1.3-0.1,2.2,0,3
		c0,0.2,0,0.4,0,0.6v29.3c0,2.7,2.2,4.9,4.9,4.9h24.3c0.6,0,1.1-0.1,1.7-0.3c0.2,0,0.3-0.1,0.5-0.2l0.1-0.1c0.4-0.2,0.8-0.5,1.1-0.8
		l7.2-5.1c1.1-0.8,1.7-1.7,1.7-2.7V8.8C48.8,7.9,48.3,7.1,47.6,6.8z M12.2,49.3c-1.5,0-2.7-1.2-2.7-2.7V17.7c0-0.2,0-0.3,0-0.5v-1.3
		c0-1.5,1.2-2.7,2.7-2.7h24.3c1.5,0,2.7,1.2,2.7,2.7v30.6c0,0.7-0.3,1.4-0.8,1.9L37.6,49c-0.3,0.2-0.7,0.3-1.1,0.3H12.2z M35.3,43
		c0,0.6-0.5,1.1-1.1,1.1H14.4c-0.6,0-1.1-0.5-1.1-1.1s0.5-1.1,1.1-1.1h19.8C34.8,41.9,35.3,42.4,35.3,43z M24.3,40.3
		c6,0,10.9-4.9,10.9-10.9v-3.3c0-0.6-0.5-1.1-1.1-1.1H20.4l-4.3-7.4c-0.3-0.5-1-0.7-1.5-0.4c-0.5,0.3-0.7,1-0.4,1.5l3.6,6.3h-3.3
		c-0.6,0-1.1,0.5-1.1,1.1v3.3C13.5,35.4,18.3,40.3,24.3,40.3z M15.7,27.3h3.4l1.5,2.6c-0.7,1-0.8,2.3-0.2,3.4l0.8,1.4
		c0.5,0.9,1.6,1.5,2.7,1.5c0.5,0,1.1-0.1,1.5-0.4c1.5-0.8,2-2.7,1.1-4.2l-0.8-1.4c-0.5-0.9-1.6-1.5-2.7-1.5c-0.2,0-0.4,0-0.6,0.1
		l-0.8-1.4H33v2.2c0,4.8-3.9,8.7-8.7,8.7c-4.8,0-8.7-3.9-8.7-8.7L15.7,27.3L15.7,27.3z M22.6,30.9L22.6,30.9
		C22.6,30.9,22.6,30.9,22.6,30.9c0.2-0.1,0.3-0.1,0.4-0.1c0.3,0,0.6,0.2,0.8,0.4l0.8,1.4c0.2,0.4,0.1,1-0.3,1.2
		C24.2,33.9,24,34,23.9,34c-0.3,0-0.6-0.2-0.8-0.4l-0.8-1.4C22,31.7,22.2,31.2,22.6,30.9z"/>
</g>
<g id="Layer_33" class="st0">
	<g class="st1">
		<rect class="st2" width="56" height="56"/>
	</g>
	<g class="st1">
		<g>
			<path class="st8" d="M5,26c-0.4,0-0.8-0.3-1-0.7c-0.1-0.5,0.2-1.1,0.7-1.2l46-12c0.5-0.1,1.1,0.2,1.2,0.7
				c0.1,0.5-0.2,1.1-0.7,1.2l-46,12C5.2,26,5.1,26,5,26z"/>
		</g>
		<g>
			<path class="st8" d="M5,52c-0.2,0-0.4-0.1-0.6-0.2C4.1,51.6,4,51.3,4,51V41c0-0.6,0.4-1,1-1c1.7,0,3-1.3,3-3s-1.3-3-3-3
				c-0.6,0-1-0.4-1-1v-8c0-0.3,0.1-0.6,0.4-0.8c0.2-0.2,21.1-16.3,26-20C30.6,4.1,30.8,4,31,4c18.3,0,20.9,8.4,21,8.7
				c0,0.1,0,0.2,0,0.3v26c0,0.5-0.3,0.9-0.7,1l-46,12C5.2,52,5.1,52,5,52z M6,41.9v7.8l44-11.5V13.2c-0.4-0.9-3.4-7.1-18.7-7.2
				C26.4,9.7,8.8,23.3,6,25.5v6.6c2.3,0.5,4,2.5,4,4.9S8.3,41.4,6,41.9z M27,40c-1.7,0-3-1.3-3-3s1.3-3,3-3s3,1.3,3,3S28.7,40,27,40
				z M27,36c-0.6,0-1,0.4-1,1c0,0.6,0.4,1,1,1s1-0.4,1-1C28,36.4,27.6,36,27,36z M40,36c-2.2,0-4-1.8-4-4s1.8-4,4-4s4,1.8,4,4
				S42.2,36,40,36z M40,30c-1.1,0-2,0.9-2,2s0.9,2,2,2s2-0.9,2-2S41.1,30,40,30z M17,36c-2.8,0-5-2.2-5-5s2.2-5,5-5s5,2.2,5,5
				S19.8,36,17,36z M17,28c-1.7,0-3,1.3-3,3s1.3,3,3,3s3-1.3,3-3S18.7,28,17,28z M31,28c-1.7,0-3-1.3-3-3s1.3-3,3-3s3,1.3,3,3
				S32.7,28,31,28z M31,24c-0.6,0-1,0.4-1,1s0.4,1,1,1c0.6,0,1-0.4,1-1S31.6,24,31,24z"/>
		</g>
	</g>
</g>
<g id="Layer_34" class="st0">
	<g class="st1">
		<rect class="st2" width="56" height="56"/>
	</g>
	<g class="st1">
		<rect x="12.1" y="44.5" class="st16" width="31.7" height="0"/>
		<line class="st16" x1="12.1" y1="47.6" x2="12.9" y2="47.6"/>
		<line class="st16" x1="16.1" y1="47.6" x2="22.4" y2="47.6"/>
		<path class="st16" d="M43.9,31.9v12.5H12.1V31.9c0-1.3,1.1-2.4,2.4-2.4c0,0,0,0,0,0h27C42.8,29.6,43.9,30.6,43.9,31.9
			C43.9,31.9,43.9,31.9,43.9,31.9z"/>
		<rect x="12.1" y="44.5" class="st16" width="31.7" height="0"/>
		<path class="st16" d="M26.4,29.6v5.5c0,0.9-0.7,1.6-1.6,1.6c-0.9,0-1.6-0.7-1.6-1.6v-5.5H26.4z"/>
		<path class="st16" d="M32.8,29.6v2.4c0,0.9-0.7,1.6-1.6,1.6c-0.9,0-1.6-0.7-1.6-1.6v-2.4H32.8z"/>
		<path class="st16" d="M29.6,29.6v8.6c0,0.9-0.7,1.6-1.6,1.6s-1.6-0.7-1.6-1.6v-8.6H29.6z"/>
		<line class="st16" x1="15.3" y1="32.7" x2="15.3" y2="32.7"/>
		<path class="st16" d="M40.6,24.5l1.1-1.1c0.6-0.6,0.6-1.6,0-2.2L40.6,20l9.4-9.3c1.2-1.1,1.3-3,0.3-4.3c-1.1-1.3-3.1-1.5-4.5-0.4
			c-0.1,0.1-0.2,0.1-0.2,0.2L34.4,17.2c-0.6,0.6-0.6,1.6,0,2.2l5,5C39.8,24.8,40.3,24.8,40.6,24.5z"/>
		<line class="st16" x1="46.2" y1="9.9" x2="46.2" y2="9.9"/>
		<path class="st16" d="M51,45.2v0.8c0,0.9-0.7,1.6-1.6,1.6H48l-2.3,2.8c-0.1,0.2-0.4,0.3-0.6,0.3H10.9c-0.2,0-0.5-0.1-0.6-0.3
			L8,47.6H6.6c-0.9,0-1.6-0.7-1.6-1.6v-0.8c0-0.4,0.4-0.8,0.8-0.8h6.3v0h31.7v0h6.3C50.6,44.5,51,44.8,51,45.2z"/>
		<polygon class="st16" points="18,44.5 18,44.5 12.1,44.5 12.1,44.5 		"/>
		<polygon class="st16" points="38.9,23.9 33.1,29.6 23,29.6 33.8,18.9 34.4,19.5 		"/>
		<line class="st16" x1="18.5" y1="32.7" x2="20.1" y2="32.7"/>
	</g>
</g>
<g id="Layer_35" class="st0">
	<g class="st1">
		<rect class="st2" width="56" height="56"/>
	</g>
	<path class="st14" d="M50.7,27.6c-0.3-0.7-0.6-1.3-0.9-1.8c-0.9-1.7-1.3-3.1-1.4-4.1c0.8-0.2,1.4-0.9,1.4-1.7v-1
		c0-1-0.8-1.8-1.8-1.8h-7.6c-1,0-1.8,0.8-1.8,1.8v1c0,0.8,0.6,1.5,1.4,1.7c-0.1,1-0.4,2.4-1.4,4.1c-0.3,0.5-0.6,1.1-0.9,1.8
		c-0.9,2-1.3,4.2-1.3,6.4v11.2c0,0.9,0.3,1.7,0.8,2.3h-2.8v-29c0-0.3,0.1-0.6,0.2-0.9l2.3-3.8l1.5,2.4c0.2,0.3,0.7,0.5,1,0.2
		c0.3-0.2,0.5-0.7,0.2-1l-2-3.3l0-3c0-0.7-0.3-1.3-0.7-1.7c-0.5-0.5-1.1-0.7-1.7-0.7h-13c-1.4,0-2.5,1.1-2.5,2.5v3l-2.6,4.3
		c-0.4,0.7-0.6,1.4-0.6,2.2v28.7H10c-1.5,0-2.8-1.2-2.8-2.8v-0.3h5.8c0.9,0,1.6-0.7,1.6-1.6v-4.7c0-0.9-0.7-1.6-1.6-1.6H7.2v-3.1
		h7.6c0.4,0,0.7-0.3,0.7-0.7c0-0.4-0.3-0.7-0.7-0.7h-3.5l-1.4-7c-0.1-0.7-0.6-1.4-1.3-1.7c-0.6-0.4-1.4-0.4-2.1-0.2
		c-0.7,0.2-1.3,0.8-1.5,1.5c-0.3,0.7-0.2,1.5,0.1,2.1L7.7,32h-3C4.3,32,4,32.3,4,32.7c0,0.4,0.3,0.7,0.7,0.7h1v3.9v6.5v1
		c0,2.3,1.9,4.2,4.2,4.2h7.2c0.1,0,0.1,0,0.2,0h16.3h0h6.5h8c2.1,0,3.8-1.7,3.8-3.8V34.1C52,31.8,51.6,29.6,50.7,27.6z M9.3,31.9
		l-3-5.9c-0.1-0.3-0.2-0.6,0-0.9c0.1-0.3,0.4-0.5,0.7-0.6c0.3-0.1,0.6-0.1,0.9,0.1c0.3,0.2,0.5,0.4,0.5,0.7L9.8,32L9.3,31.9
		C9.3,31.9,9.3,31.9,9.3,31.9z M13.1,38c0.1,0,0.2,0.1,0.2,0.2v4.7c0,0.1-0.1,0.2-0.2,0.2H7.2V38H13.1z M40.1,19
		c0-0.2,0.2-0.3,0.3-0.3H48c0.2,0,0.3,0.2,0.3,0.3v1c0,0.2-0.2,0.3-0.3,0.3h-7.6c-0.2,0-0.3-0.2-0.3-0.3V19z M37.9,33.4h7.9
		c0.2,0,0.4,0.2,0.4,0.4v8.6c0,0.2-0.2,0.4-0.4,0.4h-8v-8.8C37.9,33.9,37.9,33.6,37.9,33.4z M21.2,9.4c0-0.5,0.4-1,1-1h13
		c0.3,0,0.5,0.1,0.7,0.3c0.2,0.2,0.3,0.4,0.3,0.7l0,2.4h-15V9.4z M20.9,13.3h14.8L33.4,17c0,0.1-0.1,0.1-0.1,0.2H18.5L20.9,13.3z
		 M18,18.9c0-0.1,0-0.2,0-0.3h15v29H18V18.9z M50.5,45.3c0,1.3-1,2.3-2.3,2.3h-8c-1.3,0-2.3-1-2.3-2.3v-0.9h8c1,0,1.9-0.8,1.9-1.9
		v-8.6c0-1-0.8-1.9-1.9-1.9H38c0.2-1.3,0.5-2.6,1-3.7c0.3-0.6,0.5-1.2,0.8-1.7c1.1-2,1.5-3.6,1.6-4.8H47c0.1,1.2,0.5,2.8,1.6,4.8
		c0.3,0.5,0.5,1,0.8,1.7c0.8,1.8,1.2,3.8,1.2,5.8V45.3z"/>
</g>
<g id="Layer_36" class="st0">
	<g class="st1">
		<rect class="st2" width="56" height="56"/>
	</g>
	<g class="st1">
		<path class="st8" d="M35.1,20.8c0.3,0,0.5,0.2,0.5,0.5v21.5c0,0.3-0.2,0.5-0.5,0.5H19.8c-0.3,0-0.5-0.2-0.5-0.5V21.3
			c0-0.3,0.2-0.5,0.5-0.5L35.1,20.8 M35.1,19.6H19.8c-1,0-1.7,0.8-1.7,1.7v21.5c0,1,0.8,1.7,1.7,1.7h15.3c1,0,1.7-0.8,1.7-1.7V21.3
			C36.8,20.4,36,19.6,35.1,19.6L35.1,19.6z"/>
		<path class="st8" d="M29.7,18h-4.1c-0.8,0-1.6-0.6-1.8-1.4l-1.2-4.2c-0.1-0.2,0-0.5,0.1-0.7c0.2-0.2,0.4-0.3,0.6-0.3h28.5
			c0.7,0,1.3,0.6,1.3,1.3s-0.6,1.3-1.3,1.3H33.2L31.4,17C31.1,17.6,30.4,18,29.7,18z M23.5,12.3l1.2,4.1c0.1,0.4,0.5,0.7,1,0.7h4.1
			c0.4,0,0.7-0.2,0.9-0.5l2-3.6h19.1c0.2,0,0.3-0.2,0.3-0.3c0-0.2-0.2-0.4-0.3-0.4H23.5z"/>
		<g>
			<path class="st8" d="M13.2,27.2c0.3,0,0.5,0.2,0.5,0.5V43c0,0.3-0.2,0.5-0.5,0.5H4.5c-0.3,0-0.5-0.2-0.5-0.5V27.6
				c0-0.3,0.2-0.5,0.5-0.5H13.2 M13.2,26.1H4.5c-0.8,0-1.5,0.7-1.5,1.5V43c0,0.8,0.7,1.5,1.5,1.5h8.7c0.8,0,1.5-0.7,1.5-1.5V27.6
				C14.7,26.8,14.1,26.1,13.2,26.1L13.2,26.1z"/>
			<path class="st8" d="M12.7,26.8H5.1c-0.5,0-0.8-0.4-0.8-0.8v-1.5c0-0.5,0.4-0.8,0.8-0.8h7.6c0.5,0,0.8,0.4,0.8,0.8v1.5
				C13.5,26.4,13.2,26.8,12.7,26.8z M5.3,25.7h7.2v-1H5.3V25.7z"/>
			<g>
				<path class="st8" d="M6.2,32.4H3.6c-0.3,0-0.5-0.2-0.5-0.5s0.2-0.5,0.5-0.5h2.6c0.3,0,0.5,0.2,0.5,0.5S6.5,32.4,6.2,32.4z"/>
				<path class="st8" d="M6.2,36H3.6c-0.3,0-0.5-0.2-0.5-0.5S3.3,35,3.6,35h2.6c0.3,0,0.5,0.2,0.5,0.5S6.5,36,6.2,36z"/>
				<path class="st8" d="M6.2,39.7H3.6c-0.3,0-0.5-0.2-0.5-0.5s0.2-0.5,0.5-0.5h2.6c0.3,0,0.5,0.2,0.5,0.5S6.5,39.7,6.2,39.7z"/>
			</g>
			<path class="st8" d="M12.4,24.2l-1-0.2c0,0,0.3-2.2-1.2-2.9L9.9,21l0-0.3c0,0-0.2-1.2-1.1-1.2s-1.1,1.2-1.1,1.2l0,0.3l-0.3,0.1
				c-1.5,0.7-1.2,2.9-1.2,2.9l-1,0.2c0,0-0.1-0.8,0-1.6c0.2-1.1,0.7-1.9,1.5-2.3c0.2-0.8,0.8-1.8,2.1-1.8s1.9,1.1,2.1,1.8
				c0.8,0.5,1.3,1.3,1.5,2.3C12.6,23.5,12.5,24.2,12.4,24.2z"/>
		</g>
	</g>
</g>
<g id="Layer_37" class="st0">
	<g class="st1">
		<rect class="st2" width="56" height="56"/>
	</g>
	<g class="st1">
		<path class="st17" d="M42.8,18c0-0.2-0.6-5.4-4.7-10.4c0.5-0.5,0.8-1.2,0.8-1.9V5c0-1.5-1.3-2.8-2.8-2.8H20
			c-1.5,0-2.8,1.3-2.8,2.8v0.8c0,0.7,0.3,1.4,0.8,1.9c-4.1,4.9-4.7,10.1-4.7,10.4c0,0,0,0.1,0,0.1v32.5c0,1.7,1.4,3.2,3.2,3.2h23.2
			c1.7,0,3.2-1.4,3.2-3.2L42.8,18C42.8,18.1,42.8,18.1,42.8,18z M41,50.7c0,0.8-0.6,1.4-1.4,1.4H16.4c-0.8,0-1.4-0.6-1.4-1.4V18.2
			c0.1-0.5,0.8-5.1,4.3-9.4h17.5c3.5,4.3,4.2,8.9,4.3,9.4L41,50.7L41,50.7z M37.1,5v0.8c0,0.6-0.5,1-1,1H20c-0.6,0-1-0.5-1-1V5
			c0-0.6,0.5-1,1-1H36C36.6,3.9,37.1,4.4,37.1,5z"/>
		<path class="st17" d="M16.9,20.9c-0.2,0-0.5,0.1-0.6,0.2c-0.2,0.2-0.3,0.4-0.3,0.6v26c0,1.7,1.4,3.1,3.1,3.1h17.8
			c1.7,0,3.1-1.4,3.1-3.1V18.1c0-0.4-0.2-0.7-0.6-0.8c-0.3-0.1-2.8-0.8-8.5,1.6C25.5,21,17,20.9,16.9,20.9z M38.3,18.8v28.9
			c0,0.8-0.6,1.4-1.4,1.4H19.1c-0.8,0-1.4-0.6-1.4-1.4V22.6c2.4,0,9.1-0.3,13.8-2.2C35.1,19,37.3,18.8,38.3,18.8z"/>
	</g>
</g>
<g id="Layer_38" class="st0">
	<g class="st1">
		<rect class="st2" width="56" height="56"/>
	</g>
	<path class="st14" d="M36.5,13.5c0.3,0.1,0.7,0.2,1,0.3c0,0,0.1,0,0.1,0c0.4,0.1,0.5,0.6,0.4,0.9c0,0.1-0.1,0.2-0.2,0.3
		c-0.1,0.1-0.3,0.2-0.5,0.2c-0.1,0-0.2,0-0.3,0c0,0-0.1,0-0.1,0c-0.3-0.1-0.5-0.2-0.8-0.2c-0.4-0.1-0.6-0.5-0.6-0.8
		C35.6,13.6,36,13.4,36.5,13.5C36.4,13.5,36.4,13.5,36.5,13.5z M33.7,13.5c-0.8,0.1-1.5,0.4-2.2,0.8c-0.6,0.3-1.1,0.8-1.6,1.3
		c-0.3,0.3-0.3,0.7,0,1c0.1,0.1,0.3,0.2,0.5,0.2c0.2,0,0.4-0.1,0.5-0.2c0.4-0.4,0.8-0.7,1.3-1c0.5-0.3,1.1-0.5,1.7-0.6
		c0.4-0.1,0.6-0.4,0.6-0.8C34.5,13.6,34.1,13.4,33.7,13.5z M9.8,17.7c0.1,0.1,0.3,0.1,0.4,0.1c0.2,0,0.5-0.1,0.6-0.3
		c0.3-0.4,0.5-0.8,0.9-1.1c0.3-0.3,0.2-0.7,0-1c-0.3-0.3-0.7-0.2-1,0c-0.4,0.4-0.7,0.8-1,1.3C9.4,17,9.5,17.4,9.8,17.7z M12.7,15.2
		c0.1,0,0.3,0,0.4-0.1c1-0.7,2.1-1.2,3.4-1.4c0.1,0,0.3-0.1,0.4-0.2c0.1-0.1,0.2-0.3,0.2-0.6c0,0,0,0,0,0c-0.1-0.4-0.4-0.6-0.8-0.6
		c-1.4,0.2-2.7,0.8-3.9,1.6c-0.3,0.2-0.4,0.7-0.2,1C12.3,15.1,12.5,15.2,12.7,15.2z M53,32c0,1-0.5,1.9-1.4,2.4
		c-4.6,2.7-9.7,5.9-12.5,10c-0.4,2-2.6,4-5.6,5.2c-1.4,0.5-2.8,0.8-4.1,0.8c-1,0-2-0.2-2.7-0.5c-0.9-0.4-1.5-1-1.7-1.8
		c-0.2-0.5-0.2-1-0.1-1.5c0,0,0,0-0.1,0c-5.8,0-11.2-1.4-15.2-3.9c-1.3-0.8-2.2-2.4-2.5-4.4l-2-12.5c-1.3-0.9-2.2-2-2.2-3.3
		c0-0.7,0.2-1.7,1.3-2.6c0.3-0.3,0.6-0.4,0.9-0.4C6.5,13.5,11.7,9.1,18,9.1c0.5,0,1,0,1.5,0.1c2-2.1,4.9-3.5,8.1-3.5
		c3.9,0,7.3,2,9.4,5c4.2,0.8,7.4,4.3,7.8,8.7c0.2,0.1,0.5,0.2,0.7,0.4c1,1,1.3,2,1.3,2.6c0,1.3-0.8,2.4-2.2,3.3L43.4,33
		c1.7-1.2,3.5-2.3,5.8-3.4c0.8-0.4,1.7-0.4,2.5,0.1C52.5,30.1,53,31,53,32z M51.3,32c0-0.2-0.1-0.6-0.5-0.9
		c-0.2-0.1-0.3-0.1-0.5-0.1c-0.1,0-0.3,0-0.4,0.1h0c-2.7,1.4-4.9,2.8-6.9,4.3c-0.3,0.3-0.7,0.5-1,0.8c-0.3,0.3-0.7,0.5-1,0.8
		c-1.2,1-2.4,2.1-3.6,3.2c-0.4,0.4-0.8,0.8-1.3,1.2c-0.5,0.5-1.4,0.9-2.2,0.9c-0.9,0.1-2,0.3-2.9,0.6c-1.3,0.5-2.3,1.1-3.1,1.8
		c-0.4,0.3-0.6,0.6-0.9,0.9c-0.2,0.3-0.4,0.6-0.5,0.9c-0.1,0.4-0.1,0.7,0,1c0.1,0.3,0.4,0.6,0.9,0.8c1.3,0.6,3.4,0.5,5.5-0.3
		c2.7-1,4.4-2.8,4.5-4c0,0,0,0,0,0c0-0.1,0.1-0.2,0.1-0.4c0.2-0.3,0.5-0.7,0.7-1c0.9-1.2,2-2.3,3.1-3.3c0.4-0.3,0.7-0.6,1.1-0.9
		c2.6-2.1,5.5-3.9,8.3-5.5C51.1,32.7,51.3,32.3,51.3,32z M6.8,19.9c0.9,0.7,2.7,1.4,5.2,2c1.7,0.4,3.8,0.7,6.1,0.9
		c0.4,0,0.7,0.1,1.1,0.1c0.4,0,0.7,0.1,1.1,0.1c1.4,0.1,3,0.1,4.6,0.1c0.3,0,0.5,0,0.8,0c0.3,0,0.6,0,0.9,0c0.3,0,0.6,0,0.9,0
		c0.6,0,1.2-0.1,1.9-0.1c0-0.3,0-0.6,0-0.9c0-0.1,0-0.2,0-0.2c0-1.9-0.6-3.8-1.5-5.3c-0.2-0.3-0.3-0.6-0.5-0.8
		c-0.2-0.3-0.4-0.5-0.5-0.7c-1.7-2-4-3.5-6.7-4c-0.3-0.1-0.6-0.1-0.9-0.1c-0.3,0-0.7,0-1-0.1c-0.1,0-0.1,0-0.2,0
		C12.4,10.8,7.8,14.7,6.8,19.9z M38,12.8c-0.3-0.1-0.7-0.3-1.1-0.3c-0.3-0.1-0.7-0.2-1-0.2c-0.3,0-0.6-0.1-0.9-0.1
		c-2.4,0-4.6,1.1-6.1,2.8c1.3,2,2.1,4.3,2.1,6.9c0,0.1,0,0.2,0,0.2c0,0.3,0,0.5,0,0.8c1.6-0.1,3.1-0.3,4.4-0.5
		c0.4-0.1,0.8-0.1,1.1-0.2c0.4-0.1,0.7-0.1,1.1-0.2c0,0,0,0,0.1,0c2.7-0.6,4.6-1.4,5.4-2.1C42.8,16.6,40.8,14,38,12.8z M45,22.4
		c0-0.3-0.1-0.6-0.3-0.9c-0.1-0.2-0.2-0.3-0.4-0.5c0,0,0,0-0.1-0.1c0,0,0,0-0.1,0.1c-0.1,0.1-0.2,0.2-0.3,0.2
		c-0.1,0.1-0.3,0.2-0.4,0.3c-0.2,0.1-0.3,0.2-0.5,0.3c0,0,0,0,0,0c-0.1,0-0.2,0.1-0.2,0.1c-1.5,0.8-3.7,1.4-6.3,1.9
		c-0.4,0.1-0.9,0.2-1.3,0.2c-0.5,0.1-1,0.1-1.5,0.2c-0.9,0.1-1.8,0.2-2.8,0.3c-0.3,0-0.6,0-0.9,0.1c-0.3,0-0.6,0-0.9,0
		c-1.4,0.1-2.8,0.1-4.2,0.1c-0.9,0-1.7,0-2.6,0c-0.5,0-1,0-1.4-0.1c-0.4,0-0.9,0-1.3-0.1c-0.5,0-1-0.1-1.6-0.1l-1.6-0.2
		c-4.2-0.5-7.6-1.4-9.6-2.5c0,0-0.1,0-0.1-0.1c-0.1-0.1-0.3-0.2-0.4-0.3c-0.1-0.1-0.3-0.2-0.4-0.3c-0.1-0.1-0.2-0.2-0.3-0.2
		c0,0-0.1,0-0.1-0.1c0,0,0,0-0.1,0.1c-0.2,0.2-0.4,0.4-0.5,0.6c-0.1,0.2-0.2,0.5-0.2,0.8c0,0.3,0.1,0.6,0.2,0.8
		c0.2,0.3,0.4,0.6,0.8,0.8c0,0,0,0,0,0c0.3,0.2,0.6,0.4,1,0.6c3.2,1.7,9.9,2.9,17.6,3c0.2,0,0.3,0,0.5,0c2.4,0,4.7-0.1,6.9-0.3
		c4.9-0.5,9-1.4,11.3-2.6c0.4-0.2,0.7-0.4,1-0.6C44.6,23.6,45,23,45,22.4z M27.6,7.4c-2.3,0-4.4,0.8-6.1,2.2
		c2.5,0.7,4.7,2.1,6.4,4.1c1.7-1.8,4.1-3,6.8-3.1C32.9,8.6,30.4,7.4,27.6,7.4z M7,26.7L8.8,38c0.2,1.4,0.9,2.6,1.8,3.2
		c3.8,2.3,8.8,3.6,14.3,3.6c0.3,0,0.5,0,0.8,0c0.9-1.4,2.7-2.7,4.9-3.5c1.1-0.4,2.3-0.7,3.4-0.8c0.3,0,0.9-0.3,1.1-0.5
		c0.4-0.4,0.8-0.8,1.3-1.1c1.7-1.6,3.3-3,5.1-4.4l1.2-7.7c-4.7,2-12.5,2.6-17.8,2.6C19.5,29.4,11.7,28.7,7,26.7z"/>
</g>
<g id="Layer_39" class="st0">
	<g class="st1">
		<rect class="st2" width="56" height="56"/>
	</g>
	<g class="st1">
		<path class="st8" d="M23,14.5c0.4,0,0.8-0.1,1.2-0.3c1.1-0.7,1.5-2.1,0.8-3.2c-0.1-0.2-0.1-0.5,0.2-0.7c0.1,0,0.2-0.1,0.3-0.1
			c0.2,0,0.3,0.1,0.4,0.2c0.4,0.7,1.2,1.1,2,1.1c0.4,0,0.8-0.1,1.2-0.3c1.1-0.7,1.5-2.1,0.8-3.2c-0.9-1.5-2.6-2.5-4.4-2.5
			c-0.9,0-1.9,0.3-2.7,0.7c-2.4,1.5-3.2,4.6-1.7,7.1C21.4,14.1,22.2,14.5,23,14.5z M23.7,7.8c0.5-0.3,1.1-0.5,1.8-0.5
			c1.2,0,2.3,0.6,2.9,1.7c0.2,0.3,0.1,0.7-0.2,0.8c-0.1,0.1-0.2,0.1-0.3,0.1c-0.2,0-0.4-0.1-0.5-0.3c-0.4-0.7-1.1-1.1-1.9-1.1
			c-0.4,0-0.8,0.1-1.1,0.3c-1,0.6-1.4,2-0.8,3c0.2,0.3,0.1,0.7-0.2,0.8c-0.1,0.1-0.2,0.1-0.3,0.1c-0.2,0-0.4-0.1-0.5-0.3
			C21.5,10.9,22,8.8,23.7,7.8z"/>
		<path class="st8" d="M36.5,10c0.2,0,0.4,0,0.5,0h0c2.6,0,4.8-2,5.1-4.6c0.1-0.6-0.1-1.2-0.5-1.7s-0.9-0.8-1.6-0.8
			c-0.1,0-0.2,0-0.2,0c-1.2,0-2.2,0.9-2.3,2.1c0,0.2-0.2,0.4-0.5,0.4c0,0,0,0-0.1,0c-0.1,0-0.3-0.1-0.3-0.2
			c-0.1-0.1-0.1-0.2-0.1-0.4c0.1-0.6-0.1-1.2-0.5-1.7c-0.4-0.5-0.9-0.8-1.6-0.8c-0.1,0-0.2,0-0.2,0c-1.2,0-2.2,0.9-2.3,2.1
			c-0.1,1.4,0.3,2.7,1.1,3.8C33.9,9.2,35.1,9.9,36.5,10z M33.6,4.5c0-0.3,0.3-0.5,0.6-0.5c0,0,0,0,0.1,0c0.2,0,0.3,0.1,0.4,0.2
			c0.1,0.1,0.1,0.3,0.1,0.4c-0.1,0.6,0.1,1.2,0.5,1.6c0.4,0.5,0.9,0.7,1.5,0.8c0.1,0,0.2,0,0.2,0c1.1,0,2.1-0.9,2.2-2
			c0-0.3,0.3-0.6,0.7-0.5c0.2,0,0.3,0.1,0.4,0.2c0.1,0.1,0.1,0.3,0.1,0.4C40.2,7,38.8,8.3,37,8.3c-0.1,0-0.2,0-0.4,0
			c-0.9-0.1-1.7-0.5-2.3-1.3C33.8,6.3,33.5,5.5,33.6,4.5z"/>
		<path class="st8" d="M17.9,9.7c0.7-1.2,0.9-2.6,0.6-3.9c-0.6-2.3-2.6-4-5-4c-0.4,0-0.8,0-1.2,0.1c-0.6,0.1-1.1,0.5-1.4,1
			c-0.3,0.5-0.4,1.2-0.3,1.8c0.2,1.1,1.2,1.8,2.3,1.8c0.2,0,0.4,0,0.5-0.1c0.3-0.1,0.5,0.1,0.6,0.4c0,0.1,0,0.3-0.1,0.4
			c-0.1,0.1-0.2,0.2-0.3,0.2c-0.6,0.1-1.1,0.5-1.4,1c-0.3,0.5-0.4,1.2-0.3,1.8c0.2,1.1,1.2,1.8,2.3,1.8l0,0c0.2,0,0.4,0,0.5-0.1
			C16,11.7,17.1,10.9,17.9,9.7z M16.4,8.8c-0.5,0.8-1.2,1.3-2.1,1.5c0,0-0.1,0-0.1,0l0,0c-0.3,0-0.5-0.2-0.6-0.5
			c0-0.2,0-0.3,0.1-0.5c0.1-0.1,0.2-0.2,0.4-0.3c0.6-0.1,1.1-0.5,1.4-1c0.3-0.5,0.4-1.1,0.3-1.7c-0.2-1-1.1-1.7-2.2-1.7
			c-0.2,0-0.3,0-0.5,0.1c0,0-0.1,0-0.1,0c-0.3,0-0.5-0.2-0.6-0.5c0-0.2,0-0.3,0.1-0.5c0.1-0.1,0.2-0.2,0.4-0.3
			c0.3-0.1,0.5-0.1,0.8-0.1c1.6,0,3,1.1,3.3,2.6C17,7.1,16.9,8,16.4,8.8z"/>
		<path class="st8" d="M45.5,48.3L45.5,48.3C45.5,48.2,45.5,48.2,45.5,48.3c0-0.1,0-0.1,0-0.1c0,0,0,0,0-0.1c0,0,0,0,0,0
			c0,0-0.7-3.2-0.7-8V29.6c0-4.8,0.7-8,0.7-8l0,0c0,0,0-0.1,0-0.1c0,0,0,0,0,0c0,0,0-0.1,0-0.1v0l0,0v-5c0-0.5-0.4-0.9-0.9-0.9h-2.4
			c0.1-1.9-1-3.8-2.7-4.7c-0.3-0.2-0.7-0.3-1.1-0.3c-0.9,0-1.7,0.5-2.1,1.2c-0.6,1.1-0.2,2.5,1,3.1c0.2,0.1,0.3,0.4,0.2,0.6H16.1
			c-0.5,0-0.9,0.4-0.9,0.9v5v0c0,0,0,0,0,0c0,0,0,0,0,0.1c0,0,0,0,0,0c0,0,0,0,0,0.1c0,0,0,0,0,0c0,0,0.8,3.3,0.8,8V40
			c0,4.8-0.7,8-0.7,8c0,0,0,0,0,0c0,0,0,0,0,0.1c0,0,0,0,0,0c0,0,0,0.1,0,0.1c0,0,0,0,0,0v0v5c0,0.5,0.4,0.9,0.9,0.9h28.5
			c0.5,0,0.9-0.4,0.9-0.9L45.5,48.3L45.5,48.3L45.5,48.3z M24.7,49.1v3.3h-3v-3.3H24.7z M26.5,49.1h3v3.3h-3V49.1z M31.2,49.1h2.9
			v3.3h-2.9V49.1z M35.8,49.1h3v3.3h-3C35.8,52.4,35.8,49.1,35.8,49.1z M17.2,47.4c0.2-1.4,0.6-4,0.6-7.4V29.6c0-3.4-0.4-6-0.6-7.4
			h26.4c-0.2,1.4-0.6,4-0.6,7.4V40c0,3.4,0.3,6,0.6,7.4C43.6,47.4,17.2,47.4,17.2,47.4z M38.8,17.2v3.3h-3v-3.3H38.8z M34.1,20.5
			h-2.9v-3.3h2.9V20.5z M29.5,20.5h-3v-3.3h3V20.5z M24.7,20.5h-3v-3.3h3V20.5z M43.8,20.5h-3.2v-3.3h3.2V20.5z M37.9,12.6
			c0.1-0.2,0.3-0.3,0.5-0.3c0.1,0,0.2,0,0.3,0.1c1,0.5,1.7,1.6,1.8,2.7h-1.2c-0.1-0.7-0.5-1.3-1.1-1.6
			C37.8,13.2,37.7,12.8,37.9,12.6z M17,17.2h3v3.3h-3L17,17.2z M17,49.1h3v3.3h-3L17,49.1z M43.8,52.4h-3.2v-3.3h3.2V52.4z"/>
		<path class="st8" d="M39.1,29.5h-1.9c-0.5,0-0.9,0.4-0.9,0.9s0.4,0.9,0.9,0.9h1v6.9H22.6v-6.9h10c0.5,0,0.9-0.4,0.9-0.9
			s-0.4-0.9-0.9-0.9H21.8c-0.5,0-0.9,0.4-0.9,0.9V39c0,0.5,0.4,0.9,0.9,0.9h17.4c0.5,0,0.9-0.4,0.9-0.9v-8.6
			C40,29.9,39.6,29.5,39.1,29.5z"/>
	</g>
</g>
<g id="Layer_40" class="st0">
	<g class="st1">
		<rect class="st2" width="56" height="56"/>
	</g>
	<path class="st14" d="M51.5,25.3c-0.3-10.5-3.2-14.2-3.3-14.4c-0.2-0.2-0.5-0.3-0.8-0.1c0,0,0,0,0,0c-3.9,2.9-7.2,6.6-9.6,10.8
		c-1-0.2-2.5-0.2-3.3,1.1c-0.3,0.7-0.6,1.5-0.8,2.2c-2.5-2.8-5.9-4.5-9.6-4.8c-10.3-0.9-21,8.2-21.4,8.5c-0.2,0.2-0.3,0.5-0.1,0.8
		c0,0,0,0,0,0c4.3,4.4,12.9,7.4,15.1,8.1c-0.4,1.1-0.5,2.4-0.3,3.5c0,0,0,0.1,0,0.1c1.7,3.3,5.1,4.1,8.2,4.1c2.2,0,4.3-0.3,6.4-1
		c2.9-1,5.6-2.6,7.8-4.7c0.9,0.2,1.7,0.3,2.6,0.3c2,0,3.9-0.6,5.5-1.9c4.3-3.3,5.4-10,5.4-10.8C53.5,26.2,52.4,25.5,51.5,25.3z
		 M47.6,12c0.7,1.3,2.7,5.5,2.8,14.4L50,26.3c-0.6-0.1-1.3-0.3-1.9-0.4c-0.6-0.1-1.3-0.2-1.9-0.4c-0.6-0.2-1.3-0.3-1.9-0.4
		c-1.3-0.3-2.5-0.6-3.8-0.9c-0.8-0.2-1.5-0.5-2.3-0.7C38.5,22.6,41.2,17,47.6,12L47.6,12z M37.3,22.6c-0.1,0.2-0.2,0.4-0.2,0.5
		l-0.4-0.1c1,0.9,2.2,1.5,3.4,2c1.2,0.5,2.5,0.9,3.8,1.2c1.3,0.3,2.6,0.5,3.9,0.6c0.7,0.1,1.3,0.1,2,0.1c0.7,0,1.3,0,2-0.1l-0.4-0.1
		c0-0.1,0-0.2,0-0.3c0.3,0.1,0.5,0.3,0.7,0.4c-7.6,1-14.4-2.9-16.3-4C36.3,22.6,36.8,22.5,37.3,22.6z M40.9,37.2
		c-5.9,3.7-12.7,5.8-19.7,6.1c-0.4-0.2-0.9-0.5-1.2-0.8c3.2-0.4,12.7-1.8,21.6-5.9C41.3,36.8,41.1,37,40.9,37.2z M43.1,34.5
		c-10.2,5.4-22.1,6.8-24.1,7c0-0.1-0.1-0.1-0.1-0.2l24.3-6.9L43.1,34.5z M18.5,40.3c0-0.4,0-0.8,0-1.2c1.8-0.8,12.3-5.1,24-5.9
		l0.3,0.1L18.5,40.3z M18.9,37.8c0.2-0.5,0.4-0.9,0.6-1.4c1.1-0.5,8.1-3.9,19.3-4.5c0.5,0.1,1,0.3,1.5,0.4
		C32.9,33.2,25.7,35,18.9,37.8z M21.2,34.5c1.4-1.2,3.4-2.3,6.4-3.1c2.3-0.4,4.7-0.5,7.1-0.3C30,31.7,25.5,32.8,21.2,34.5z
		 M24.1,21.2c3.7,0.3,7.1,2.1,9.5,5.1c-0.2,1.2-0.2,2.5-0.1,3.7c-2-0.1-4.1,0-6.1,0.4c-2.3,0.5-4.6,1.5-6.5,3C12,33.1,5.9,30.1,4,29
		C6.4,27.2,15.5,20.5,24.1,21.2L24.1,21.2z M7.6,31.9c3.9,1.4,8,2.3,12.1,2.5c-0.6,0.7-1.1,1.4-1.5,2.2C14.5,35.4,11,33.8,7.6,31.9z
		 M31.8,43.3c-2.4,0.7-5,1-7.5,0.9c4.5-0.5,8.9-1.8,12.9-3.7C35.6,41.7,33.7,42.7,31.8,43.3z M47.4,37.3c-1.8,1.4-4.2,2-6.5,1.5
		c1.5-1.5,2.9-3.2,4-5c0.2-0.3,0.1-0.6-0.2-0.7c0,0,0,0,0,0c-3.2-1.7-6.7-2.7-10.2-3c-0.2-2.1,0.1-4.3,0.8-6.3
		c1.8,1.1,7.5,4.4,14.3,4.4c0.9,0,1.8-0.1,2.7-0.2C52,29.7,50.7,34.7,47.4,37.3z"/>
</g>
<g id="Layer_41">
	<g>
		<rect class="st2" width="56" height="56"/>
	</g>
	<g>
		<g>
			<g>
				<path class="st8" d="M44.1,48.2V7.8L44.8,6c0.3-0.8,0.2-1.7-0.3-2.4c-0.5-0.7-1.3-1.1-2.1-1.1H13.5c-0.8,0-1.6,0.4-2.1,1.1
					S10.9,5.2,11.2,6l0.7,1.8v40.5L11.2,50c-0.3,0.8-0.2,1.7,0.3,2.4c0.5,0.7,1.3,1.1,2.1,1.1h28.9c0.8,0,1.6-0.4,2.1-1.1
					s0.6-1.6,0.3-2.4L44.1,48.2z M12.8,4.6c0.2-0.2,0.4-0.4,0.7-0.4h28.9c0.3,0,0.5,0.1,0.7,0.4c0.2,0.2,0.2,0.5,0.1,0.8l-0.6,1.4
					H13.3l-0.6-1.4C12.7,5.1,12.7,4.8,12.8,4.6z M32.7,39.9c-10.5,0-19.1-6.9-19.1-15.3v-2.2c2.7,2,6,3.1,9.4,3
					c5.6,0,11.4-2.6,15.8-7c1.3-1.3,2.5-2.5,3.4-3.5c0.1-0.1,0.1-0.1,0.2-0.2v25.1H32.7z M42.4,41.6v6H13.6V31.3
					c3.2,6,10.6,10.3,19.1,10.3L42.4,41.6L42.4,41.6z M13.6,20.2V8.4h28.8v3.9c-0.4,0.4-0.9,0.9-1.4,1.5c-0.9,0.9-2,2.1-3.4,3.4
					c-4.1,4.1-9.5,6.5-14.6,6.5C19.5,23.8,16.1,22.6,13.6,20.2z M14.5,51.5c0,0.1,0,0.2,0,0.3h-0.9c-0.3,0-0.5-0.1-0.7-0.4
					c-0.2-0.2-0.2-0.5-0.1-0.8l0.6-1.4h1.9L14.5,51.5z M18.7,51.8h-2.5l0.8-2.3c0-0.1,0-0.2,0-0.3h1.7L18.7,51.8L18.7,51.8z
					 M22.1,51.8h-1.7v-2.6h1.7V51.8z M25.5,51.8h-1.7v-2.6h1.7V51.8z M28.8,51.8h-1.7v-2.6h1.7V51.8z M32.2,51.8h-1.7v-2.6h1.7V51.8
					z M35.6,51.8h-1.7v-2.6h1.7V51.8z M37.3,51.8v-2.6H39c0,0.1,0,0.2,0,0.3l0.8,2.3L37.3,51.8L37.3,51.8z M43.2,51.4L43.2,51.4
					c-0.2,0.2-0.4,0.4-0.7,0.4h-0.9c0-0.1,0-0.2,0-0.3l-0.8-2.3h1.9l0.6,1.4C43.3,50.9,43.3,51.2,43.2,51.4z"/>
				<path class="st8" d="M33.1,25.4h-0.8c-4.2,0-7.6,3.4-7.6,7.7v1.7c0,1.4,1.5,2.6,3.4,2.6c1.9,0,3.4-1.1,3.4-2.6v-2.1
					c0-0.5,0.2-0.9,0.6-1.1c0.4-0.2,0.9-0.2,1.3,0c0.4,0.2,0.6,0.6,0.6,1.1v2.1c0,1.4,1.5,2.6,3.4,2.6c1.9,0,3.4-1.1,3.4-2.6v-1.7
					C40.7,28.9,37.3,25.5,33.1,25.4z M28,35.7c-1,0-1.7-0.5-1.7-0.9c0-0.3,0.7-0.9,1.7-0.9s1.7,0.5,1.7,0.9
					C29.7,35.1,29,35.7,28,35.7z M37.3,35.7c-1,0-1.7-0.5-1.7-0.9c0-0.3,0.7-0.9,1.7-0.9c1,0,1.7,0.5,1.7,0.9
					C39,35.1,38.4,35.7,37.3,35.7z M35.6,32.6c0-1.6-1.4-2.9-3-2.9c-1.6,0-2.9,1.3-3,2.9c-1.1-0.5-2.3-0.5-3.4,0
					c0.3-3.1,2.8-5.4,5.9-5.4h0.8c3.1,0,5.6,2.4,5.9,5.4C37.9,32.1,36.7,32.1,35.6,32.6z"/>
				<path class="st8" d="M20.4,40.8h-4.2c-0.2,0-0.4,0.1-0.6,0.2c-0.2,0.2-0.2,0.4-0.2,0.6V45c0,0.2,0.1,0.4,0.2,0.6
					c0.2,0.2,0.4,0.2,0.6,0.2h4.2c0.2,0,0.4-0.1,0.6-0.2c0.2-0.2,0.2-0.4,0.2-0.6v-3.4c0-0.2-0.1-0.4-0.2-0.6
					C20.8,40.8,20.6,40.8,20.4,40.8z M19.5,44.2H17v-1.7h2.5V44.2z"/>
				<path class="st8" d="M17,12.7h7.6c0.5,0,0.9-0.4,0.9-0.9c0-0.5-0.4-0.9-0.9-0.9H17c-0.5,0-0.9,0.4-0.9,0.9
					C16.1,12.3,16.5,12.7,17,12.7z"/>
				<path class="st8" d="M28,12.7h5.1c0.5,0,0.9-0.4,0.9-0.9c0-0.5-0.4-0.9-0.9-0.9H28c-0.5,0-0.9,0.4-0.9,0.9
					C27.2,12.3,27.5,12.7,28,12.7z"/>
				<path class="st8" d="M17,16.1h3.4c0.5,0,0.9-0.4,0.9-0.9s-0.4-0.9-0.9-0.9H17c-0.5,0-0.9,0.4-0.9,0.9S16.5,16.1,17,16.1z"/>
				<path class="st8" d="M29.7,14.4h-5.9c-0.5,0-0.9,0.4-0.9,0.9s0.4,0.9,0.9,0.9h5.9c0.5,0,0.9-0.4,0.9-0.9S30.2,14.4,29.7,14.4z"
					/>
				<path class="st8" d="M17.8,17.8H17c-0.5,0-0.9,0.4-0.9,0.9s0.4,0.9,0.9,0.9h0.8c0.5,0,0.9-0.4,0.9-0.9S18.3,17.8,17.8,17.8z"/>
				<path class="st8" d="M28,18.6c0-0.5-0.4-0.9-0.9-0.9h-5.9c-0.5,0-0.9,0.4-0.9,0.9s0.4,0.9,0.9,0.9h5.9
					C27.6,19.5,28,19.1,28,18.6z"/>
				<path class="st8" d="M33.7,14.6c0,0-0.1-0.1-0.1-0.1c0,0-0.1-0.1-0.1-0.1c-0.1,0-0.1,0-0.2-0.1c-0.1,0-0.2,0-0.3,0
					c-0.1,0-0.1,0-0.2,0.1c-0.1,0-0.1,0-0.1,0.1c0,0-0.1,0.1-0.1,0.1c-0.1,0.1-0.1,0.2-0.2,0.3c0,0.1-0.1,0.2-0.1,0.3
					c0,0.1,0,0.1,0,0.2c0,0.1,0,0.1,0.1,0.2c0,0.1,0.1,0.1,0.1,0.2c0,0,0.1,0.1,0.1,0.1c0,0,0.1,0.1,0.1,0.1c0,0,0.1,0.1,0.1,0.1
					c0.1,0,0.1,0,0.2,0.1c0.1,0,0.2,0,0.3,0c0.1,0,0.1,0,0.2-0.1c0.1,0,0.1,0,0.1-0.1c0,0,0.1-0.1,0.1-0.1c0,0,0.1-0.1,0.1-0.1
					l0.1-0.2c0-0.1,0-0.1,0.1-0.2c0-0.1,0-0.1,0-0.2c0-0.1,0-0.2-0.1-0.3C33.8,14.8,33.8,14.7,33.7,14.6z"/>
			</g>
		</g>
	</g>
</g>
<g id="Layer_42">
	<g>
		<rect class="st2" width="56" height="56"/>
	</g>
</g>
<g id="Layer_43">
	<g>
		<rect class="st2" width="56" height="56"/>
	</g>
</g>
<g id="Layer_44">
	<g>
		<rect class="st2" width="56" height="56"/>
	</g>
</g>
<g id="Layer_45">
	<g>
		<rect class="st2" width="56" height="56"/>
	</g>
</g>
<g id="Layer_46">
	<g>
		<rect class="st2" width="56" height="56"/>
	</g>
</g>
<g id="Layer_47">
	<g>
		<rect class="st2" width="56" height="56"/>
	</g>
</g>
<g id="Layer_48">
	<g>
		<rect class="st2" width="56" height="56"/>
	</g>
</g>
<g id="Layer_49">
	<g>
		<rect class="st2" width="56" height="56"/>
	</g>
</g>
<g id="Layer_50">
	<g>
		<rect class="st2" width="56" height="56"/>
	</g>
</g>
<g id="Layer_51">
	<g>
		<rect class="st2" width="56" height="56"/>
	</g>
</g>
<g id="Layer_52">
	<g>
		<rect class="st2" width="56" height="56"/>
	</g>
</g>
<g id="Layer_53">
	<g>
		<rect class="st2" width="56" height="56"/>
	</g>
</g>
<g id="Layer_54">
	<g>
		<rect class="st2" width="56" height="56"/>
	</g>
</g>
<g id="Layer_55">
	<g>
		<rect class="st2" width="56" height="56"/>
	</g>
</g>
<g id="Layer_56">
	<g>
		<rect class="st2" width="56" height="56"/>
	</g>
</g>
</svg>
