<svg xmlns="http://www.w3.org/2000/svg" viewBox="0 0 105.25 96.92"><defs><style>.cls-1{font-size:16px;font-family:Roboto-Regular, Roboto;}.cls-1,.cls-3{fill:#0097d6;}.cls-2{letter-spacing:-0.01em;}</style></defs><title>meatpreparedpackaging_hover_1</title><g id="Layer_2" data-name="Layer 2"><g id="Layer_1-2" data-name="Layer 1"><text class="cls-1" transform="translate(0 73.38)">Meat P<tspan class="cls-2" x="50.61" y="0">r</tspan><tspan x="56.06" y="0">epa</tspan><tspan class="cls-2" x="82.33" y="0">r</tspan><tspan x="87.78" y="0">ed</tspan><tspan x="15.34" y="19.2">packaging</tspan></text><path class="cls-3" d="M78.59,34.23,68.15,23.79l-.62-.62-21-21A7.23,7.23,0,0,0,41.35,0h0a7.25,7.25,0,0,0-5.14,2.13L25.12,13.22,48,36.14h-.52c-7.62,0-22,1.1-22,5.29v7.93c0,4.18,14.41,5.29,22,5.29s22-1.11,22-5.29V41.42c0-3.29-8.71-4.52-14.06-5l5.25-5.24L71.17,41.64a5.24,5.24,0,0,0,7.42-7.41ZM67.79,45.82c0,.35-1.75,2-9.8,2.94l.21,1.75c3.47-.41,7.38-1.15,9.59-2.41v1.25c0,1-6.9,3.52-20.27,3.52S27.25,50.4,27.25,49.35V48.09c2.69,1.54,7.87,2.28,11.37,2.62L38.79,49c-8.8-.84-11.54-2.59-11.54-3.13V43.69c4.08,2.33,14.27,3,20.27,3s16.19-.68,20.27-3v2.13Zm0-4.4c0,1-6.9,3.52-20.27,3.52s-20.27-2.47-20.27-3.52,6.9-3.53,20.27-3.53c.78,0,1.55,0,2.31,0l2.1,2.1,1.92-1.92C64.33,38.79,67.79,40.79,67.79,41.42ZM55.45,34l-2-2-1.25,1.25,2,2-2.27,2.28L27.62,13.22l2.28-2.28,21,21,1.24-1.24-21-21,6.32-6.32a5.5,5.5,0,0,1,3.89-1.61h0a5.5,5.5,0,0,1,3.89,1.61L65.66,23.79Zm19.43,7.42a3.49,3.49,0,0,1-2.46-1L62,30,66.91,25,77.34,35.47a3.49,3.49,0,0,1-2.46,6Z"/><path class="cls-3" d="M41.35,3.52A2.65,2.65,0,1,0,44,6.17,2.65,2.65,0,0,0,41.35,3.52Zm0,3.53a.88.88,0,0,1,0-1.76.88.88,0,1,1,0,1.76Z"/><path class="cls-3" d="M61.43,40.48a79.2,79.2,0,0,1-13.91.94,79.2,79.2,0,0,1-13.91-.94l-.38,1.72a81.37,81.37,0,0,0,14.29,1,81.16,81.16,0,0,0,14.28-1Z"/></g></g></svg>