<svg xmlns="http://www.w3.org/2000/svg" viewBox="0 0 103.8 97.82"><defs><style>.cls-1{font-size:16px;font-family:Roboto-Regular, Roboto;}.cls-1,.cls-2{fill:#0097d6;}.cls-2{stroke:#fff;stroke-miterlimit:10;stroke-width:0.5px;}</style></defs><title>milkmanufacturingfluid_hover_1</title><g id="Layer_2" data-name="Layer 2"><g id="Layer_1-2" data-name="Layer 1"><text class="cls-1" transform="translate(10.78 74.28)">Milk Manu-<tspan x="-10.78" y="19.2">facturing Fluid</tspan></text><path class="cls-2" d="M67.89,17.42a23.34,23.34,0,0,0-5.1-11.23,3,3,0,0,0,.83-2.08V3.28a3,3,0,0,0-3-3H43.2a3,3,0,0,0-3,3v.83A3,3,0,0,0,41,6.19,23.42,23.42,0,0,0,35.9,17.42V52.77a3.42,3.42,0,0,0,3.42,3.42H64.48a3.42,3.42,0,0,0,3.42-3.42V17.53A.41.41,0,0,0,67.89,17.42ZM66,52.77a1.53,1.53,0,0,1-1.52,1.53H39.32a1.54,1.54,0,0,1-1.53-1.53V17.59A22.2,22.2,0,0,1,42.44,7.43H61.35A22,22,0,0,1,66,17.59V52.77ZM61.72,3.28v.83a1.13,1.13,0,0,1-1.13,1.13H43.2a1.14,1.14,0,0,1-1.13-1.13V3.28A1.13,1.13,0,0,1,43.2,2.15H60.59A1.12,1.12,0,0,1,61.72,3.28Z"/><path class="cls-2" d="M39.87,20.5a1,1,0,0,0-.69.27,1,1,0,0,0-.28.68v28.2A3.38,3.38,0,0,0,42.28,53H61.52a3.39,3.39,0,0,0,3.38-3.38V17.46a1,1,0,0,0-.66-.9c-.29-.09-3-.83-9.21,1.72C49.2,20.67,40,20.51,39.87,20.5ZM63,18.3V49.65a1.48,1.48,0,0,1-1.48,1.48H42.28a1.49,1.49,0,0,1-1.49-1.48V22.4c2.61,0,9.85-.27,15-2.37C59.64,18.44,62,18.26,63,18.3Z"/></g></g></svg>